<?xml version="1.0" standalone="no"?>
<!DOCTYPE svg PUBLIC "-//W3C//DTD SVG 1.1//EN" "http://www.w3.org/Graphics/SVG/1.1/DTD/svg11.dtd" >
<svg xmlns="http://www.w3.org/2000/svg" xmlns:xlink="http://www.w3.org/1999/xlink" version="1.1">
<metadata>
Created by FontForge 20190801 at Mon Sep 29 10:54:13 2008
 By Jimmy Wärting
Copyright 2008 Jonas Schudel Dalton Maag Ltd. All rights reserved. This font may not be altered in any way without prior permission of Dalton Maag Ltd. DaMa is a trademark of Dalton Maag Ltd.
</metadata>
<defs>
<font id="EffraLight-Regular" horiz-adv-x="360" >
  <font-face 
    font-family="Effra Light"
    font-weight="400"
    font-stretch="normal"
    units-per-em="1000"
    panose-1="2 0 3 6 8 0 0 2 0 4"
    ascent="800"
    descent="-200"
    x-height="460"
    cap-height="667"
    bbox="-130 -223 1171 896"
    underline-thickness="20"
    underline-position="-133"
    unicode-range="U+0020-FB04"
  />
<missing-glyph horiz-adv-x="560" 
d="M50 700h460v-700h-460v700zM445 54v592h-330v-592h330z" />
    <glyph glyph-name="ff" unicode="ff" horiz-adv-x="616" 
d="M107 418h-92v42h92v44q0 85 36 132t105 47q45 0 75 -15t50 -38l-29 -28q-21 21 -42 30.5t-49 9.5q-22 0 -40.5 -6t-32 -22t-21 -43.5t-7.5 -69.5v-41h256v44q0 85 36 132t105 47q45 0 75 -15t50 -38l-29 -28q-21 21 -42 30.5t-49 9.5q-22 0 -40.5 -6t-32 -22t-21 -43.5
t-7.5 -69.5v-41h152v-42h-152v-418h-45v418h-256v-418h-45v418z" />
    <glyph glyph-name="fi" unicode="fi" horiz-adv-x="512" 
d="M107 418h-92v42h92v44q0 85 47.5 132t130.5 47q47 0 82.5 -15t58.5 -38l-29 -32q-25 21 -48.5 33.5t-62.5 12.5q-27 0 -51.5 -6.5t-42.5 -22.5t-29 -44t-11 -70v-41h289v-460h-45v418h-244v-418h-45v418z" />
    <glyph glyph-name="fl" unicode="fl" horiz-adv-x="523" 
d="M107 418h-92v42h92v36q0 88 46.5 137.5t149.5 49.5q41 0 81.5 -10t69.5 -32v-641h-45v620q-23 13 -47.5 18.5t-57.5 5.5q-81 0 -116.5 -34.5t-35.5 -116.5v-33h152v-42h-152v-418h-45v418z" />
    <glyph glyph-name="ffi" unicode="ffi" horiz-adv-x="813" 
d="M107 418h-92v42h92v44q0 85 36 132t105 47q45 0 75 -15t50 -38l-29 -28q-21 21 -42 30.5t-49 9.5q-22 0 -40.5 -6t-32 -22t-21 -43.5t-7.5 -69.5v-41h256v44q0 85 47.5 132t130.5 47q47 0 82.5 -15t58.5 -38l-29 -32q-25 21 -48.5 33.5t-62.5 12.5q-27 0 -51.5 -6.5
t-42.5 -22.5t-29 -44t-11 -70v-41h289v-460h-45v418h-244v-418h-45v418h-256v-418h-45v418z" />
    <glyph glyph-name="ffl" unicode="ffl" horiz-adv-x="824" 
d="M107 418h-92v42h92v44q0 85 36 132t105 47q45 0 75 -15t50 -38l-29 -28q-21 21 -42 30.5t-49 9.5q-22 0 -40.5 -6t-32 -22t-21 -43.5t-7.5 -69.5v-41h256v36q0 88 46.5 137.5t149.5 49.5q41 0 81.5 -10t69.5 -32v-641h-45v620q-23 13 -47.5 18.5t-57.5 5.5
q-81 0 -116.5 -34.5t-35.5 -116.5v-33h152v-42h-152v-418h-45v418h-256v-418h-45v418z" />
    <glyph glyph-name=".notdef" horiz-adv-x="560" 
d="M50 700h460v-700h-460v700zM445 54v592h-330v-592h330z" />
    <glyph glyph-name=".null" horiz-adv-x="0" 
 />
    <glyph glyph-name="nonmarkingreturn" horiz-adv-x="175" 
 />
    <glyph glyph-name="space" unicode=" " horiz-adv-x="181" 
 />
    <glyph glyph-name="exclam" unicode="!" horiz-adv-x="224" 
d="M86 667h52l-4 -501h-44zM80 65h63v-65h-63v65z" />
    <glyph glyph-name="quotedbl" unicode="&#x22;" horiz-adv-x="327" 
d="M82 667h45v-204h-45v204zM212 667h45v-204h-45v204z" />
    <glyph glyph-name="numbersign" unicode="#" horiz-adv-x="770" 
d="M220 186h-159v38h170l45 172h-155v38h166l50 187h43l-50 -187h189l50 187h43l-50 -187h147v-38h-158l-45 -172h143v-38h-154l-50 -186h-43l50 186h-189l-50 -186h-43zM463 224l45 172h-189l-45 -172h189z" />
    <glyph glyph-name="dollar" unicode="$" horiz-adv-x="545" 
d="M93 117q31 -38 71 -62t105 -26v285q-13 3 -23 7q-45 13 -75.5 28.5t-48.5 35.5t-26 45t-8 58q0 31 11.5 59t34 49t56.5 34.5t79 15.5v83h41v-83q34 -3 59.5 -12t44.5 -21.5t32.5 -27t22.5 -27.5l-32 -28q-8 10 -19 21.5t-26 22t-35 18t-47 10.5v-251q36 -11 69 -26
t57.5 -37t39.5 -53.5t15 -76.5q0 -37 -13 -67t-37 -52t-57.5 -35.5t-73.5 -17.5v-78h-41v76q-43 1 -76.5 10.5t-59 23.5t-43.5 31.5t-31 34.5zM310 30q69 7 101 40t32 91q0 27 -7 47.5t-22.5 37t-41 30t-62.5 26.5v-272zM269 602q-36 -2 -61.5 -11.5t-41.5 -24.5t-23.5 -34
t-7.5 -39q0 -24 4.5 -42.5t18.5 -33.5t40.5 -28.5t70.5 -27.5v241z" />
    <glyph glyph-name="percent" unicode="%" horiz-adv-x="840" 
d="M597 630h51l-406 -630h-51zM190 326q19 0 37.5 7.5t33.5 24.5t24 44t9 67t-9 67t-24 43.5t-33.5 23.5t-37.5 7q-18 0 -36.5 -7t-33.5 -23.5t-24 -43.5t-9 -67t9 -67t24 -44t33.5 -24.5t36.5 -7.5zM190 288q-65 0 -107 47t-42 134t42 133t107 46q33 0 60.5 -11.5
t47.5 -34.5t31 -56.5t11 -76.5q0 -87 -42 -134t-108 -47zM649 32q19 0 37.5 7.5t33.5 24.5t24 44t9 67t-9 67t-24 43.5t-33.5 23.5t-37.5 7q-18 0 -36.5 -7t-33.5 -23.5t-24 -43.5t-9 -67t9 -67t24 -44t33.5 -24.5t36.5 -7.5zM649 -6q-65 0 -107 47t-42 134t42 133t107 46
q33 0 60.5 -11.5t47.5 -34.5t31 -56.5t11 -76.5q0 -87 -42 -134t-108 -47z" />
    <glyph glyph-name="ampersand" unicode="&#x26;" horiz-adv-x="631" 
d="M460 93q-19 -22 -40 -41.5t-46.5 -34.5t-55.5 -24t-66 -9q-46 0 -82.5 13.5t-62 37.5t-39 56.5t-13.5 69.5q0 72 41 123t106 92l-28 35q-22 27 -36.5 59.5t-14.5 71.5q0 26 10.5 51.5t30 45.5t48.5 32t67 12q61 0 97 -25.5t62 -81.5l-35 -21q-26 52 -55 69t-67 17
q-27 0 -47.5 -8.5t-34 -22t-20.5 -31.5t-7 -36q0 -34 17 -66t52 -72l218 -242l89 120l36 -26l-95 -127l117 -130h-60zM232 343q-62 -38 -93.5 -78.5t-31.5 -101.5q0 -28 10 -52.5t29 -42.5t46.5 -28.5t62.5 -10.5q30 0 55.5 8t46.5 21.5t39 31t34 36.5z" />
    <glyph glyph-name="quotesingle" unicode="'" horiz-adv-x="177" 
d="M66 667h45v-204h-45v204z" />
    <glyph glyph-name="parenleft" unicode="(" horiz-adv-x="280" 
d="M182 -93q-14 21 -33 58.5t-36.5 89.5t-29.5 115.5t-12 136.5t12 136.5t29.5 115t36.5 89t33 58.5h43q-15 -30 -33 -67.5t-33 -86t-25.5 -109t-10.5 -136.5t10.5 -136.5t25.5 -109.5t33 -86.5t33 -67.5h-43z" />
    <glyph glyph-name="parenright" unicode=")" horiz-adv-x="280" 
d="M55 -93q15 30 33 67.5t33 86.5t25.5 109.5t10.5 136.5t-10.5 136.5t-25.5 109t-33 86t-33 67.5h43q14 -21 33 -58.5t36.5 -89t29.5 -115t12 -136.5t-12 -136.5t-29.5 -115.5t-36.5 -89.5t-33 -58.5h-43z" />
    <glyph glyph-name="asterisk" unicode="*" horiz-adv-x="502" 
d="M71 438l149 80l-149 80l21 37l144 -90l-6 169h42l-6 -169l144 90l21 -37l-149 -80l149 -80l-21 -37l-144 90l6 -169h-42l6 169l-144 -90z" />
    <glyph glyph-name="plus" unicode="+" horiz-adv-x="545" 
d="M72 343h178v173h45v-173h178v-45h-176v-174h-46v174h-179v45z" />
    <glyph glyph-name="comma" unicode="," horiz-adv-x="218" 
d="M100 0h-24v69h66v-69l-44 -78h-30z" />
    <glyph glyph-name="hyphen" unicode="-" horiz-adv-x="437" 
d="M81 304h275v-45h-275v45z" />
    <glyph glyph-name="period" unicode="." horiz-adv-x="219" 
d="M75 68h68v-70h-68v70z" />
    <glyph glyph-name="slash" unicode="/" horiz-adv-x="375" 
d="M296 685h49l-266 -701h-49z" />
    <glyph glyph-name="zero" unicode="0" horiz-adv-x="545" 
d="M271 34q88 0 134.5 75t46.5 211t-46.5 209.5t-134.5 73.5q-86 0 -132.5 -73.5t-46.5 -209.5t46.5 -211t132.5 -75zM272 -12q-54 0 -97 23t-72.5 66t-45.5 104.5t-16 138.5t16 138t45.5 103t72.5 64.5t97 22.5t97 -22.5t72.5 -64.5t45.5 -103t16 -138t-16 -138.5
t-45.5 -104.5t-72.5 -66t-97 -23z" />
    <glyph glyph-name="one" unicode="1" horiz-adv-x="545" 
d="M157 44h119v544l-144 -78l-20 36l164 92h48v-594h119v-44h-286v44z" />
    <glyph glyph-name="two" unicode="2" horiz-adv-x="545" 
d="M78 44q0 53 30.5 94.5t74.5 78.5q17 15 35.5 29.5t36.5 29.5q31 25 58.5 50t48 50.5t32.5 52.5t12 57q0 24 -8 45t-24.5 37t-41.5 25.5t-59 9.5t-58.5 -8t-42.5 -20t-31 -26.5t-23 -27.5l-36 25q9 15 24.5 32.5t38.5 33t54.5 26t72.5 10.5q46 0 81 -13t58.5 -35t35 -51.5
t11.5 -63.5q0 -39 -13.5 -71t-36 -59.5t-51 -52.5t-59.5 -50q-26 -21 -48 -38.5t-41 -34.5q-38 -33 -58 -63.5t-20 -70.5h337v-45h-390v44z" />
    <glyph glyph-name="three" unicode="3" horiz-adv-x="545" 
d="M86 88q10 -8 23.5 -18t33 -19t45 -15.5t60.5 -6.5q77 0 121 41t44 112q0 38 -11.5 65t-31.5 44t-46.5 25t-57.5 8q-24 0 -39.5 -3.5t-32.5 -8.5l-19 33l203 243h-277v44h338v-43l-196 -227q8 2 16.5 3t16.5 1q40 0 74.5 -12.5t59 -36t38.5 -57.5t14 -78q0 -50 -17 -87
t-47 -62t-69.5 -37t-84.5 -12q-41 0 -71.5 7.5t-53 18t-38 21.5t-25.5 19z" />
    <glyph glyph-name="four" unicode="4" horiz-adv-x="545" 
d="M62 190l304 442h50v-442h73v-44h-73v-146h-47v146h-307v44zM369 190v373l-257 -373h257z" />
    <glyph glyph-name="five" unicode="5" horiz-adv-x="545" 
d="M88 86q28 -21 65.5 -39t90.5 -18q39 0 70.5 11.5t53.5 32t34 49t12 63.5q0 26 -6.5 53t-23 49.5t-45 37t-73.5 14.5q-50 0 -80.5 -11.5t-54.5 -26.5l-24 18l53 313h281v-45h-245l-37 -230q16 8 43.5 17.5t69.5 9.5t77.5 -11.5t61.5 -36t40.5 -62t14.5 -89.5
q0 -42 -15 -79t-43.5 -64t-70 -42.5t-94.5 -15.5q-65 0 -109.5 20t-74.5 44z" />
    <glyph glyph-name="six" unicode="6" horiz-adv-x="545" 
d="M430 567q-14 11 -40 22.5t-64 11.5q-52 0 -89 -22t-61 -59t-36.5 -85.5t-15.5 -100.5q11 10 27 20.5t37 19.5t47.5 14.5t58.5 5.5q94 0 142.5 -54t48.5 -154q0 -52 -18 -90t-46.5 -63t-63 -37t-67.5 -12q-58 0 -99 20.5t-66.5 58.5t-37.5 91.5t-12 120.5
q0 184 66.5 277.5t188.5 93.5q45 0 77.5 -14.5t47.5 -27.5zM124 281q-1 -5 -1 -13v-19q0 -42 8.5 -81.5t28 -70.5t50.5 -49.5t77 -18.5q25 0 51.5 9.5t48 28.5t36 48.5t14.5 69.5q0 33 -6 62.5t-22.5 51.5t-46 35t-76.5 13q-51 0 -91 -17t-71 -49z" />
    <glyph glyph-name="seven" unicode="7" horiz-adv-x="545" 
d="M155 0q26 77 61 162.5t71 166t70 148.5t59 110h-340v45h395v-44q-16 -27 -38.5 -70t-47.5 -94.5t-51 -108.5t-49.5 -113t-43.5 -108.5t-32 -93.5h-54z" />
    <glyph glyph-name="eight" unicode="8" horiz-adv-x="545" 
d="M213 337q-27 13 -49.5 27t-39 32t-25.5 41.5t-9 55.5q0 33 12 61.5t35 49t57 32.5t78 12t78 -12t57 -32t35 -46.5t12 -56.5q0 -23 -6.5 -46t-21.5 -44t-40 -39.5t-61 -33.5q3 -1 28.5 -11t55.5 -31.5t54 -56t24 -83.5q0 -30 -11.5 -60.5t-37.5 -55.5t-67 -40.5t-99 -15.5
q-59 0 -99.5 15.5t-66.5 40.5t-37.5 55.5t-11.5 60.5q0 37 15.5 66t38.5 51t50.5 37.5t51.5 26.5zM265 315q-33 -11 -61.5 -26.5t-50 -35t-33.5 -43.5t-12 -51q0 -36 15 -60.5t38.5 -40.5t52.5 -23t58 -7t58 7t52.5 23t38 40.5t14.5 60.5q0 27 -14 51t-38 43.5t-54.5 35
t-63.5 26.5zM272 359q63 22 98.5 55t35.5 87q0 45 -35 74t-99 29t-99 -30t-35 -81q0 -91 134 -134z" />
    <glyph glyph-name="nine" unicode="9" horiz-adv-x="545" 
d="M110 65q14 -11 40 -22.5t64 -11.5q52 0 89 22t61 59t36.5 85t15.5 101q-11 -10 -27 -20.5t-37 -19.5t-47.5 -14.5t-58.5 -5.5q-94 0 -142.5 54t-48.5 154q0 52 18 90t46.5 63t63 37t67.5 12q58 0 99 -20.5t66.5 -58.5t37.5 -91.5t12 -120.5q0 -184 -66.5 -277.5
t-188.5 -93.5q-45 0 -77.5 14.5t-47.5 27.5zM416 351q1 5 1 13v19q0 42 -8.5 81.5t-28 70.5t-50.5 49.5t-77 18.5q-25 0 -51.5 -9.5t-48 -28.5t-36 -48.5t-14.5 -69.5q0 -33 6 -62.5t22.5 -51.5t46 -35t76.5 -13q51 0 91 17t71 49z" />
    <glyph glyph-name="colon" unicode=":" horiz-adv-x="219" 
d="M81 68h68v-70h-68v70zM81 462h68v-70h-68v70z" />
    <glyph glyph-name="semicolon" unicode=";" horiz-adv-x="219" 
d="M106 0h-24v69h66v-69l-44 -78h-30zM81 462h68v-70h-68v70z" />
    <glyph glyph-name="less" unicode="&#x3c;" horiz-adv-x="545" 
d="M73 339l379 190l21 -41l-339 -168l339 -168l-20 -41l-380 190v38z" />
    <glyph glyph-name="equal" unicode="=" horiz-adv-x="545" 
d="M72 252h401v-45h-401v45zM72 425h401v-45h-401v45z" />
    <glyph glyph-name="greater" unicode="&#x3e;" horiz-adv-x="545" 
d="M72 152l339 168l-339 168l20 41l380 -190v-38l-379 -190z" />
    <glyph glyph-name="question" unicode="?" horiz-adv-x="496" 
d="M194 204q0 38 10 66t26.5 49t37 37.5t41.5 31.5q18 13 34 26.5t29 30t20.5 37t7.5 46.5q0 53 -43.5 81.5t-110.5 28.5q-56 0 -96 -20t-74 -61l-32 31q31 38 82 66.5t120 28.5q49 0 87 -12t63.5 -33t39 -50t13.5 -63q0 -31 -9 -54.5t-25 -44t-39 -39t-50 -38.5
q-18 -13 -34 -27t-28 -31.5t-19 -39.5t-7 -52v-33h-44v38zM185 65h63v-65h-63v65z" />
    <glyph glyph-name="at" unicode="@" horiz-adv-x="954" 
d="M185 -10q-22 19 -45 48.5t-41.5 67.5t-30.5 84.5t-12 99.5q0 99 34.5 172.5t92.5 123t134.5 74t160.5 24.5q92 0 169.5 -25t133.5 -74t87.5 -121t31.5 -166q0 -91 -17.5 -151.5t-44 -96.5t-58.5 -51t-62 -15q-15 0 -32 3t-33 12t-28.5 25.5t-17.5 42.5q-18 -24 -40 -39.5
t-44 -25t-42.5 -13t-36.5 -3.5q-32 0 -62.5 7t-53.5 23.5t-37 43.5t-14 66q0 33 11.5 62.5t35.5 51.5t62.5 35t92.5 13q40 0 72.5 -3t55.5 -6v26q0 69 -36 95.5t-105 26.5q-53 0 -85.5 -17t-50.5 -32l-27 35q10 9 26 19.5t37.5 19.5t47.5 15t55 6q89 0 137 -36.5t49 -124.5
v-210q0 -24 5 -38.5t14 -23t21 -11.5t26 -3q24 0 47 14t41 46.5t29.5 84.5t11.5 127q0 85 -28 149t-78 107t-118 64.5t-148 21.5q-67 0 -133 -18.5t-119 -60t-86 -108.5t-33 -163q0 -56 11.5 -99t28 -75.5t36 -55.5t35.5 -39zM608 235q-25 4 -53.5 7t-76.5 3
q-53 0 -82.5 -12.5t-44 -31t-18 -39t-3.5 -36.5q0 -45 30 -69.5t84 -24.5q32 0 61.5 10.5t52.5 28t36.5 41t13.5 49.5v74z" />
    <glyph glyph-name="A" unicode="A" horiz-adv-x="634" 
d="M293 667h48l273 -667h-55l-87 215h-314l-86 -215h-52zM454 260l-139 346l-139 -346h278z" />
    <glyph glyph-name="B" unicode="B" horiz-adv-x="581" 
d="M86 667h221q49 0 84 -13.5t57 -36t32 -52t10 -62.5q0 -28 -9 -53t-24.5 -45.5t-37.5 -34.5t-49 -19q26 -4 54 -14t51 -29.5t38 -50.5t15 -77q0 -54 -20 -88.5t-54.5 -55t-80 -28.5t-96.5 -8h-191v667zM280 370q27 0 55.5 7t51.5 23t38 40.5t15 59.5q0 40 -14.5 64
t-37.5 37t-51.5 17t-56.5 4h-146v-252h146zM265 45q38 0 76 3.5t68.5 17t49.5 40.5t19 74q0 45 -18.5 73.5t-47 44t-63.5 21.5t-68 6h-147v-280h131z" />
    <glyph glyph-name="C" unicode="C" horiz-adv-x="672" 
d="M621 111q-6 -10 -22.5 -31t-46 -42.5t-72.5 -37.5t-102 -16q-72 0 -131.5 26.5t-102 73.5t-65.5 111t-23 139q0 73 23 136.5t65.5 111t102 74.5t131.5 27q59 0 102 -16t72.5 -37.5t46 -42.5t22.5 -31l-36 -25q-6 8 -19.5 25.5t-38 35.5t-60.5 32t-87 14
q-64 0 -114.5 -23.5t-85.5 -64.5t-53.5 -96.5t-18.5 -119.5t19 -119.5t54 -97t86 -65t116 -23.5q47 0 82.5 14t60 32t39 35.5t20.5 25.5z" />
    <glyph glyph-name="D" unicode="D" horiz-adv-x="697" 
d="M86 667h182q82 0 150.5 -19.5t118 -60t77 -103.5t27.5 -150t-27.5 -150t-77 -104t-118 -60.5t-150.5 -19.5h-182v667zM278 45q71 0 128.5 17.5t98.5 53.5t63 90.5t22 127.5t-22.5 127t-64 90t-100.5 53.5t-133 17.5h-136v-577h144z" />
    <glyph glyph-name="E" unicode="E" horiz-adv-x="557" 
d="M86 667h400v-45h-352v-252h275v-45h-275v-280h378v-45h-426v667z" />
    <glyph glyph-name="F" unicode="F" horiz-adv-x="522" 
d="M86 667h400v-45h-352v-252h275v-45h-275v-325h-48v667z" />
    <glyph glyph-name="G" unicode="G" horiz-adv-x="717" 
d="M588 271h-178v45h226v-250q-17 -15 -41 -29.5t-55.5 -26.5t-71 -19t-88.5 -7q-72 0 -132 25.5t-102.5 72t-66 111t-23.5 141.5q0 73 23.5 136.5t66 111t102.5 74.5t132 27q59 0 101.5 -16t71.5 -37.5t45.5 -42.5t22.5 -31l-36 -25q-6 8 -20 25.5t-38.5 35.5t-59.5 32
t-82 14q-65 0 -116.5 -23.5t-87 -64.5t-54.5 -96.5t-19 -119.5t18.5 -119.5t54 -97t86 -65t113.5 -23.5q77 0 126.5 17t81.5 40v185z" />
    <glyph glyph-name="H" unicode="H" horiz-adv-x="688" 
d="M86 667h48v-297h420v297h48v-667h-48v325h-420v-325h-48v667z" />
    <glyph glyph-name="I" unicode="I" horiz-adv-x="220" 
d="M86 667h48v-667h-48v667z" />
    <glyph glyph-name="J" unicode="J" horiz-adv-x="471" 
d="M57 101q24 -29 58 -50.5t83 -21.5q33 0 59.5 9t45.5 30t29 54.5t10 82.5v462h48v-470q0 -111 -51 -162t-144 -51q-35 0 -62 8t-48 21t-37 28t-27 30z" />
    <glyph glyph-name="K" unicode="K" horiz-adv-x="575" 
d="M86 667h48v-348l328 348h59l-252 -269l286 -398h-57l-264 362l-100 -107v-255h-48v667z" />
    <glyph glyph-name="L" unicode="L" horiz-adv-x="540" 
d="M86 667h48v-622h378v-45h-426v667z" />
    <glyph glyph-name="M" unicode="M" horiz-adv-x="783" 
d="M108 667h52l232 -396l237 396h46l30 -667h-48l-23 592l-230 -382h-31l-224 381l-23 -591h-48z" />
    <glyph glyph-name="N" unicode="N" horiz-adv-x="697" 
d="M86 667h50l428 -595v595h47v-667h-50l-428 587v-587h-47v667z" />
    <glyph glyph-name="O" unicode="O" horiz-adv-x="774" 
d="M387 -16q-72 0 -132.5 27t-104.5 74t-69 110.5t-25 137.5q0 73 25 137t69 111.5t104.5 74.5t132.5 27t132.5 -27t104.5 -74.5t69 -111.5t25 -137q0 -74 -25 -137.5t-69 -110.5t-104.5 -74t-132.5 -27zM387 29q63 0 115 23.5t88.5 65t56.5 97t20 118.5t-20 119t-56.5 97
t-88.5 65t-115 24t-115 -24t-88.5 -65t-56.5 -97t-20 -119t20 -118.5t56.5 -97t88.5 -65t115 -23.5z" />
    <glyph glyph-name="P" unicode="P" horiz-adv-x="579" 
d="M86 667h205q65 0 109.5 -14.5t71.5 -40.5t39 -61t12 -76t-12 -76t-39 -61t-71.5 -40.5t-109.5 -14.5h-157v-283h-48v667zM305 328q84 0 125 37.5t41 109.5t-41 109.5t-125 37.5h-171v-294h171z" />
    <glyph glyph-name="Q" unicode="Q" horiz-adv-x="774" 
d="M552 27q-36 -20 -77.5 -31.5t-87.5 -11.5q-72 0 -132.5 27t-104.5 74t-69 110.5t-25 137.5q0 73 25 137t69 111.5t104.5 74.5t132.5 27t132.5 -27t104.5 -74.5t69 -111.5t25 -137q0 -88 -34.5 -160t-94.5 -120l87 -101l-35 -29zM429 172l35 29l96 -113q51 42 79 105.5
t28 139.5q0 63 -20 119t-56.5 97t-88.5 65t-115 24t-115 -24t-88.5 -65t-56.5 -97t-20 -119t20 -118.5t56.5 -97t88.5 -65t115 -23.5q38 0 72 8.5t63 24.5z" />
    <glyph glyph-name="R" unicode="R" horiz-adv-x="596" 
d="M86 667h201q65 0 110 -14t73 -39.5t40.5 -60t12.5 -75.5q0 -65 -33.5 -115.5t-106.5 -67.5l159 -295h-55l-155 289h-198v-289h-48v667zM307 334q165 0 165 144q0 72 -43.5 108t-127.5 36h-167v-288h173z" />
    <glyph glyph-name="S" unicode="S" horiz-adv-x="564" 
d="M82 122q34 -41 81.5 -67t115.5 -26q39 0 71.5 9t56 26.5t36.5 44t13 61.5q0 37 -14.5 63t-38.5 43.5t-54.5 28.5t-61.5 20q-38 10 -76 22.5t-68 33t-48.5 52t-18.5 81.5q0 34 14 65t40.5 54t65 36.5t87.5 13.5q42 0 74.5 -9t57 -22.5t41 -29.5t27.5 -31l-34 -29
q-9 12 -23 25.5t-34 25t-47.5 19t-63.5 7.5q-41 0 -70.5 -11t-48.5 -29t-28 -40.5t-9 -46.5q0 -36 16.5 -59.5t43.5 -39t60.5 -25.5t67.5 -19q35 -9 70 -22.5t62.5 -36t45 -56.5t17.5 -84q0 -43 -18 -77.5t-48.5 -58.5t-72.5 -37t-90 -13q-42 0 -78 9t-65.5 23.5t-52 33
t-36.5 38.5z" />
    <glyph glyph-name="T" unicode="T" horiz-adv-x="616" 
d="M284 624h-259v43h566v-43h-259v-624h-48v624z" />
    <glyph glyph-name="U" unicode="U" horiz-adv-x="672" 
d="M81 667h48v-376q0 -57 9 -105t32.5 -83t63.5 -54.5t102 -19.5t102 19.5t63.5 54.5t32.5 83t9 105v376h48v-401q0 -59 -12.5 -110.5t-42 -89.5t-78.5 -60t-122 -22t-122 22t-78.5 60t-42 89.5t-12.5 110.5v401z" />
    <glyph glyph-name="V" unicode="V" horiz-adv-x="630" 
d="M18 667h55l244 -608l243 608h52l-273 -667h-48z" />
    <glyph glyph-name="W" unicode="W" horiz-adv-x="874" 
d="M30 667h54l160 -599l169 579h59l161 -575l159 595h52l-187 -667h-53l-163 576l-171 -576h-56z" />
    <glyph glyph-name="X" unicode="X" horiz-adv-x="588" 
d="M266 347l-229 320h58l198 -280l200 280h56l-228 -317l250 -350h-58l-219 310l-221 -310h-56z" />
    <glyph glyph-name="Y" unicode="Y" horiz-adv-x="540" 
d="M246 306l-230 361h58l197 -314l197 314h56l-230 -361v-306h-48v306z" />
    <glyph glyph-name="Z" unicode="Z" horiz-adv-x="616" 
d="M49 44l449 578h-427v45h489v-44l-449 -578h456v-45h-518v44z" />
    <glyph glyph-name="bracketleft" unicode="[" horiz-adv-x="292" 
d="M86 706h176v-43h-129v-713h129v-43h-176v799z" />
    <glyph glyph-name="backslash" unicode="\" horiz-adv-x="375" 
d="M30 685h49l266 -701h-49z" />
    <glyph glyph-name="bracketright" unicode="]" horiz-adv-x="292" 
d="M30 -50h129v713h-129v43h176v-799h-176v43z" />
    <glyph glyph-name="asciicircum" unicode="^" horiz-adv-x="528" 
d="M247 667h35l183 -359h-50l-152 305l-151 -305h-48z" />
    <glyph glyph-name="underscore" unicode="_" horiz-adv-x="512" 
d="M6 -77h500v-45h-500v45z" />
    <glyph glyph-name="grave" unicode="`" horiz-adv-x="362" 
d="M122 670h58l60 -128h-42z" />
    <glyph glyph-name="a" unicode="a" horiz-adv-x="492" 
d="M380 235q-21 5 -52.5 8.5t-80.5 3.5q-51 0 -81 -12.5t-45.5 -31t-20 -40t-4.5 -38.5q0 -50 33.5 -73t85.5 -23q34 0 64 12t52.5 32t35.5 45.5t13 51.5v65zM384 0q-1 9 -1 20q-1 10 -1 24v33q-18 -26 -39.5 -43.5t-45 -27.5t-46 -14t-41.5 -4q-29 0 -58 6t-52 21.5
t-37.5 42t-14.5 67.5q0 33 11 62.5t35 51t62 34t92 12.5q42 0 75 -3t56 -7v26q0 38 -9 63t-27 40t-44 21t-60 6q-57 0 -90.5 -16.5t-51.5 -31.5l-24 31q19 18 61.5 38t103.5 20q89 0 137.5 -38t48.5 -126v-212v-37.5t1 -30.5q1 -16 2 -28h-43z" />
    <glyph glyph-name="b" unicode="b" horiz-adv-x="536" 
d="M69 667h45v-289q9 15 22.5 31.5t33.5 30.5t47.5 23t65.5 9q53 0 92 -18.5t64.5 -51t38 -77t12.5 -96.5q0 -58 -19.5 -103t-54 -75.5t-81 -46.5t-100.5 -16q-50 0 -94.5 8.5t-71.5 20.5v650zM113 48q12 -4 41.5 -11t81.5 -7q44 0 81.5 12.5t65.5 37.5t43.5 62.5t15.5 87.5
q0 40 -9 76.5t-28.5 63.5t-50.5 43t-76 16q-42 0 -73 -18t-51.5 -45t-30.5 -59.5t-10 -61.5v-197z" />
    <glyph glyph-name="c" unicode="c" horiz-adv-x="495" 
d="M459 68q-29 -35 -75.5 -57.5t-106.5 -22.5q-50 0 -92.5 18.5t-73.5 51t-48 77t-17 95.5t17.5 95.5t48.5 77t73.5 51t91.5 18.5q61 0 103.5 -21.5t72.5 -59.5l-34 -26q-23 30 -57.5 47.5t-84.5 17.5q-40 0 -73.5 -16t-58 -43t-38 -63.5t-13.5 -77.5t14 -77.5t38.5 -63.5
t58 -43t72.5 -16q50 0 88.5 18t61.5 48z" />
    <glyph glyph-name="d" unicode="d" horiz-adv-x="538" 
d="M425 0q-1 13 -1 26q-1 11 -1 25.5v28.5q-15 -26 -40 -46q-21 -17 -53 -31.5t-77 -14.5q-53 0 -92 18.5t-64.5 50.5t-38 75.5t-12.5 93.5q0 56 17.5 101.5t49 77.5t75 49.5t95.5 17.5q29 0 53.5 -7t44.5 -15q22 -10 42 -22v239h44v-571v-37.5t1 -30.5q0 -16 1 -28h-44z
M423 379q-15 14 -35 25q-17 10 -44 18t-62 8q-36 0 -69.5 -11.5t-60 -36.5t-42.5 -64t-16 -93q0 -39 9 -74t28.5 -62t50.5 -43t76 -16q42 0 73 15.5t51.5 38.5t30.5 48.5t10 45.5v201z" />
    <glyph glyph-name="e" unicode="e" horiz-adv-x="534" 
d="M468 69q-30 -38 -81.5 -59.5t-105.5 -21.5q-51 0 -94.5 17.5t-74.5 49.5t-48.5 76.5t-17.5 98.5q0 50 16.5 94t45.5 77t70 52t90 19q47 0 87.5 -16.5t70 -48.5t46 -79.5t16.5 -109.5h-392q1 -39 15 -73.5t38 -60t57.5 -40t74.5 -14.5q21 0 43.5 4.5t43.5 13.5t38.5 21
t29.5 27zM439 257q-9 85 -54 129t-117 44q-37 0 -67.5 -13.5t-52.5 -37t-35.5 -55t-15.5 -67.5h342z" />
    <glyph glyph-name="f" unicode="f" horiz-adv-x="315" 
d="M107 418h-92v42h92v53q0 82 36.5 126t105.5 44q45 0 74.5 -15t49.5 -38l-29 -28q-21 21 -42 30.5t-49 9.5q-22 0 -40.5 -6t-32 -22.5t-21 -45t-7.5 -73.5v-35h152v-42h-152v-418h-45v418z" />
    <glyph glyph-name="g" unicode="g" horiz-adv-x="534" 
d="M423 409q-15 6 -33 10q-16 4 -38.5 7.5t-51.5 3.5q-42 0 -79 -13.5t-65.5 -39.5t-45 -64.5t-16.5 -87.5q0 -39 9 -74t28.5 -62t50.5 -43t76 -16q44 0 75 16.5t51 40t29.5 49t9.5 42.5v231zM110 -125q16 -13 50 -28.5t90 -15.5q50 0 83 13.5t53 37t28 55.5t8 70v70
q-16 -26 -41 -45q-21 -17 -52.5 -30.5t-75.5 -13.5q-53 0 -92 18.5t-64.5 50.5t-38 75.5t-12.5 93.5q0 56 19.5 101.5t54 77.5t81 49.5t100.5 17.5q50 0 94.5 -10t71.5 -22v-430q0 -51 -12 -92.5t-38.5 -70t-68 -44t-100.5 -15.5q-33 0 -60 5.5t-47 14t-34.5 17.5t-22.5 16z
" />
    <glyph glyph-name="h" unicode="h" horiz-adv-x="532" 
d="M69 667h45v-299q8 15 22.5 33.5t36.5 34t51 26t67 10.5q49 0 82.5 -14t54.5 -40.5t30 -64t9 -83.5v-270h-45v255q0 51 -9 85t-26.5 54t-43 28t-58.5 8q-44 0 -76 -18t-53 -46t-31.5 -62t-10.5 -67v-237h-45v667z" />
    <glyph glyph-name="i" unicode="i" horiz-adv-x="187" 
d="M62 622h63v-65h-63v65zM71 460h45v-460h-45v460z" />
    <glyph glyph-name="j" unicode="j" horiz-adv-x="187" 
d="M-71 -131q17 -15 32 -22t35 -7q15 0 28.5 5t24 20t16.5 42t6 72v481h45v-474q0 -44 -5 -78.5t-18.5 -58.5t-37.5 -36.5t-61 -12.5q-29 0 -52.5 11t-36.5 25zM62 622h63v-65h-63v65z" />
    <glyph glyph-name="k" unicode="k" horiz-adv-x="454" 
d="M69 667h45v-437l236 230h59l-176 -171l211 -289h-54l-189 257l-87 -84v-173h-45v667z" />
    <glyph glyph-name="l" unicode="l" horiz-adv-x="183" 
d="M69 667h45v-667h-45v667z" />
    <glyph glyph-name="m" unicode="m" horiz-adv-x="847" 
d="M71 363v32.5v24t-0.5 20t-1.5 20.5h42q1 -11 1.5 -20t1 -19.5t0.5 -24v-32.5q8 15 22 34t35 35.5t50 27.5t67 11q67 0 102 -28.5t49 -80.5v1q7 14 22.5 32.5t38.5 35.5t53 28.5t67 11.5q46 0 77.5 -14t50 -40.5t26.5 -64t8 -83.5v-270h-45v255q0 51 -8 85t-24 54
t-38.5 28t-52.5 8q-34 0 -64 -14t-52.5 -37t-35.5 -52.5t-13 -61.5v-265h-45v255q0 51 -8 85t-23.5 54t-38 28t-52.5 8q-41 0 -72 -18t-52 -46t-31.5 -62t-10.5 -67v-237h-45v363z" />
    <glyph glyph-name="n" unicode="n" horiz-adv-x="534" 
d="M71 363v32.5v24t-0.5 20t-1.5 20.5h42q1 -11 1.5 -20t1 -19.5t0.5 -24v-32.5q8 15 22.5 34t36 35.5t51.5 27.5t69 11q49 0 82.5 -14t54.5 -40.5t30 -64t9 -83.5v-270h-45v255q0 51 -9 85t-26.5 54t-43 28t-58.5 8q-44 0 -76 -18t-53 -46t-31.5 -62t-10.5 -67v-237h-45
v363z" />
    <glyph glyph-name="o" unicode="o" horiz-adv-x="566" 
d="M283 -12q-49 0 -92 19t-75.5 52t-51 77t-18.5 94t18.5 94t51 77t75.5 52t92 19t92 -19t75.5 -52t51 -77t18.5 -94t-18.5 -94t-51 -77t-75.5 -52t-92 -19zM283 29q40 0 75 16t60.5 43t40 63.5t14.5 78.5q0 40 -15 76.5t-40.5 64.5t-60.5 44t-74 16q-41 0 -75.5 -16
t-60 -43t-40 -63.5t-14.5 -78.5q0 -41 15 -77t40.5 -64t60.5 -44t74 -16z" />
    <glyph glyph-name="p" unicode="p" horiz-adv-x="538" 
d="M71 363v32.5v24t-0.5 20t-1.5 20.5h42q1 -11 1.5 -19.5t1 -17.5t1 -20.5t0.5 -27.5q5 9 16 25t31.5 32t50.5 28t72 12q53 0 92 -19t64.5 -52t38 -77.5t12.5 -96.5q0 -54 -17.5 -98t-49 -75.5t-74 -48.5t-92.5 -17q-49 0 -84 13.5t-60 27.5v-229h-44v563zM115 80
q7 -5 19 -13.5t30 -16.5t41.5 -14t53.5 -6q38 0 72 13t59 38t39.5 61.5t14.5 84.5q0 40 -9 77t-28.5 65t-50.5 44.5t-76 16.5q-30 0 -54.5 -9t-43.5 -24.5t-33 -36t-22 -42.5q-7 -18 -9.5 -43t-2.5 -51v-144z" />
    <glyph glyph-name="q" unicode="q" horiz-adv-x="536" 
d="M422 77q-16 -26 -40 -45q-20 -17 -52 -30.5t-77 -13.5q-53 0 -92 18.5t-64.5 50.5t-38 75.5t-12.5 93.5q0 56 19.5 101.5t54 77.5t81 49.5t100.5 17.5q50 0 94.5 -10t71.5 -22v-640h-45v277zM423 409q-15 6 -33 10q-16 4 -38.5 7.5t-51.5 3.5q-42 0 -79 -13.5
t-65.5 -39.5t-45 -64.5t-16.5 -87.5q0 -39 9 -74t28.5 -62t50.5 -43t76 -16t76.5 17t51 41t28.5 49t9 41v231z" />
    <glyph glyph-name="r" unicode="r" horiz-adv-x="337" 
d="M71 363v32.5v24t-0.5 20t-1.5 20.5h42q1 -11 1.5 -21t1 -21.5t0.5 -25.5v-33q8 15 21.5 33.5t34.5 34.5t49 27t65 11q22 0 38 -7l-13 -43q-7 3 -16.5 4t-17.5 1q-36 0 -65 -16t-50 -42t-32.5 -59.5t-11.5 -67.5v-235h-45v363z" />
    <glyph glyph-name="s" unicode="s" horiz-adv-x="462" 
d="M70 90q29 -29 66.5 -44.5t88.5 -15.5q28 0 53 5.5t44 16t30 26.5t11 38q0 25 -10 41t-29.5 26.5t-49 18t-67.5 16.5q-32 7 -58.5 16.5t-45.5 23.5t-30 35.5t-11 53.5q0 31 14 54.5t37.5 39.5t54 23.5t63.5 7.5q54 0 95.5 -20t67.5 -51l-31 -28q-24 26 -55.5 42t-75.5 16
q-22 0 -44 -3.5t-40 -13t-29 -26t-11 -43.5q0 -22 12.5 -37t32.5 -25t46 -16.5t52 -12.5q28 -6 56.5 -15t52 -23.5t38 -37t14.5 -56.5q0 -35 -16 -60t-42 -41.5t-59 -24.5t-66 -8q-65 0 -110.5 19t-77.5 51z" />
    <glyph glyph-name="t" unicode="t" horiz-adv-x="355" 
d="M110 418h-92v42h92v152h45v-152h152v-42h-152v-266q0 -41 6 -65.5t17.5 -37t26.5 -16.5t33 -4q25 0 43 9t36 31l28 -27q-20 -26 -45.5 -40t-66.5 -14q-27 0 -50 6.5t-39 24t-25 47t-9 75.5v277z" />
    <glyph glyph-name="u" unicode="u" horiz-adv-x="528" 
d="M65 460h45v-255q0 -51 8.5 -85t25.5 -54t42 -28t58 -8q43 0 75 18t52.5 46t30.5 62t10 67v237h45v-363v-33v-23.5t0.5 -20t1.5 -20.5h-42q-1 11 -1.5 20t-1 19.5t-0.5 23.5v33q-8 -15 -22 -34t-35 -35.5t-50.5 -27.5t-68.5 -11q-49 0 -82 14t-53.5 40.5t-29 63.5t-8.5 84
v270z" />
    <glyph glyph-name="v" unicode="v" horiz-adv-x="463" 
d="M10 460h51l173 -405l172 405h47l-200 -460h-42z" />
    <glyph glyph-name="w" unicode="w" horiz-adv-x="680" 
d="M15 460h50l128 -401l132 401h43l129 -408l122 408h46l-147 -460h-49l-127 392l-129 -392h-43z" />
    <glyph glyph-name="x" unicode="x" horiz-adv-x="456" 
d="M197 246l-163 214h56l138 -181l134 181h50l-159 -214l188 -246h-56l-163 213l-157 -213h-50z" />
    <glyph glyph-name="y" unicode="y" horiz-adv-x="462" 
d="M45 -149q9 -9 24.5 -16t35.5 -7q30 0 46.5 21t31.5 60l38 97l-205 454h51l177 -399l153 399h49l-226 -569q-6 -15 -15 -33t-22.5 -33.5t-32.5 -26t-45 -10.5q-29 0 -48.5 8.5t-34.5 22.5z" />
    <glyph glyph-name="z" unicode="z" horiz-adv-x="481" 
d="M61 42l308 378h-296v40h350v-42l-310 -377h317v-41h-369v42z" />
    <glyph glyph-name="braceleft" unicode="{" horiz-adv-x="266" 
d="M175 -93q-23 19 -34 48t-15 73l-14 171q-2 31 -22.5 58t-58.5 32v36q38 5 58.5 32t22.5 58l14 170q4 44 15 73t34 48h51q-18 -18 -33 -44t-18 -66l-13 -180q-4 -51 -26 -75.5t-51 -33.5q29 -9 51 -33.5t26 -73.5l13 -183q3 -40 18 -66t33 -44h-51z" />
    <glyph glyph-name="bar" unicode="|" horiz-adv-x="215" 
d="M86 833h43v-997h-43v997z" />
    <glyph glyph-name="braceright" unicode="}" horiz-adv-x="266" 
d="M40 -93q18 18 33 44t18 66l13 183q4 49 26 73.5t51 33.5q-29 9 -51 33.5t-26 75.5l-13 180q-3 40 -18 66t-33 44h51q23 -19 34 -48t15 -73l14 -170q2 -31 22.5 -58t58.5 -32v-36q-38 -5 -58.5 -32t-22.5 -58l-14 -171q-4 -44 -15 -73t-34 -48h-51z" />
    <glyph glyph-name="asciitilde" unicode="~" horiz-adv-x="444" 
d="M48 294q3 3 10 12t20 19t31 18t42 8q26 0 43 -7.5t37 -18.5q14 -8 30.5 -15t35.5 -7q26 0 45 14t27 25l26 -31q-3 -5 -10.5 -13t-19.5 -16.5t-29 -15t-39 -6.5q-28 0 -45 7.5t-37 18.5q-14 8 -31 15.5t-34 7.5q-14 0 -26 -4.5t-21 -11t-15.5 -14t-10.5 -12.5z" />
    <glyph glyph-name="uni00A0" unicode="&#xa0;" horiz-adv-x="175" 
 />
    <glyph glyph-name="exclamdown" unicode="&#xa1;" horiz-adv-x="224" 
d="M138 -207h-52l4 501h44zM144 395h-63v65h63v-65z" />
    <glyph glyph-name="cent" unicode="&#xa2;" horiz-adv-x="545" 
d="M276 71q-45 4 -83 24.5t-65 52.5t-42 74.5t-15 91.5q0 48 15.5 90.5t43 74.5t65 52.5t81.5 25.5v92h41v-91q55 -2 93.5 -23.5t67.5 -56.5l-34 -26q-22 28 -52.5 45t-74.5 19v-404q45 3 79 20.5t56 45.5l31 -29q-27 -33 -69.5 -54.5t-96.5 -24.5v-89h-41v90zM276 515
q-35 -5 -64 -22.5t-49.5 -44.5t-32 -61t-11.5 -73q0 -38 11.5 -72t32.5 -60.5t50 -44.5t63 -23v401z" />
    <glyph glyph-name="sterling" unicode="&#xa3;" horiz-adv-x="545" 
d="M143 315h-69v45h69v88q0 27 5 61.5t24 65t55 52t99 21.5q33 0 59 -9.5t44.5 -21.5t29.5 -22.5t13 -12.5l-29 -32q-5 6 -15 15.5t-24.5 18.5t-34.5 15t-45 6q-40 0 -65.5 -13t-40.5 -35.5t-20.5 -53.5t-5.5 -67v-76h210v-45h-210v-270h312v-45h-361v315z" />
    <glyph glyph-name="currency" unicode="&#xa4;" horiz-adv-x="545" 
d="M45 154l69 67q-20 26 -30.5 56.5t-10.5 65.5q0 34 10.5 64.5t29.5 56.5l-68 67l34 35l68 -67q26 21 58.5 33t68.5 12q35 0 67 -12t58 -32l68 66l34 -35l-68 -66q20 -26 31 -56.5t11 -65.5t-11 -66t-31 -57l68 -66l-34 -36l-68 67q-26 -20 -58 -31.5t-67 -11.5
q-73 0 -126 44l-69 -68zM118 343q0 -32 12.5 -60.5t33.5 -49.5t49.5 -33.5t60.5 -12.5t60.5 12.5t49.5 33.5t33.5 49.5t12.5 60.5t-12.5 60.5t-33.5 49.5t-49.5 33.5t-60.5 12.5t-60.5 -12.5t-49.5 -33.5t-33.5 -49.5t-12.5 -60.5z" />
    <glyph glyph-name="yen" unicode="&#xa5;" horiz-adv-x="545" 
d="M70 181h183v94l-5 7h-178v40h152l-187 309h56l183 -309l184 309h54l-186 -309h145v-40h-170l-4 -7v-94h174v-40h-174v-141h-44v141h-183v40z" />
    <glyph glyph-name="brokenbar" unicode="&#xa6;" horiz-adv-x="215" 
d="M86 833h43v-379h-43v379zM86 215h43v-379h-43v379z" />
    <glyph glyph-name="section" unicode="&#xa7;" horiz-adv-x="481" 
d="M217 306q-24 15 -49 33.5t-45 41.5t-32.5 53t-12.5 68t15 71t40.5 58t59 39t69.5 14q27 0 49 -5t39.5 -12t29.5 -15t18 -13l-26 -39q-29 21 -56.5 30.5t-54.5 9.5q-33 0 -58 -12.5t-42 -32.5t-25.5 -44t-8.5 -47q0 -31 11 -54.5t27 -41.5t34 -31t33 -22l182 -117l-26 -40
zM121 -129q32 -21 58.5 -30.5t63.5 -9.5q36 0 61.5 12.5t41.5 32.5t23.5 44t7.5 47q0 31 -11 54.5t-27 41.5t-34 31t-33 22l-182 117l26 40l171 -108q24 -15 49 -33.5t45 -41.5t32.5 -53t12.5 -68t-13.5 -71t-38 -58t-58.5 -39t-74 -14q-55 0 -91.5 17t-54.5 31z" />
    <glyph glyph-name="dieresis" unicode="&#xa8;" horiz-adv-x="350" 
d="M219 628h60v-63h-60v63zM71 628h60v-63h-60v63z" />
    <glyph glyph-name="copyright" unicode="&#xa9;" horiz-adv-x="808" 
d="M561 223q-25 -38 -65.5 -60.5t-88.5 -22.5q-41 0 -75.5 14.5t-59.5 40t-38.5 60t-13.5 75.5q0 40 14.5 75t39.5 60.5t59.5 40t73.5 14.5q49 0 89 -22t65 -60l-35 -24q-20 28 -52 46t-67 18q-30 0 -55.5 -11.5t-44 -31.5t-29.5 -47t-11 -58q0 -30 10 -56.5t28 -47t44 -32
t58 -11.5q39 0 70.5 19.5t51.5 47.5zM404 27q65 0 119.5 24t94 65.5t61.5 97.5t22 119t-22 119t-61.5 97.5t-94 65.5t-119.5 24t-119.5 -24t-94.5 -65.5t-62 -97.5t-22 -119t22 -119t62 -97.5t94.5 -65.5t119.5 -24zM56 334q0 73 27 136.5t74 111t110.5 74.5t137.5 27
q73 0 136.5 -27t110 -74.5t73.5 -111t27 -136.5t-27 -136.5t-73.5 -111t-110 -74.5t-136.5 -27q-74 0 -137.5 27t-110.5 74.5t-74 111t-27 136.5z" />
    <glyph glyph-name="ordfeminine" unicode="&#xaa;" horiz-adv-x="384" 
d="M280 499q-14 2 -34.5 3.5t-45.5 1.5q-31 0 -50 -7t-29 -17t-13.5 -21.5t-3.5 -21.5q0 -25 18 -37.5t50 -12.5q19 0 38 5.5t34.5 16t25.5 25t10 31.5v34zM72 607q14 13 44 27t72 14q60 0 96 -23.5t36 -77.5v-124q0 -24 0.5 -38.5t1.5 -25.5h-39q-1 10 -1.5 16t-0.5 18
q-24 -23 -57 -32.5t-59 -9.5q-19 0 -38 4t-34 13.5t-24.5 26t-9.5 42.5q0 44 34.5 73t106.5 29q23 0 43.5 -2t34.5 -4v9q0 40 -25 54t-64 14q-35 0 -58 -11t-35 -21z" />
    <glyph glyph-name="guillemotleft" unicode="&#xab;" horiz-adv-x="450" 
d="M77 234l106 192h49l-105 -192l105 -192h-49zM225 234l106 192h49l-105 -192l105 -192h-49z" />
    <glyph glyph-name="logicalnot" unicode="&#xac;" horiz-adv-x="545" 
d="M72 346h401v-164h-45v119h-356v45z" />
    <glyph glyph-name="uni00AD" unicode="&#xad;" horiz-adv-x="437" 
d="M87 304h275v-45h-275v45z" />
    <glyph glyph-name="registered" unicode="&#xae;" horiz-adv-x="808" 
d="M296 515h122q61 0 90 -30.5t29 -73.5q0 -39 -19.5 -67t-58.5 -42l90 -152h-49l-87 147h-74v-147h-43v365zM417 334q37 0 56.5 20.5t19.5 55.5q0 68 -86 68h-68v-144h78zM404 27q65 0 119.5 24t94 65.5t61.5 97.5t22 119t-22 119t-61.5 97.5t-94 65.5t-119.5 24
t-119.5 -24t-94.5 -65.5t-62 -97.5t-22 -119t22 -119t62 -97.5t94.5 -65.5t119.5 -24zM56 334q0 73 27 136.5t74 111t110.5 74.5t137.5 27q73 0 136.5 -27t110 -74.5t73.5 -111t27 -136.5t-27 -136.5t-73.5 -111t-110 -74.5t-136.5 -27q-74 0 -137.5 27t-110.5 74.5t-74 111
t-27 136.5z" />
    <glyph glyph-name="macron" unicode="&#xaf;" horiz-adv-x="353" 
d="M60 619h233v-42h-233v42z" />
    <glyph glyph-name="degree" unicode="&#xb0;" horiz-adv-x="323" 
d="M31 519q0 28 10 51.5t27.5 40.5t41.5 27t51 10q28 0 52 -9.5t41.5 -27t27.5 -41t10 -50.5q0 -28 -10 -51.5t-27.5 -41t-41.5 -27t-51 -9.5q-28 0 -52 9.5t-41.5 27t-27.5 41t-10 50.5zM162 431q18 0 33.5 7t27.5 19.5t19 28.5t7 34t-7 33.5t-19 27.5t-28 19t-34 7
t-33.5 -7t-27.5 -19t-19 -28t-7 -34t7 -34t19 -28t28 -19t34 -7z" />
    <glyph glyph-name="plusminus" unicode="&#xb1;" horiz-adv-x="545" 
d="M72 45h401v-45h-401v45zM72 343h178v173h45v-173h178v-45h-176v-174h-46v174h-179v45z" />
    <glyph glyph-name="twosuperior" unicode="&#xb2;" 
d="M49 336q0 18 8.5 33t23 28t32.5 25t37 23q18 11 35 22t30.5 23t22 25.5t8.5 29.5q0 33 -23.5 48t-54.5 15q-30 0 -55 -14.5t-40 -34.5l-30 27q17 22 50.5 42t78.5 20q31 0 54 -8.5t38 -22.5t22 -32t7 -37q0 -25 -10.5 -44.5t-27 -35.5t-37 -29t-40.5 -24
q-31 -18 -55.5 -35t-24.5 -42h198v-40h-247v38z" />
    <glyph glyph-name="threesuperior" unicode="&#xb3;" 
d="M64 352q17 -13 38.5 -20t47.5 -7q42 0 69 19.5t27 53.5q0 20 -7 33.5t-18 22t-25.5 12t-30.5 3.5q-9 0 -19 -1t-19 -4l-12 23l107 117h-155v34h210v-28l-106 -111q4 1 8 1.5t10 0.5q47 0 74 -30t27 -70q0 -50 -37.5 -81.5t-101.5 -31.5q-32 0 -58.5 8t-50.5 23z" />
    <glyph glyph-name="acute" unicode="&#xb4;" horiz-adv-x="244" 
d="M125 667h55l-75 -128h-42z" />
    <glyph glyph-name="mu" unicode="&#xb5;" horiz-adv-x="528" 
d="M64 460h46v-255q0 -44 4.5 -71t12.5 -44q19 -35 48 -47.5t69 -12.5q43 0 75 18t52.5 46t30.5 62t10 67v237h45v-363v-33v-23.5t0.5 -20t1.5 -20.5h-42q-1 11 -1.5 20t-1 19.5t-0.5 23.5v33q-8 -15 -22 -34t-35 -35.5t-50.5 -27.5t-68.5 -11q-45 0 -75 11.5t-53 39.5v-239
h-46v660z" />
    <glyph glyph-name="paragraph" unicode="&#xb6;" horiz-adv-x="503" 
d="M282 316q-41 0 -81.5 8.5t-72.5 29t-52 54t-20 83.5t20 83.5t52 54t72.5 29.5t81.5 9v-351zM370 667h47v-789h-47v789zM235 261q14 -2 25 -2.5t22 -0.5v-380h-47v383z" />
    <glyph glyph-name="periodcentered" unicode="&#xb7;" horiz-adv-x="208" 
d="M71 358h68v-70h-68v70z" />
    <glyph glyph-name="cedilla" unicode="&#xb8;" horiz-adv-x="339" 
d="M76 -165q14 -6 33 -11.5t43 -5.5q36 0 55.5 12.5t19.5 35.5q0 20 -15 31.5t-48 11.5q-20 0 -37.5 -3.5t-40.5 -11.5l6 35q12 4 29.5 9.5t54.5 5.5q24 0 42 -7t29 -17.5t16.5 -24.5t5.5 -27q0 -42 -32.5 -63.5t-81.5 -21.5q-37 0 -56.5 6.5t-30.5 11.5z" />
    <glyph glyph-name="onesuperior" unicode="&#xb9;" 
d="M187 594l-104 -50l-16 33l126 61h38v-340h-44v296z" />
    <glyph glyph-name="ordmasculine" unicode="&#xba;" horiz-adv-x="387" 
d="M41 499q0 31 11 58t31 47t48 32t63 12q34 0 62 -12t48 -32t31 -47t11 -58t-11 -58t-31 -47.5t-48 -32t-62 -11.5q-35 0 -63 11.5t-48 32t-31 47.5t-11 58zM194 388q28 0 49 10t34.5 26t20 36t6.5 39t-6.5 39t-20 35.5t-34.5 25.5t-49 10q-29 0 -50 -10t-34.5 -25.5
t-20 -35.5t-6.5 -39t6.5 -39t20 -36t34.5 -26t50 -10z" />
    <glyph glyph-name="guillemotright" unicode="&#xbb;" horiz-adv-x="450" 
d="M187 234l-105 192h49l106 -192l-106 -192h-49zM335 234l-105 192h49l106 -192l-106 -192h-49z" />
    <glyph glyph-name="questiondown" unicode="&#xbf;" horiz-adv-x="496" 
d="M324 256q0 -38 -10 -66t-26.5 -49t-37 -37.5t-41.5 -31.5q-18 -13 -34 -26.5t-29 -30t-20.5 -37t-7.5 -46.5q0 -53 43.5 -81.5t110.5 -28.5q56 0 96 20t74 61l32 -31q-31 -38 -82 -66.5t-120 -28.5q-49 0 -87 12t-63.5 33t-39 50t-13.5 63q0 31 9 54.5t25 44t39 39
t50 38.5q18 13 34 27t28 31.5t19 39.5t7 52v33h44v-38zM333 395h-63v65h63v-65z" />
    <glyph glyph-name="Agrave" unicode="&#xc0;" horiz-adv-x="634" 
d="M293 667h48l273 -667h-55l-87 215h-314l-86 -215h-52zM454 260l-139 346l-139 -346h278zM222 866h61l75 -141h-44z" />
    <glyph glyph-name="Aacute" unicode="&#xc1;" horiz-adv-x="634" 
d="M293 667h48l273 -667h-55l-87 215h-314l-86 -215h-52zM454 260l-139 346l-139 -346h278zM353 866h64l-94 -141h-44z" />
    <glyph glyph-name="Acircumflex" unicode="&#xc2;" horiz-adv-x="634" 
d="M293 667h48l273 -667h-55l-87 215h-314l-86 -215h-52zM454 260l-139 346l-139 -346h278zM288 866h53l113 -141h-52l-89 108l-89 -108h-53z" />
    <glyph glyph-name="Atilde" unicode="&#xc3;" horiz-adv-x="634" 
d="M293 667h48l273 -667h-55l-87 215h-314l-86 -215h-52zM454 260l-139 346l-139 -346h278zM149 789q20 22 46.5 36.5t55.5 14.5q24 0 41 -7.5t31.5 -16t28.5 -16t31 -7.5q20 0 36.5 8.5t37.5 28.5l28 -30q-20 -22 -46.5 -36t-55.5 -14q-24 0 -40.5 7.5t-31 16t-28.5 16
t-32 7.5q-20 0 -38 -8.5t-39 -28.5z" />
    <glyph glyph-name="Adieresis" unicode="&#xc4;" horiz-adv-x="634" 
d="M293 667h48l273 -667h-55l-87 215h-314l-86 -215h-52zM454 260l-139 346l-139 -346h278zM367 829h66v-69h-66v69zM201 829h66v-69h-66v69z" />
    <glyph glyph-name="Aring" unicode="&#xc5;" horiz-adv-x="634" 
d="M280 636q-30 11 -49 37t-19 61q0 47 30 76t74 29q45 0 75.5 -29t30.5 -74q0 -37 -19.5 -63t-49.5 -37l261 -636h-55l-87 215h-314l-86 -215h-52zM454 260l-139 346l-139 -346h278zM318 667q26 0 45.5 19.5t19.5 49.5q0 29 -19.5 47.5t-47.5 18.5q-27 0 -46 -19t-19 -49
q0 -27 18 -47t49 -20z" />
    <glyph glyph-name="AE" unicode="&#xc6;" horiz-adv-x="950" 
d="M455 667h424v-45h-352v-252h275v-45h-275v-280h378v-45h-426v195h-285l-129 -195h-55zM479 240v385l-255 -385h255z" />
    <glyph glyph-name="Ccedilla" unicode="&#xc7;" horiz-adv-x="672" 
d="M621 111q-6 -10 -22.5 -31t-46 -42.5t-72.5 -37.5t-102 -16q-72 0 -131.5 26.5t-102 73.5t-65.5 111t-23 139q0 73 23 136.5t65.5 111t102 74.5t131.5 27q59 0 102 -16t72.5 -37.5t46 -42.5t22.5 -31l-36 -25q-6 8 -19.5 25.5t-38 35.5t-60.5 32t-87 14
q-64 0 -114.5 -23.5t-85.5 -64.5t-53.5 -96.5t-18.5 -119.5t19 -119.5t54 -97t86 -65t116 -23.5q47 0 82.5 14t60 32t39 35.5t20.5 25.5zM278 -160q14 -6 34 -11.5t45 -5.5q78 0 78 45q0 39 -65 39q-21 0 -40 -3.5t-42 -11.5l7 40q18 6 37.5 10.5t51.5 4.5q26 0 44.5 -7
t30.5 -18.5t17.5 -25t5.5 -26.5q0 -42 -34.5 -64.5t-84.5 -22.5q-36 0 -58.5 6.5t-34.5 11.5z" />
    <glyph glyph-name="Egrave" unicode="&#xc8;" horiz-adv-x="557" 
d="M86 667h400v-45h-352v-252h275v-45h-275v-280h378v-45h-426v667zM206 866h61l75 -141h-44z" />
    <glyph glyph-name="Eacute" unicode="&#xc9;" horiz-adv-x="557" 
d="M86 667h400v-45h-352v-252h275v-45h-275v-280h378v-45h-426v667zM325 866h64l-94 -141h-44z" />
    <glyph glyph-name="Ecircumflex" unicode="&#xca;" horiz-adv-x="557" 
d="M86 667h400v-45h-352v-252h275v-45h-275v-280h378v-45h-426v667zM264 866h53l113 -141h-52l-89 108l-89 -108h-53z" />
    <glyph glyph-name="Edieresis" unicode="&#xcb;" horiz-adv-x="557" 
d="M86 667h400v-45h-352v-252h275v-45h-275v-280h378v-45h-426v667zM336 829h66v-69h-66v69zM170 829h66v-69h-66v69z" />
    <glyph glyph-name="Igrave" unicode="&#xcc;" horiz-adv-x="220" 
d="M86 667h48v-667h-48v667zM7 866h61l75 -141h-44z" />
    <glyph glyph-name="Iacute" unicode="&#xcd;" horiz-adv-x="220" 
d="M86 667h48v-667h-48v667zM155 866h64l-94 -141h-44z" />
    <glyph glyph-name="Icircumflex" unicode="&#xce;" horiz-adv-x="220" 
d="M86 667h48v-667h-48v667zM88 866h53l113 -141h-52l-89 108l-89 -108h-53z" />
    <glyph glyph-name="Idieresis" unicode="&#xcf;" horiz-adv-x="220" 
d="M86 667h48v-667h-48v667zM161 829h66v-69h-66v69zM-5 829h66v-69h-66v69z" />
    <glyph glyph-name="Eth" unicode="&#xd0;" horiz-adv-x="711" 
d="M100 323h-80v42h80v302h182q82 0 150.5 -19.5t118 -60t77 -103.5t27.5 -150t-27.5 -150t-77 -104t-118 -60.5t-150.5 -19.5h-182v323zM292 45q71 0 128.5 17.5t98.5 53.5t63 90.5t22 127.5t-22.5 127t-64 90t-100.5 53.5t-133 17.5h-136v-257h191v-42h-191v-278h144z" />
    <glyph glyph-name="Ntilde" unicode="&#xd1;" horiz-adv-x="697" 
d="M86 667h50l428 -595v595h47v-667h-50l-428 587v-587h-47v667zM182 789q20 22 46.5 36.5t55.5 14.5q24 0 41 -7.5t31.5 -16t28.5 -16t31 -7.5q20 0 36.5 8.5t37.5 28.5l28 -30q-20 -22 -46.5 -36t-55.5 -14q-24 0 -40.5 7.5t-31 16t-28.5 16t-32 7.5q-20 0 -38 -8.5
t-39 -28.5z" />
    <glyph glyph-name="Ograve" unicode="&#xd2;" horiz-adv-x="774" 
d="M387 -16q-72 0 -132.5 27t-104.5 74t-69 110.5t-25 137.5q0 73 25 137t69 111.5t104.5 74.5t132.5 27t132.5 -27t104.5 -74.5t69 -111.5t25 -137q0 -74 -25 -137.5t-69 -110.5t-104.5 -74t-132.5 -27zM387 29q63 0 115 23.5t88.5 65t56.5 97t20 118.5t-20 119t-56.5 97
t-88.5 65t-115 24t-115 -24t-88.5 -65t-56.5 -97t-20 -119t20 -118.5t56.5 -97t88.5 -65t115 -23.5zM299 866h61l75 -141h-44z" />
    <glyph glyph-name="Oacute" unicode="&#xd3;" horiz-adv-x="774" 
d="M387 -16q-72 0 -132.5 27t-104.5 74t-69 110.5t-25 137.5q0 73 25 137t69 111.5t104.5 74.5t132.5 27t132.5 -27t104.5 -74.5t69 -111.5t25 -137q0 -74 -25 -137.5t-69 -110.5t-104.5 -74t-132.5 -27zM387 29q63 0 115 23.5t88.5 65t56.5 97t20 118.5t-20 119t-56.5 97
t-88.5 65t-115 24t-115 -24t-88.5 -65t-56.5 -97t-20 -119t20 -118.5t56.5 -97t88.5 -65t115 -23.5zM433 866h64l-94 -141h-44z" />
    <glyph glyph-name="Ocircumflex" unicode="&#xd4;" horiz-adv-x="774" 
d="M387 -16q-72 0 -132.5 27t-104.5 74t-69 110.5t-25 137.5q0 73 25 137t69 111.5t104.5 74.5t132.5 27t132.5 -27t104.5 -74.5t69 -111.5t25 -137q0 -74 -25 -137.5t-69 -110.5t-104.5 -74t-132.5 -27zM387 29q63 0 115 23.5t88.5 65t56.5 97t20 118.5t-20 119t-56.5 97
t-88.5 65t-115 24t-115 -24t-88.5 -65t-56.5 -97t-20 -119t20 -118.5t56.5 -97t88.5 -65t115 -23.5zM358 866h53l113 -141h-52l-89 108l-89 -108h-53z" />
    <glyph glyph-name="Otilde" unicode="&#xd5;" horiz-adv-x="774" 
d="M387 -16q-72 0 -132.5 27t-104.5 74t-69 110.5t-25 137.5q0 73 25 137t69 111.5t104.5 74.5t132.5 27t132.5 -27t104.5 -74.5t69 -111.5t25 -137q0 -74 -25 -137.5t-69 -110.5t-104.5 -74t-132.5 -27zM387 29q63 0 115 23.5t88.5 65t56.5 97t20 118.5t-20 119t-56.5 97
t-88.5 65t-115 24t-115 -24t-88.5 -65t-56.5 -97t-20 -119t20 -118.5t56.5 -97t88.5 -65t115 -23.5zM221 789q20 22 46.5 36.5t55.5 14.5q24 0 41 -7.5t31.5 -16t28.5 -16t31 -7.5q20 0 36.5 8.5t37.5 28.5l28 -30q-20 -22 -46.5 -36t-55.5 -14q-24 0 -40.5 7.5t-31 16
t-28.5 16t-32 7.5q-20 0 -38 -8.5t-39 -28.5z" />
    <glyph glyph-name="Odieresis" unicode="&#xd6;" horiz-adv-x="774" 
d="M387 -16q-72 0 -132.5 27t-104.5 74t-69 110.5t-25 137.5q0 73 25 137t69 111.5t104.5 74.5t132.5 27t132.5 -27t104.5 -74.5t69 -111.5t25 -137q0 -74 -25 -137.5t-69 -110.5t-104.5 -74t-132.5 -27zM387 29q63 0 115 23.5t88.5 65t56.5 97t20 118.5t-20 119t-56.5 97
t-88.5 65t-115 24t-115 -24t-88.5 -65t-56.5 -97t-20 -119t20 -118.5t56.5 -97t88.5 -65t115 -23.5zM436 829h66v-69h-66v69zM270 829h66v-69h-66v69z" />
    <glyph glyph-name="multiply" unicode="&#xd7;" horiz-adv-x="545" 
d="M241 320l-135 135l32 32l135 -135l134 135l32 -32l-135 -134l135 -135l-32 -32l-134 135l-135 -135l-32 32z" />
    <glyph glyph-name="Oslash" unicode="&#xd8;" horiz-adv-x="774" 
d="M167 68q-52 48 -81 116t-29 149q0 73 25 137t69 111.5t104.5 74.5t132.5 27q50 0 94 -13.5t82 -37.5l59 84l36 -23l-61 -86q57 -48 89 -118.5t32 -155.5q0 -74 -25 -137.5t-69 -110.5t-104.5 -74t-132.5 -27q-54 0 -101 15t-86 42l-64 -90l-36 23zM227 79
q33 -24 73.5 -37t87.5 -13q63 0 115 23.5t88.5 65t56.5 97t20 118.5q0 72 -25.5 133t-71.5 103zM538 595q-32 20 -69.5 31.5t-80.5 11.5q-63 0 -115 -24t-88.5 -65t-56.5 -97t-20 -119q0 -68 22 -126t64 -100z" />
    <glyph glyph-name="Ugrave" unicode="&#xd9;" horiz-adv-x="672" 
d="M81 667h48v-376q0 -57 9 -105t32.5 -83t63.5 -54.5t102 -19.5t102 19.5t63.5 54.5t32.5 83t9 105v376h48v-401q0 -59 -12.5 -110.5t-42 -89.5t-78.5 -60t-122 -22t-122 22t-78.5 60t-42 89.5t-12.5 110.5v401zM255 866h61l75 -141h-44z" />
    <glyph glyph-name="Uacute" unicode="&#xda;" horiz-adv-x="672" 
d="M81 667h48v-376q0 -57 9 -105t32.5 -83t63.5 -54.5t102 -19.5t102 19.5t63.5 54.5t32.5 83t9 105v376h48v-401q0 -59 -12.5 -110.5t-42 -89.5t-78.5 -60t-122 -22t-122 22t-78.5 60t-42 89.5t-12.5 110.5v401zM361 866h64l-94 -141h-44z" />
    <glyph glyph-name="Ucircumflex" unicode="&#xdb;" horiz-adv-x="672" 
d="M81 667h48v-376q0 -57 9 -105t32.5 -83t63.5 -54.5t102 -19.5t102 19.5t63.5 54.5t32.5 83t9 105v376h48v-401q0 -59 -12.5 -110.5t-42 -89.5t-78.5 -60t-122 -22t-122 22t-78.5 60t-42 89.5t-12.5 110.5v401zM311 866h53l113 -141h-52l-89 108l-89 -108h-53z" />
    <glyph glyph-name="Udieresis" unicode="&#xdc;" horiz-adv-x="672" 
d="M81 667h48v-376q0 -57 9 -105t32.5 -83t63.5 -54.5t102 -19.5t102 19.5t63.5 54.5t32.5 83t9 105v376h48v-401q0 -59 -12.5 -110.5t-42 -89.5t-78.5 -60t-122 -22t-122 22t-78.5 60t-42 89.5t-12.5 110.5v401zM386 829h66v-69h-66v69zM220 829h66v-69h-66v69z" />
    <glyph glyph-name="Yacute" unicode="&#xdd;" horiz-adv-x="540" 
d="M246 306l-230 361h58l197 -314l197 314h56l-230 -361v-306h-48v306zM314 866h64l-94 -141h-44z" />
    <glyph glyph-name="Thorn" unicode="&#xde;" horiz-adv-x="578" 
d="M86 667h48v-132h157q65 0 109.5 -14.5t71.5 -40.5t39 -61t12 -76t-12 -76t-39 -61t-71.5 -40.5t-109.5 -14.5h-157v-151h-48v667zM305 196q84 0 125 37.5t41 109.5t-41 109.5t-125 37.5h-171v-294h171z" />
    <glyph glyph-name="germandbls" unicode="&#xdf;" horiz-adv-x="557" 
d="M69 478q0 58 14.5 97.5t39.5 63.5t59 34t73 10q36 0 64 -10t47.5 -26.5t30 -39t10.5 -47.5q0 -44 -20 -72t-44 -50.5t-44 -44.5t-20 -54q0 -27 17 -42t43 -25t55.5 -19t55.5 -24.5t43 -41.5t17 -70q0 -57 -40 -96t-118 -39q-49 0 -85.5 13t-64.5 32l25 37q27 -21 59 -31
t64 -10q55 0 82.5 25t27.5 67q0 37 -16.5 57t-42 32t-54.5 20t-54.5 20t-42 33t-16.5 59q0 27 9.5 47t23.5 37t30.5 31.5t30.5 29.5t23.5 32.5t9.5 39.5q0 34 -24.5 61t-82.5 27q-42 0 -69 -12.5t-42.5 -35t-22 -53.5t-6.5 -68v-472h-45v478z" />
    <glyph glyph-name="agrave" unicode="&#xe0;" horiz-adv-x="492" 
d="M380 235q-21 5 -52.5 8.5t-80.5 3.5q-51 0 -81 -12.5t-45.5 -31t-20 -40t-4.5 -38.5q0 -50 33.5 -73t85.5 -23q34 0 64 12t52.5 32t35.5 45.5t13 51.5v65zM384 0q-1 9 -1 20q-1 10 -1 24v33q-18 -26 -39.5 -43.5t-45 -27.5t-46 -14t-41.5 -4q-29 0 -58 6t-52 21.5
t-37.5 42t-14.5 67.5q0 33 11 62.5t35 51t62 34t92 12.5q42 0 75 -3t56 -7v26q0 38 -9 63t-27 40t-44 21t-60 6q-57 0 -90.5 -16.5t-51.5 -31.5l-24 31q19 18 61.5 38t103.5 20q89 0 137.5 -38t48.5 -126v-212v-37.5t1 -30.5q1 -16 2 -28h-43zM172 670h58l60 -128h-42z" />
    <glyph glyph-name="aacute" unicode="&#xe1;" horiz-adv-x="492" 
d="M380 235q-21 5 -52.5 8.5t-80.5 3.5q-51 0 -81 -12.5t-45.5 -31t-20 -40t-4.5 -38.5q0 -50 33.5 -73t85.5 -23q34 0 64 12t52.5 32t35.5 45.5t13 51.5v65zM384 0q-1 9 -1 20q-1 10 -1 24v33q-18 -26 -39.5 -43.5t-45 -27.5t-46 -14t-41.5 -4q-29 0 -58 6t-52 21.5
t-37.5 42t-14.5 67.5q0 33 11 62.5t35 51t62 34t92 12.5q42 0 75 -3t56 -7v26q0 38 -9 63t-27 40t-44 21t-60 6q-57 0 -90.5 -16.5t-51.5 -31.5l-24 31q19 18 61.5 38t103.5 20q89 0 137.5 -38t48.5 -126v-212v-37.5t1 -30.5q1 -16 2 -28h-43zM272 667h55l-75 -128h-42z" />
    <glyph glyph-name="acircumflex" unicode="&#xe2;" horiz-adv-x="492" 
d="M380 235q-21 5 -52.5 8.5t-80.5 3.5q-51 0 -81 -12.5t-45.5 -31t-20 -40t-4.5 -38.5q0 -50 33.5 -73t85.5 -23q34 0 64 12t52.5 32t35.5 45.5t13 51.5v65zM384 0q-1 9 -1 20q-1 10 -1 24v33q-18 -26 -39.5 -43.5t-45 -27.5t-46 -14t-41.5 -4q-29 0 -58 6t-52 21.5
t-37.5 42t-14.5 67.5q0 33 11 62.5t35 51t62 34t92 12.5q42 0 75 -3t56 -7v26q0 38 -9 63t-27 40t-44 21t-60 6q-57 0 -90.5 -16.5t-51.5 -31.5l-24 31q19 18 61.5 38t103.5 20q89 0 137.5 -38t48.5 -126v-212v-37.5t1 -30.5q1 -16 2 -28h-43zM222 667h44l92 -128h-48
l-66 94l-66 -94h-48z" />
    <glyph glyph-name="atilde" unicode="&#xe3;" horiz-adv-x="492" 
d="M380 235q-21 5 -52.5 8.5t-80.5 3.5q-51 0 -81 -12.5t-45.5 -31t-20 -40t-4.5 -38.5q0 -50 33.5 -73t85.5 -23q34 0 64 12t52.5 32t35.5 45.5t13 51.5v65zM384 0q-1 9 -1 20q-1 10 -1 24v33q-18 -26 -39.5 -43.5t-45 -27.5t-46 -14t-41.5 -4q-29 0 -58 6t-52 21.5
t-37.5 42t-14.5 67.5q0 33 11 62.5t35 51t62 34t92 12.5q42 0 75 -3t56 -7v26q0 38 -9 63t-27 40t-44 21t-60 6q-57 0 -90.5 -16.5t-51.5 -31.5l-24 31q19 18 61.5 38t103.5 20q89 0 137.5 -38t48.5 -126v-212v-37.5t1 -30.5q1 -16 2 -28h-43zM93 592q19 22 44.5 35.5
t52.5 13.5q23 0 39.5 -7.5t30 -16t26.5 -16t30 -7.5q18 0 34 9t36 29l23 -30q-19 -22 -44.5 -35t-52.5 -13q-23 0 -39 7.5t-29.5 16t-27 16t-30.5 7.5q-18 0 -34 -7t-36 -27z" />
    <glyph glyph-name="adieresis" unicode="&#xe4;" horiz-adv-x="492" 
d="M380 235q-21 5 -52.5 8.5t-80.5 3.5q-51 0 -81 -12.5t-45.5 -31t-20 -40t-4.5 -38.5q0 -50 33.5 -73t85.5 -23q34 0 64 12t52.5 32t35.5 45.5t13 51.5v65zM384 0q-1 9 -1 20q-1 10 -1 24v33q-18 -26 -39.5 -43.5t-45 -27.5t-46 -14t-41.5 -4q-29 0 -58 6t-52 21.5
t-37.5 42t-14.5 67.5q0 33 11 62.5t35 51t62 34t92 12.5q42 0 75 -3t56 -7v26q0 38 -9 63t-27 40t-44 21t-60 6q-57 0 -90.5 -16.5t-51.5 -31.5l-24 31q19 18 61.5 38t103.5 20q89 0 137.5 -38t48.5 -126v-212v-37.5t1 -30.5q1 -16 2 -28h-43zM293 628h60v-63h-60v63z
M145 628h60v-63h-60v63z" />
    <glyph glyph-name="aring" unicode="&#xe5;" horiz-adv-x="492" 
d="M380 235q-21 5 -52.5 8.5t-80.5 3.5q-51 0 -81 -12.5t-45.5 -31t-20 -40t-4.5 -38.5q0 -50 33.5 -73t85.5 -23q34 0 64 12t52.5 32t35.5 45.5t13 51.5v65zM384 0q-1 9 -1 20q-1 10 -1 24v33q-18 -26 -39.5 -43.5t-45 -27.5t-46 -14t-41.5 -4q-29 0 -58 6t-52 21.5
t-37.5 42t-14.5 67.5q0 33 11 62.5t35 51t62 34t92 12.5q42 0 75 -3t56 -7v26q0 38 -9 63t-27 40t-44 21t-60 6q-57 0 -90.5 -16.5t-51.5 -31.5l-24 31q19 18 61.5 38t103.5 20q89 0 137.5 -38t48.5 -126v-212v-37.5t1 -30.5q1 -16 2 -28h-43zM148 636q0 43 28 70t69 27
q42 0 70 -27t28 -69q0 -43 -28 -70.5t-69 -27.5q-42 0 -70 27.5t-28 69.5zM246 573q25 0 43 18t18 46q0 27 -18 44.5t-44 17.5t-43.5 -17.5t-17.5 -45.5q0 -27 18 -45t44 -18z" />
    <glyph glyph-name="ae" unicode="&#xe6;" horiz-adv-x="863" 
d="M73 414q19 18 61.5 38t103.5 20q70 0 115 -23.5t62 -76.5q29 45 75.5 72.5t106.5 27.5q47 0 87.5 -16t70 -47.5t46 -78.5t16.5 -109h-392q1 -39 15 -73.5t38 -61t57.5 -41.5t74.5 -15q21 0 43.5 4.5t43.5 13.5t38.5 21t29.5 27l32 -27q-30 -38 -81.5 -59.5t-105.5 -21.5
q-69 0 -121.5 30t-81.5 84q-22 -33 -45 -55t-48 -35t-51.5 -18.5t-55.5 -5.5q-26 0 -54.5 6t-51.5 21t-38 41t-15 67q0 33 11.5 60t36 46.5t62 30.5t90.5 11q38 0 70 -3t61 -5v38q0 38 -9 63t-27 40t-44 21t-60 6q-57 0 -90.5 -16.5t-51.5 -31.5zM380 223q-33 5 -65.5 7.5
t-67.5 2.5q-49 0 -78.5 -11t-45.5 -27.5t-21.5 -36t-5.5 -35.5q0 -50 33.5 -72t84.5 -22q34 0 64.5 12t53 32t35.5 45.5t13 51.5v53zM768 260q-9 85 -54 127.5t-117 42.5q-37 0 -67.5 -13t-52.5 -36t-35.5 -54t-15.5 -67h342z" />
    <glyph glyph-name="ccedilla" unicode="&#xe7;" horiz-adv-x="495" 
d="M459 68q-29 -35 -75.5 -57.5t-106.5 -22.5q-50 0 -92.5 18.5t-73.5 51t-48 77t-17 95.5t17.5 95.5t48.5 77t73.5 51t91.5 18.5q61 0 103.5 -21.5t72.5 -59.5l-34 -26q-23 30 -57.5 47.5t-84.5 17.5q-40 0 -73.5 -16t-58 -43t-38 -63.5t-13.5 -77.5t14 -77.5t38.5 -63.5
t58 -43t72.5 -16q50 0 88.5 18t61.5 48zM184 -165q14 -6 33 -11.5t43 -5.5q36 0 55.5 12.5t19.5 35.5q0 20 -15 31.5t-48 11.5q-20 0 -37.5 -3.5t-40.5 -11.5l6 35q12 4 29.5 9.5t54.5 5.5q24 0 42 -7t29 -17.5t16.5 -24.5t5.5 -27q0 -42 -32.5 -63.5t-81.5 -21.5
q-37 0 -56.5 6.5t-30.5 11.5z" />
    <glyph glyph-name="egrave" unicode="&#xe8;" horiz-adv-x="534" 
d="M468 69q-30 -38 -81.5 -59.5t-105.5 -21.5q-51 0 -94.5 17.5t-74.5 49.5t-48.5 76.5t-17.5 98.5q0 50 16.5 94t45.5 77t70 52t90 19q47 0 87.5 -16.5t70 -48.5t46 -79.5t16.5 -109.5h-392q1 -39 15 -73.5t38 -60t57.5 -40t74.5 -14.5q21 0 43.5 4.5t43.5 13.5t38.5 21
t29.5 27zM439 257q-9 85 -54 129t-117 44q-37 0 -67.5 -13.5t-52.5 -37t-35.5 -55t-15.5 -67.5h342zM195 670h58l60 -128h-42z" />
    <glyph glyph-name="eacute" unicode="&#xe9;" horiz-adv-x="534" 
d="M468 69q-30 -38 -81.5 -59.5t-105.5 -21.5q-51 0 -94.5 17.5t-74.5 49.5t-48.5 76.5t-17.5 98.5q0 50 16.5 94t45.5 77t70 52t90 19q47 0 87.5 -16.5t70 -48.5t46 -79.5t16.5 -109.5h-392q1 -39 15 -73.5t38 -60t57.5 -40t74.5 -14.5q21 0 43.5 4.5t43.5 13.5t38.5 21
t29.5 27zM439 257q-9 85 -54 129t-117 44q-37 0 -67.5 -13.5t-52.5 -37t-35.5 -55t-15.5 -67.5h342zM302 667h55l-75 -128h-42z" />
    <glyph glyph-name="ecircumflex" unicode="&#xea;" horiz-adv-x="534" 
d="M468 69q-30 -38 -81.5 -59.5t-105.5 -21.5q-51 0 -94.5 17.5t-74.5 49.5t-48.5 76.5t-17.5 98.5q0 50 16.5 94t45.5 77t70 52t90 19q47 0 87.5 -16.5t70 -48.5t46 -79.5t16.5 -109.5h-392q1 -39 15 -73.5t38 -60t57.5 -40t74.5 -14.5q21 0 43.5 4.5t43.5 13.5t38.5 21
t29.5 27zM439 257q-9 85 -54 129t-117 44q-37 0 -67.5 -13.5t-52.5 -37t-35.5 -55t-15.5 -67.5h342zM246 667h44l92 -128h-48l-66 94l-66 -94h-48z" />
    <glyph glyph-name="edieresis" unicode="&#xeb;" horiz-adv-x="534" 
d="M468 69q-30 -38 -81.5 -59.5t-105.5 -21.5q-51 0 -94.5 17.5t-74.5 49.5t-48.5 76.5t-17.5 98.5q0 50 16.5 94t45.5 77t70 52t90 19q47 0 87.5 -16.5t70 -48.5t46 -79.5t16.5 -109.5h-392q1 -39 15 -73.5t38 -60t57.5 -40t74.5 -14.5q21 0 43.5 4.5t43.5 13.5t38.5 21
t29.5 27zM439 257q-9 85 -54 129t-117 44q-37 0 -67.5 -13.5t-52.5 -37t-35.5 -55t-15.5 -67.5h342zM310 628h60v-63h-60v63zM162 628h60v-63h-60v63z" />
    <glyph glyph-name="igrave" unicode="&#xec;" horiz-adv-x="187" 
d="M71 460h45v-460h-45v460zM4 670h58l60 -128h-42z" />
    <glyph glyph-name="iacute" unicode="&#xed;" horiz-adv-x="187" 
d="M71 460h45v-460h-45v460zM127 667h55l-75 -128h-42z" />
    <glyph glyph-name="icircumflex" unicode="&#xee;" horiz-adv-x="187" 
d="M71 460h45v-460h-45v460zM72 667h44l92 -128h-48l-66 94l-66 -94h-48z" />
    <glyph glyph-name="idieresis" unicode="&#xef;" horiz-adv-x="187" 
d="M71 460h45v-460h-45v460zM138 628h60v-63h-60v63zM-10 628h60v-63h-60v63z" />
    <glyph glyph-name="eth" unicode="&#xf0;" horiz-adv-x="563" 
d="M257 615q-54 20 -107 23l5 41q35 -2 68 -10t62 -20l57 72l30 -23l-52 -65q47 -26 84 -63.5t62 -84.5t38 -101t13 -113q0 -74 -19.5 -127.5t-52.5 -89t-77 -52.5t-93 -17q-46 0 -87.5 15t-73 44.5t-50 72.5t-18.5 100q0 46 17 87.5t48.5 73t75 50t97.5 18.5q60 0 100 -16
t68 -34q-21 74 -63.5 123.5t-96.5 78.5l-62 -78l-30 23zM464 341q-11 9 -27 19.5t-38 20t-50.5 16t-64.5 6.5q-40 0 -74.5 -13.5t-60 -38.5t-40 -59.5t-14.5 -76.5t14 -76.5t38.5 -58.5t57 -37.5t69.5 -13.5q36 0 71 13.5t62.5 42.5t44.5 74.5t17 109.5q0 19 -1.5 37
t-3.5 35z" />
    <glyph glyph-name="ntilde" unicode="&#xf1;" horiz-adv-x="534" 
d="M71 363v32.5v24t-0.5 20t-1.5 20.5h42q1 -11 1.5 -20t1 -19.5t0.5 -24v-32.5q8 15 22.5 34t36 35.5t51.5 27.5t69 11q49 0 82.5 -14t54.5 -40.5t30 -64t9 -83.5v-270h-45v255q0 51 -9 85t-26.5 54t-43 28t-58.5 8q-44 0 -76 -18t-53 -46t-31.5 -62t-10.5 -67v-237h-45
v363zM109 592q19 22 44.5 35.5t52.5 13.5q23 0 39.5 -7.5t30 -16t26.5 -16t30 -7.5q18 0 34 9t36 29l23 -30q-19 -22 -44.5 -35t-52.5 -13q-23 0 -39 7.5t-29.5 16t-27 16t-30.5 7.5q-18 0 -34 -7t-36 -27z" />
    <glyph glyph-name="ograve" unicode="&#xf2;" horiz-adv-x="566" 
d="M283 -12q-49 0 -92 19t-75.5 52t-51 77t-18.5 94t18.5 94t51 77t75.5 52t92 19t92 -19t75.5 -52t51 -77t18.5 -94t-18.5 -94t-51 -77t-75.5 -52t-92 -19zM283 29q40 0 75 16t60.5 43t40 63.5t14.5 78.5q0 40 -15 76.5t-40.5 64.5t-60.5 44t-74 16q-41 0 -75.5 -16
t-60 -43t-40 -63.5t-14.5 -78.5q0 -41 15 -77t40.5 -64t60.5 -44t74 -16zM204 670h58l60 -128h-42z" />
    <glyph glyph-name="oacute" unicode="&#xf3;" horiz-adv-x="566" 
d="M283 -12q-49 0 -92 19t-75.5 52t-51 77t-18.5 94t18.5 94t51 77t75.5 52t92 19t92 -19t75.5 -52t51 -77t18.5 -94t-18.5 -94t-51 -77t-75.5 -52t-92 -19zM283 29q40 0 75 16t60.5 43t40 63.5t14.5 78.5q0 40 -15 76.5t-40.5 64.5t-60.5 44t-74 16q-41 0 -75.5 -16
t-60 -43t-40 -63.5t-14.5 -78.5q0 -41 15 -77t40.5 -64t60.5 -44t74 -16zM318 667h55l-75 -128h-42z" />
    <glyph glyph-name="ocircumflex" unicode="&#xf4;" horiz-adv-x="566" 
d="M283 -12q-49 0 -92 19t-75.5 52t-51 77t-18.5 94t18.5 94t51 77t75.5 52t92 19t92 -19t75.5 -52t51 -77t18.5 -94t-18.5 -94t-51 -77t-75.5 -52t-92 -19zM283 29q40 0 75 16t60.5 43t40 63.5t14.5 78.5q0 40 -15 76.5t-40.5 64.5t-60.5 44t-74 16q-41 0 -75.5 -16
t-60 -43t-40 -63.5t-14.5 -78.5q0 -41 15 -77t40.5 -64t60.5 -44t74 -16zM259 667h44l92 -128h-48l-66 94l-66 -94h-48z" />
    <glyph glyph-name="otilde" unicode="&#xf5;" horiz-adv-x="566" 
d="M283 -12q-49 0 -92 19t-75.5 52t-51 77t-18.5 94t18.5 94t51 77t75.5 52t92 19t92 -19t75.5 -52t51 -77t18.5 -94t-18.5 -94t-51 -77t-75.5 -52t-92 -19zM283 29q40 0 75 16t60.5 43t40 63.5t14.5 78.5q0 40 -15 76.5t-40.5 64.5t-60.5 44t-74 16q-41 0 -75.5 -16
t-60 -43t-40 -63.5t-14.5 -78.5q0 -41 15 -77t40.5 -64t60.5 -44t74 -16zM126 592q19 22 44.5 35.5t52.5 13.5q23 0 39.5 -7.5t30 -16t26.5 -16t30 -7.5q18 0 34 9t36 29l23 -30q-19 -22 -44.5 -35t-52.5 -13q-23 0 -39 7.5t-29.5 16t-27 16t-30.5 7.5q-18 0 -34 -7t-36 -27
z" />
    <glyph glyph-name="odieresis" unicode="&#xf6;" horiz-adv-x="566" 
d="M283 -12q-49 0 -92 19t-75.5 52t-51 77t-18.5 94t18.5 94t51 77t75.5 52t92 19t92 -19t75.5 -52t51 -77t18.5 -94t-18.5 -94t-51 -77t-75.5 -52t-92 -19zM283 29q40 0 75 16t60.5 43t40 63.5t14.5 78.5q0 40 -15 76.5t-40.5 64.5t-60.5 44t-74 16q-41 0 -75.5 -16
t-60 -43t-40 -63.5t-14.5 -78.5q0 -41 15 -77t40.5 -64t60.5 -44t74 -16zM326 628h60v-63h-60v63zM178 628h60v-63h-60v63z" />
    <glyph glyph-name="divide" unicode="&#xf7;" horiz-adv-x="545" 
d="M242 500h61v-61h-61v61zM242 200h61v-61h-61v61zM72 342h401v-45h-401v45z" />
    <glyph glyph-name="oslash" unicode="&#xf8;" horiz-adv-x="566" 
d="M129 45q-38 34 -60.5 81.5t-22.5 103.5q0 50 18.5 94t51 77t75.5 52t92 19q33 0 64 -9t58 -26l50 72l33 -21l-52 -73q39 -34 61.5 -81.5t22.5 -103.5q0 -50 -18.5 -94t-51 -77t-75.5 -52t-92 -19q-68 0 -122 34l-49 -69l-33 21zM186 58q21 -14 45.5 -21.5t51.5 -7.5
q40 0 75 16t60.5 43t40 63.5t14.5 78.5q0 43 -17 81.5t-46 66.5zM380 402q-22 14 -46.5 21.5t-50.5 7.5q-41 0 -75.5 -16t-60 -43t-40 -63.5t-14.5 -78.5q0 -43 16.5 -81.5t45.5 -66.5z" />
    <glyph glyph-name="ugrave" unicode="&#xf9;" horiz-adv-x="528" 
d="M65 460h45v-255q0 -51 8.5 -85t25.5 -54t42 -28t58 -8q43 0 75 18t52.5 46t30.5 62t10 67v237h45v-363v-33v-23.5t0.5 -20t1.5 -20.5h-42q-1 11 -1.5 20t-1 19.5t-0.5 23.5v33q-8 -15 -22 -34t-35 -35.5t-50.5 -27.5t-68.5 -11q-49 0 -82 14t-53.5 40.5t-29 63.5t-8.5 84
v270zM182 670h58l60 -128h-42z" />
    <glyph glyph-name="uacute" unicode="&#xfa;" horiz-adv-x="528" 
d="M65 460h45v-255q0 -51 8.5 -85t25.5 -54t42 -28t58 -8q43 0 75 18t52.5 46t30.5 62t10 67v237h45v-363v-33v-23.5t0.5 -20t1.5 -20.5h-42q-1 11 -1.5 20t-1 19.5t-0.5 23.5v33q-8 -15 -22 -34t-35 -35.5t-50.5 -27.5t-68.5 -11q-49 0 -82 14t-53.5 40.5t-29 63.5t-8.5 84
v270zM293 667h55l-75 -128h-42z" />
    <glyph glyph-name="ucircumflex" unicode="&#xfb;" horiz-adv-x="528" 
d="M65 460h45v-255q0 -51 8.5 -85t25.5 -54t42 -28t58 -8q43 0 75 18t52.5 46t30.5 62t10 67v237h45v-363v-33v-23.5t0.5 -20t1.5 -20.5h-42q-1 11 -1.5 20t-1 19.5t-0.5 23.5v33q-8 -15 -22 -34t-35 -35.5t-50.5 -27.5t-68.5 -11q-49 0 -82 14t-53.5 40.5t-29 63.5t-8.5 84
v270zM240 667h44l92 -128h-48l-66 94l-66 -94h-48z" />
    <glyph glyph-name="udieresis" unicode="&#xfc;" horiz-adv-x="528" 
d="M65 460h45v-255q0 -51 8.5 -85t25.5 -54t42 -28t58 -8q43 0 75 18t52.5 46t30.5 62t10 67v237h45v-363v-33v-23.5t0.5 -20t1.5 -20.5h-42q-1 11 -1.5 20t-1 19.5t-0.5 23.5v33q-8 -15 -22 -34t-35 -35.5t-50.5 -27.5t-68.5 -11q-49 0 -82 14t-53.5 40.5t-29 63.5t-8.5 84
v270zM303 628h60v-63h-60v63zM155 628h60v-63h-60v63z" />
    <glyph glyph-name="yacute" unicode="&#xfd;" horiz-adv-x="462" 
d="M45 -149q9 -9 24.5 -16t35.5 -7q30 0 46.5 21t31.5 60l38 97l-205 454h51l177 -399l153 399h49l-226 -569q-6 -15 -15 -33t-22.5 -33.5t-32.5 -26t-45 -10.5q-29 0 -48.5 8.5t-34.5 22.5zM259 667h55l-75 -128h-42z" />
    <glyph glyph-name="thorn" unicode="&#xfe;" horiz-adv-x="538" 
d="M70 666h45v-291q5 9 16 25t31.5 32t50.5 28t72 12q53 0 92 -19t64.5 -52t38 -77.5t12.5 -96.5q0 -54 -17.5 -98t-49 -75.5t-74 -48.5t-92.5 -17q-49 0 -84 13.5t-60 27.5v-229h-44zM115 80q7 -5 19 -13.5t30 -16.5t41.5 -14t53.5 -6q38 0 72 13t59 38t39.5 61.5
t14.5 84.5q0 40 -9 77t-28.5 65t-50.5 44.5t-76 16.5q-30 0 -54.5 -9t-43.5 -24.5t-33 -36t-22 -42.5q-7 -18 -9.5 -43t-2.5 -51v-144z" />
    <glyph glyph-name="ydieresis" unicode="&#xff;" horiz-adv-x="462" 
d="M45 -149q9 -9 24.5 -16t35.5 -7q30 0 46.5 21t31.5 60l38 97l-205 454h51l177 -399l153 399h49l-226 -569q-6 -15 -15 -33t-22.5 -33.5t-32.5 -26t-45 -10.5q-29 0 -48.5 8.5t-34.5 22.5zM276 628h60v-63h-60v63zM128 628h60v-63h-60v63z" />
    <glyph glyph-name="Amacron" unicode="&#x100;" horiz-adv-x="634" 
d="M293 667h48l273 -667h-55l-87 215h-314l-86 -215h-52zM454 260l-139 346l-139 -346h278zM159 814h316v-42h-316v42z" />
    <glyph glyph-name="amacron" unicode="&#x101;" horiz-adv-x="492" 
d="M380 235q-21 5 -52.5 8.5t-80.5 3.5q-51 0 -81 -12.5t-45.5 -31t-20 -40t-4.5 -38.5q0 -50 33.5 -73t85.5 -23q34 0 64 12t52.5 32t35.5 45.5t13 51.5v65zM384 0q-1 9 -1 20q-1 10 -1 24v33q-18 -26 -39.5 -43.5t-45 -27.5t-46 -14t-41.5 -4q-29 0 -58 6t-52 21.5
t-37.5 42t-14.5 67.5q0 33 11 62.5t35 51t62 34t92 12.5q42 0 75 -3t56 -7v26q0 38 -9 63t-27 40t-44 21t-60 6q-57 0 -90.5 -16.5t-51.5 -31.5l-24 31q19 18 61.5 38t103.5 20q89 0 137.5 -38t48.5 -126v-212v-37.5t1 -30.5q1 -16 2 -28h-43zM130 619h233v-42h-233v42z" />
    <glyph glyph-name="Abreve" unicode="&#x102;" horiz-adv-x="634" 
d="M293 667h48l273 -667h-55l-87 215h-314l-86 -215h-52zM454 260l-139 346l-139 -346h278zM232 841q2 -29 24 -48t62 -19t62.5 19t24.5 48h43q-1 -20 -9 -39t-24.5 -34t-40.5 -24t-56 -9t-56.5 9t-40.5 24t-24.5 34t-9.5 39h45z" />
    <glyph glyph-name="abreve" unicode="&#x103;" horiz-adv-x="492" 
d="M380 235q-21 5 -52.5 8.5t-80.5 3.5q-51 0 -81 -12.5t-45.5 -31t-20 -40t-4.5 -38.5q0 -50 33.5 -73t85.5 -23q34 0 64 12t52.5 32t35.5 45.5t13 51.5v65zM384 0q-1 9 -1 20q-1 10 -1 24v33q-18 -26 -39.5 -43.5t-45 -27.5t-46 -14t-41.5 -4q-29 0 -58 6t-52 21.5
t-37.5 42t-14.5 67.5q0 33 11 62.5t35 51t62 34t92 12.5q42 0 75 -3t56 -7v26q0 38 -9 63t-27 40t-44 21t-60 6q-57 0 -90.5 -16.5t-51.5 -31.5l-24 31q19 18 61.5 38t103.5 20q89 0 137.5 -38t48.5 -126v-212v-37.5t1 -30.5q1 -16 2 -28h-43zM175 648q0 -29 21 -49t56 -20
t56.5 20t21.5 49h37q0 -20 -7.5 -39t-21.5 -34t-36 -24t-50 -9q-29 0 -50.5 9t-35.5 24t-21.5 34t-7.5 39h38z" />
    <glyph glyph-name="Aogonek" unicode="&#x104;" horiz-adv-x="634" 
d="M669 -172q-23 -17 -48.5 -24.5t-49.5 -7.5q-39 0 -63 19t-24 55q0 18 7 35.5t17.5 34t24 31.5t26.5 29l-87 215h-314l-86 -215h-52l273 667h48l273 -667q-34 -29 -56 -61t-22 -59q0 -20 12.5 -30.5t33.5 -10.5q19 0 34.5 7t32.5 18zM454 260l-139 346l-139 -346h278z" />
    <glyph glyph-name="aogonek" unicode="&#x105;" horiz-adv-x="492" 
d="M489 -173q-20 -15 -44 -22.5t-47 -7.5q-35 0 -60.5 19.5t-25.5 55.5q0 35 22 71t50 62q0 3 -1 19t-1 53q-18 -26 -40 -43.5t-45 -27.5t-46.5 -14t-43.5 -4q-28 0 -56 6t-51 21.5t-37.5 42t-14.5 67.5q0 33 11 62.5t35 51t62 34t92 12.5q42 0 75 -3t56 -7v26q0 38 -9 63
t-27 40t-44 21t-60 6q-57 0 -90.5 -16.5t-51.5 -31.5l-24 31q19 18 61.5 38t103.5 20q89 0 137.5 -38t48.5 -126v-212q0 -39 1 -64.5t2 -31.5q-31 -29 -50.5 -60.5t-19.5 -57.5q0 -22 13.5 -33t34.5 -11q19 0 35.5 6t31.5 17zM380 235q-21 5 -52.5 8.5t-80.5 3.5
q-51 0 -81 -12.5t-45.5 -31t-20 -40t-4.5 -38.5q0 -50 33 -73t83 -23q35 0 66 12t53.5 32t35.5 45.5t13 51.5v65z" />
    <glyph glyph-name="Cacute" unicode="&#x106;" horiz-adv-x="672" 
d="M621 111q-6 -10 -22.5 -31t-46 -42.5t-72.5 -37.5t-102 -16q-72 0 -131.5 26.5t-102 73.5t-65.5 111t-23 139q0 73 23 136.5t65.5 111t102 74.5t131.5 27q59 0 102 -16t72.5 -37.5t46 -42.5t22.5 -31l-36 -25q-6 8 -19.5 25.5t-38 35.5t-60.5 32t-87 14
q-64 0 -114.5 -23.5t-85.5 -64.5t-53.5 -96.5t-18.5 -119.5t19 -119.5t54 -97t86 -65t116 -23.5q47 0 82.5 14t60 32t39 35.5t20.5 25.5zM407 866h64l-94 -141h-44z" />
    <glyph glyph-name="cacute" unicode="&#x107;" horiz-adv-x="495" 
d="M459 68q-29 -35 -75.5 -57.5t-106.5 -22.5q-50 0 -92.5 18.5t-73.5 51t-48 77t-17 95.5t17.5 95.5t48.5 77t73.5 51t91.5 18.5q61 0 103.5 -21.5t72.5 -59.5l-34 -26q-23 30 -57.5 47.5t-84.5 17.5q-40 0 -73.5 -16t-58 -43t-38 -63.5t-13.5 -77.5t14 -77.5t38.5 -63.5
t58 -43t72.5 -16q50 0 88.5 18t61.5 48zM310 667h55l-75 -128h-42z" />
    <glyph glyph-name="Ccircumflex" unicode="&#x108;" horiz-adv-x="672" 
d="M621 111q-6 -10 -22.5 -31t-46 -42.5t-72.5 -37.5t-102 -16q-72 0 -131.5 26.5t-102 73.5t-65.5 111t-23 139q0 73 23 136.5t65.5 111t102 74.5t131.5 27q59 0 102 -16t72.5 -37.5t46 -42.5t22.5 -31l-36 -25q-6 8 -19.5 25.5t-38 35.5t-60.5 32t-87 14
q-64 0 -114.5 -23.5t-85.5 -64.5t-53.5 -96.5t-18.5 -119.5t19 -119.5t54 -97t86 -65t116 -23.5q47 0 82.5 14t60 32t39 35.5t20.5 25.5zM349 866h53l113 -141h-52l-89 108l-89 -108h-53z" />
    <glyph glyph-name="ccircumflex" unicode="&#x109;" horiz-adv-x="495" 
d="M459 68q-29 -35 -75.5 -57.5t-106.5 -22.5q-50 0 -92.5 18.5t-73.5 51t-48 77t-17 95.5t17.5 95.5t48.5 77t73.5 51t91.5 18.5q61 0 103.5 -21.5t72.5 -59.5l-34 -26q-23 30 -57.5 47.5t-84.5 17.5q-40 0 -73.5 -16t-58 -43t-38 -63.5t-13.5 -77.5t14 -77.5t38.5 -63.5
t58 -43t72.5 -16q50 0 88.5 18t61.5 48zM252 667h44l92 -128h-48l-66 94l-66 -94h-48z" />
    <glyph glyph-name="Cdotaccent" unicode="&#x10a;" horiz-adv-x="672" 
d="M621 111q-6 -10 -22.5 -31t-46 -42.5t-72.5 -37.5t-102 -16q-72 0 -131.5 26.5t-102 73.5t-65.5 111t-23 139q0 73 23 136.5t65.5 111t102 74.5t131.5 27q59 0 102 -16t72.5 -37.5t46 -42.5t22.5 -31l-36 -25q-6 8 -19.5 25.5t-38 35.5t-60.5 32t-87 14
q-64 0 -114.5 -23.5t-85.5 -64.5t-53.5 -96.5t-18.5 -119.5t19 -119.5t54 -97t86 -65t116 -23.5q47 0 82.5 14t60 32t39 35.5t20.5 25.5zM336 831h72v-71h-72v71z" />
    <glyph glyph-name="cdotaccent" unicode="&#x10b;" horiz-adv-x="495" 
d="M459 68q-29 -35 -75.5 -57.5t-106.5 -22.5q-50 0 -92.5 18.5t-73.5 51t-48 77t-17 95.5t17.5 95.5t48.5 77t73.5 51t91.5 18.5q61 0 103.5 -21.5t72.5 -59.5l-34 -26q-23 30 -57.5 47.5t-84.5 17.5q-40 0 -73.5 -16t-58 -43t-38 -63.5t-13.5 -77.5t14 -77.5t38.5 -63.5
t58 -43t72.5 -16q50 0 88.5 18t61.5 48zM240 630h63v-66h-63v66z" />
    <glyph glyph-name="Ccaron" unicode="&#x10c;" horiz-adv-x="672" 
d="M621 111q-6 -10 -22.5 -31t-46 -42.5t-72.5 -37.5t-102 -16q-72 0 -131.5 26.5t-102 73.5t-65.5 111t-23 139q0 73 23 136.5t65.5 111t102 74.5t131.5 27q59 0 102 -16t72.5 -37.5t46 -42.5t22.5 -31l-36 -25q-6 8 -19.5 25.5t-38 35.5t-60.5 32t-87 14
q-64 0 -114.5 -23.5t-85.5 -64.5t-53.5 -96.5t-18.5 -119.5t19 -119.5t54 -97t86 -65t116 -23.5q47 0 82.5 14t60 32t39 35.5t20.5 25.5zM234 866h52l89 -108l89 108h53l-117 -141h-53z" />
    <glyph glyph-name="ccaron" unicode="&#x10d;" horiz-adv-x="495" 
d="M459 68q-29 -35 -75.5 -57.5t-106.5 -22.5q-50 0 -92.5 18.5t-73.5 51t-48 77t-17 95.5t17.5 95.5t48.5 77t73.5 51t91.5 18.5q61 0 103.5 -21.5t72.5 -59.5l-34 -26q-23 30 -57.5 47.5t-84.5 17.5q-40 0 -73.5 -16t-58 -43t-38 -63.5t-13.5 -77.5t14 -77.5t38.5 -63.5
t58 -43t72.5 -16q50 0 88.5 18t61.5 48zM159 667h48l66 -94l66 94h48l-92 -128h-44z" />
    <glyph glyph-name="Dcaron" unicode="&#x10e;" horiz-adv-x="697" 
d="M86 667h182q82 0 150.5 -19.5t118 -60t77 -103.5t27.5 -150t-27.5 -150t-77 -104t-118 -60.5t-150.5 -19.5h-182v667zM278 45q71 0 128.5 17.5t98.5 53.5t63 90.5t22 127.5t-22.5 127t-64 90t-100.5 53.5t-133 17.5h-136v-577h144zM155 866h52l89 -108l89 108h53
l-117 -141h-53z" />
    <glyph glyph-name="dcaron" unicode="&#x10f;" horiz-adv-x="594" 
d="M425 0q-1 13 -1 26q-1 11 -1 25.5v28.5q-15 -26 -40 -46q-21 -17 -53 -31.5t-77 -14.5q-53 0 -92 18.5t-64.5 50.5t-38 75.5t-12.5 93.5q0 56 17.5 101.5t49 77.5t75 49.5t95.5 17.5q29 0 53.5 -7t44.5 -15q22 -10 42 -22v239h44v-571v-37.5t1 -30.5q0 -16 1 -28h-44z
M423 379q-15 14 -35 25q-17 10 -44 18t-62 8q-36 0 -69.5 -11.5t-60 -36.5t-42.5 -64t-16 -93q0 -39 9 -74t28.5 -62t50.5 -43t76 -16q42 0 73 15.5t51.5 38.5t30.5 48.5t10 45.5v201zM547 667h47l-11 -178h-36v178z" />
    <glyph glyph-name="Dcroat" unicode="&#x110;" horiz-adv-x="711" 
d="M100 323h-80v42h80v302h182q82 0 150.5 -19.5t118 -60t77 -103.5t27.5 -150t-27.5 -150t-77 -104t-118 -60.5t-150.5 -19.5h-182v323zM292 45q71 0 128.5 17.5t98.5 53.5t63 90.5t22 127.5t-22.5 127t-64 90t-100.5 53.5t-133 17.5h-136v-257h191v-42h-191v-278h144z" />
    <glyph glyph-name="dcroat" unicode="&#x111;" horiz-adv-x="547" 
d="M425 0q-1 12 -1 24q-1 11 -1 24.5v27.5q-15 -25 -40 -44q-21 -17 -53 -30.5t-77 -13.5q-53 0 -92 18.5t-64.5 50.5t-38 75.5t-12.5 93.5q0 56 17.5 101.5t49 77.5t75 49.5t95.5 17.5q29 0 53.5 -7t44.5 -15q22 -10 42 -22v112h-179v40h179v87h44v-87h80v-40h-80v-444
v-37.5t1 -30.5q0 -16 1 -28h-44zM423 379q-15 14 -35 25q-17 10 -44 18t-62 8q-36 0 -69.5 -11.5t-60 -36.5t-42.5 -64t-16 -93q0 -39 9 -74t28.5 -62t50.5 -43t76 -16t76.5 18t51 44t28.5 54.5t9 49.5v183z" />
    <glyph glyph-name="Emacron" unicode="&#x112;" horiz-adv-x="557" 
d="M86 667h400v-45h-352v-252h275v-45h-275v-280h378v-45h-426v667zM130 814h316v-42h-316v42z" />
    <glyph glyph-name="emacron" unicode="&#x113;" horiz-adv-x="534" 
d="M468 69q-30 -38 -81.5 -59.5t-105.5 -21.5q-51 0 -94.5 17.5t-74.5 49.5t-48.5 76.5t-17.5 98.5q0 50 16.5 94t45.5 77t70 52t90 19q47 0 87.5 -16.5t70 -48.5t46 -79.5t16.5 -109.5h-392q1 -39 15 -73.5t38 -60t57.5 -40t74.5 -14.5q21 0 43.5 4.5t43.5 13.5t38.5 21
t29.5 27zM439 257q-9 85 -54 129t-117 44q-37 0 -67.5 -13.5t-52.5 -37t-35.5 -55t-15.5 -67.5h342zM154 619h233v-42h-233v42z" />
    <glyph glyph-name="Ebreve" unicode="&#x114;" horiz-adv-x="557" 
d="M86 667h400v-45h-352v-252h275v-45h-275v-280h378v-45h-426v667zM203 841q2 -29 24 -48t62 -19t62.5 19t24.5 48h43q-1 -20 -9 -39t-24.5 -34t-40.5 -24t-56 -9t-56.5 9t-40.5 24t-24.5 34t-9.5 39h45z" />
    <glyph glyph-name="ebreve" unicode="&#x115;" horiz-adv-x="534" 
d="M468 69q-30 -38 -81.5 -59.5t-105.5 -21.5q-51 0 -94.5 17.5t-74.5 49.5t-48.5 76.5t-17.5 98.5q0 50 16.5 94t45.5 77t70 52t90 19q47 0 87.5 -16.5t70 -48.5t46 -79.5t16.5 -109.5h-392q1 -39 15 -73.5t38 -60t57.5 -40t74.5 -14.5q21 0 43.5 4.5t43.5 13.5t38.5 21
t29.5 27zM439 257q-9 85 -54 129t-117 44q-37 0 -67.5 -13.5t-52.5 -37t-35.5 -55t-15.5 -67.5h342zM193 648q0 -29 21 -49t56 -20t56.5 20t21.5 49h37q0 -20 -7.5 -39t-21.5 -34t-36 -24t-50 -9q-29 0 -50.5 9t-35.5 24t-21.5 34t-7.5 39h38z" />
    <glyph glyph-name="Edotaccent" unicode="&#x116;" horiz-adv-x="557" 
d="M86 667h400v-45h-352v-252h275v-45h-275v-280h378v-45h-426v667zM252 831h72v-71h-72v71z" />
    <glyph glyph-name="edotaccent" unicode="&#x117;" horiz-adv-x="534" 
d="M468 69q-30 -38 -81.5 -59.5t-105.5 -21.5q-51 0 -94.5 17.5t-74.5 49.5t-48.5 76.5t-17.5 98.5q0 50 16.5 94t45.5 77t70 52t90 19q47 0 87.5 -16.5t70 -48.5t46 -79.5t16.5 -109.5h-392q1 -39 15 -73.5t38 -60t57.5 -40t74.5 -14.5q21 0 43.5 4.5t43.5 13.5t38.5 21
t29.5 27zM439 257q-9 85 -54 129t-117 44q-37 0 -67.5 -13.5t-52.5 -37t-35.5 -55t-15.5 -67.5h342zM241 630h63v-66h-63v66z" />
    <glyph glyph-name="Eogonek" unicode="&#x118;" horiz-adv-x="557" 
d="M86 667h400v-45h-352v-252h275v-45h-275v-280h378v-45h-55q-34 -29 -56 -61t-22 -59q0 -20 12.5 -30.5t33.5 -10.5q19 0 34.5 7t32.5 18l20 -36q-23 -17 -48.5 -24.5t-49.5 -7.5q-39 0 -63 19t-24 55q0 18 7 35.5t17.5 34t24 31.5t26.5 29h-316v667z" />
    <glyph glyph-name="eogonek" unicode="&#x119;" horiz-adv-x="534" 
d="M419 -173q-20 -15 -44 -22.5t-47 -7.5q-35 0 -60.5 19.5t-25.5 55.5q0 32 17.5 61.5t41.5 55.5q-7 -1 -11 -1h-9q-51 0 -94.5 17.5t-74.5 49.5t-48.5 76.5t-17.5 98.5q0 50 16.5 94t45.5 77t70 52t90 19q47 0 87.5 -16.5t70 -48.5t46 -79.5t16.5 -109.5h-392
q1 -39 15 -73.5t38 -60t57.5 -40t74.5 -14.5q21 0 43.5 4.5t43.5 13.5t38.5 21t29.5 27l32 -27q-20 -25 -49 -42.5t-63 -27.5q-31 -29 -50 -60t-19 -57q0 -22 13.5 -33t34.5 -11q19 0 35.5 6t31.5 17zM439 257q-9 85 -54 129t-117 44q-37 0 -67.5 -13.5t-52.5 -37t-35.5 -55
t-15.5 -67.5h342z" />
    <glyph glyph-name="Ecaron" unicode="&#x11a;" horiz-adv-x="557" 
d="M86 667h400v-45h-352v-252h275v-45h-275v-280h378v-45h-426v667zM149 866h52l89 -108l89 108h53l-117 -141h-53z" />
    <glyph glyph-name="ecaron" unicode="&#x11b;" horiz-adv-x="534" 
d="M468 69q-30 -38 -81.5 -59.5t-105.5 -21.5q-51 0 -94.5 17.5t-74.5 49.5t-48.5 76.5t-17.5 98.5q0 50 16.5 94t45.5 77t70 52t90 19q47 0 87.5 -16.5t70 -48.5t46 -79.5t16.5 -109.5h-392q1 -39 15 -73.5t38 -60t57.5 -40t74.5 -14.5q21 0 43.5 4.5t43.5 13.5t38.5 21
t29.5 27zM439 257q-9 85 -54 129t-117 44q-37 0 -67.5 -13.5t-52.5 -37t-35.5 -55t-15.5 -67.5h342zM157 667h48l66 -94l66 94h48l-92 -128h-44z" />
    <glyph glyph-name="Gcircumflex" unicode="&#x11c;" horiz-adv-x="717" 
d="M588 271h-178v45h226v-250q-17 -15 -41 -29.5t-55.5 -26.5t-71 -19t-88.5 -7q-72 0 -132 25.5t-102.5 72t-66 111t-23.5 141.5q0 73 23.5 136.5t66 111t102.5 74.5t132 27q59 0 101.5 -16t71.5 -37.5t45.5 -42.5t22.5 -31l-36 -25q-6 8 -20 25.5t-38.5 35.5t-59.5 32
t-82 14q-65 0 -116.5 -23.5t-87 -64.5t-54.5 -96.5t-19 -119.5t18.5 -119.5t54 -97t86 -65t113.5 -23.5q77 0 126.5 17t81.5 40v185zM345 866h53l113 -141h-52l-89 108l-89 -108h-53z" />
    <glyph glyph-name="gcircumflex" unicode="&#x11d;" horiz-adv-x="534" 
d="M423 409q-15 6 -33 10q-16 4 -38.5 7.5t-51.5 3.5q-42 0 -79 -13.5t-65.5 -39.5t-45 -64.5t-16.5 -87.5q0 -39 9 -74t28.5 -62t50.5 -43t76 -16q44 0 75 16.5t51 40t29.5 49t9.5 42.5v231zM110 -125q16 -13 50 -28.5t90 -15.5q50 0 83 13.5t53 37t28 55.5t8 70v70
q-16 -26 -41 -45q-21 -17 -52.5 -30.5t-75.5 -13.5q-53 0 -92 18.5t-64.5 50.5t-38 75.5t-12.5 93.5q0 56 19.5 101.5t54 77.5t81 49.5t100.5 17.5q50 0 94.5 -10t71.5 -22v-430q0 -51 -12 -92.5t-38.5 -70t-68 -44t-100.5 -15.5q-33 0 -60 5.5t-47 14t-34.5 17.5t-22.5 16z
M262 667h44l92 -128h-48l-66 94l-66 -94h-48z" />
    <glyph glyph-name="Gbreve" unicode="&#x11e;" horiz-adv-x="717" 
d="M588 271h-178v45h226v-250q-17 -15 -41 -29.5t-55.5 -26.5t-71 -19t-88.5 -7q-72 0 -132 25.5t-102.5 72t-66 111t-23.5 141.5q0 73 23.5 136.5t66 111t102.5 74.5t132 27q59 0 101.5 -16t71.5 -37.5t45.5 -42.5t22.5 -31l-36 -25q-6 8 -20 25.5t-38.5 35.5t-59.5 32
t-82 14q-65 0 -116.5 -23.5t-87 -64.5t-54.5 -96.5t-19 -119.5t18.5 -119.5t54 -97t86 -65t113.5 -23.5q77 0 126.5 17t81.5 40v185zM292 841q2 -29 24 -48t62 -19t62.5 19t24.5 48h43q-1 -20 -9 -39t-24.5 -34t-40.5 -24t-56 -9t-56.5 9t-40.5 24t-24.5 34t-9.5 39h45z" />
    <glyph glyph-name="gbreve" unicode="&#x11f;" horiz-adv-x="534" 
d="M423 409q-15 6 -33 10q-16 4 -38.5 7.5t-51.5 3.5q-42 0 -79 -13.5t-65.5 -39.5t-45 -64.5t-16.5 -87.5q0 -39 9 -74t28.5 -62t50.5 -43t76 -16q44 0 75 16.5t51 40t29.5 49t9.5 42.5v231zM110 -125q16 -13 50 -28.5t90 -15.5q50 0 83 13.5t53 37t28 55.5t8 70v70
q-16 -26 -41 -45q-21 -17 -52.5 -30.5t-75.5 -13.5q-53 0 -92 18.5t-64.5 50.5t-38 75.5t-12.5 93.5q0 56 19.5 101.5t54 77.5t81 49.5t100.5 17.5q50 0 94.5 -10t71.5 -22v-430q0 -51 -12 -92.5t-38.5 -70t-68 -44t-100.5 -15.5q-33 0 -60 5.5t-47 14t-34.5 17.5t-22.5 16z
M211 648q0 -29 21 -49t56 -20t56.5 20t21.5 49h37q0 -20 -7.5 -39t-21.5 -34t-36 -24t-50 -9q-29 0 -50.5 9t-35.5 24t-21.5 34t-7.5 39h38z" />
    <glyph glyph-name="Gdotaccent" unicode="&#x120;" horiz-adv-x="717" 
d="M588 271h-178v45h226v-250q-17 -15 -41 -29.5t-55.5 -26.5t-71 -19t-88.5 -7q-72 0 -132 25.5t-102.5 72t-66 111t-23.5 141.5q0 73 23.5 136.5t66 111t102.5 74.5t132 27q59 0 101.5 -16t71.5 -37.5t45.5 -42.5t22.5 -31l-36 -25q-6 8 -20 25.5t-38.5 35.5t-59.5 32
t-82 14q-65 0 -116.5 -23.5t-87 -64.5t-54.5 -96.5t-19 -119.5t18.5 -119.5t54 -97t86 -65t113.5 -23.5q77 0 126.5 17t81.5 40v185zM340 831h72v-71h-72v71z" />
    <glyph glyph-name="gdotaccent" unicode="&#x121;" horiz-adv-x="534" 
d="M423 409q-15 6 -33 10q-16 4 -38.5 7.5t-51.5 3.5q-42 0 -79 -13.5t-65.5 -39.5t-45 -64.5t-16.5 -87.5q0 -39 9 -74t28.5 -62t50.5 -43t76 -16q44 0 75 16.5t51 40t29.5 49t9.5 42.5v231zM110 -125q16 -13 50 -28.5t90 -15.5q50 0 83 13.5t53 37t28 55.5t8 70v70
q-16 -26 -41 -45q-21 -17 -52.5 -30.5t-75.5 -13.5q-53 0 -92 18.5t-64.5 50.5t-38 75.5t-12.5 93.5q0 56 19.5 101.5t54 77.5t81 49.5t100.5 17.5q50 0 94.5 -10t71.5 -22v-430q0 -51 -12 -92.5t-38.5 -70t-68 -44t-100.5 -15.5q-33 0 -60 5.5t-47 14t-34.5 17.5t-22.5 16z
M259 630h63v-66h-63v66z" />
    <glyph glyph-name="Gcommaaccent" unicode="&#x122;" horiz-adv-x="717" 
d="M588 271h-178v45h226v-250q-17 -15 -41 -29.5t-55.5 -26.5t-71 -19t-88.5 -7q-72 0 -132 25.5t-102.5 72t-66 111t-23.5 141.5q0 73 23.5 136.5t66 111t102.5 74.5t132 27q59 0 101.5 -16t71.5 -37.5t45.5 -42.5t22.5 -31l-36 -25q-6 8 -20 25.5t-38.5 35.5t-59.5 32
t-82 14q-65 0 -116.5 -23.5t-87 -64.5t-54.5 -96.5t-19 -119.5t18.5 -119.5t54 -97t86 -65t113.5 -23.5q77 0 126.5 17t81.5 40v185zM367 -64h57l-74 -138h-45z" />
    <glyph glyph-name="gcommaaccent" unicode="&#x123;" horiz-adv-x="534" 
d="M423 409q-15 6 -33 10q-16 4 -38.5 7.5t-51.5 3.5q-42 0 -79 -13.5t-65.5 -39.5t-45 -64.5t-16.5 -87.5q0 -39 9 -74t28.5 -62t50.5 -43t76 -16q44 0 75 16.5t51 40t29.5 49t9.5 42.5v231zM110 -125q16 -13 50 -28.5t90 -15.5q50 0 83 13.5t53 37t28 55.5t8 70v70
q-16 -26 -41 -45q-21 -17 -52.5 -30.5t-75.5 -13.5q-53 0 -92 18.5t-64.5 50.5t-38 75.5t-12.5 93.5q0 56 19.5 101.5t54 77.5t81 49.5t100.5 17.5q50 0 94.5 -10t71.5 -22v-430q0 -51 -12 -92.5t-38.5 -70t-68 -44t-100.5 -15.5q-33 0 -60 5.5t-47 14t-34.5 17.5t-22.5 16z
M327 667h42l-60 -128h-58z" />
    <glyph glyph-name="Hcircumflex" unicode="&#x124;" horiz-adv-x="688" 
d="M86 667h48v-297h420v297h48v-667h-48v325h-420v-325h-48v667zM319 866h53l113 -141h-52l-89 108l-89 -108h-53z" />
    <glyph glyph-name="hcircumflex" unicode="&#x125;" horiz-adv-x="532" 
d="M69 667h45v-299q8 15 22.5 33.5t36.5 34t51 26t67 10.5q49 0 82.5 -14t54.5 -40.5t30 -64t9 -83.5v-270h-45v255q0 51 -9 85t-26.5 54t-43 28t-58.5 8q-44 0 -76 -18t-53 -46t-31.5 -62t-10.5 -67v-237h-45v667zM184 866h53l113 -141h-52l-89 108l-89 -108h-53z" />
    <glyph glyph-name="Hbar" unicode="&#x126;" horiz-adv-x="716" 
d="M100 501h-80v41h80v125h48v-125h420v125h48v-125h79v-41h-79v-501h-48v325h-420v-325h-48v501zM568 370v131h-420v-131h420z" />
    <glyph glyph-name="hbar" unicode="&#x127;" horiz-adv-x="543" 
d="M80 540h-80v40h80v87h45v-87h178v-40h-178v-172q8 15 22.5 33.5t36.5 34t51 26t67 10.5q49 0 82.5 -14t54.5 -40.5t30 -64t9 -83.5v-270h-45v255q0 51 -9 85t-26.5 54t-43 28t-58.5 8q-44 0 -76 -18t-53 -46t-31.5 -62t-10.5 -67v-237h-45v540z" />
    <glyph glyph-name="Itilde" unicode="&#x128;" horiz-adv-x="220" 
d="M86 667h48v-667h-48v667zM-57 789q20 22 46.5 36.5t55.5 14.5q24 0 41 -7.5t31.5 -16t28.5 -16t31 -7.5q20 0 36.5 8.5t37.5 28.5l28 -30q-20 -22 -46.5 -36t-55.5 -14q-24 0 -40.5 7.5t-31 16t-28.5 16t-32 7.5q-20 0 -38 -8.5t-39 -28.5z" />
    <glyph glyph-name="itilde" unicode="&#x129;" horiz-adv-x="187" 
d="M71 460h45v-460h-45v460zM-64 592q19 22 44.5 35.5t52.5 13.5q23 0 39.5 -7.5t30 -16t26.5 -16t30 -7.5q18 0 34 9t36 29l23 -30q-19 -22 -44.5 -35t-52.5 -13q-23 0 -39 7.5t-29.5 16t-27 16t-30.5 7.5q-18 0 -34 -7t-36 -27z" />
    <glyph glyph-name="Imacron" unicode="&#x12a;" horiz-adv-x="220" 
d="M86 667h48v-667h-48v667zM-47 814h316v-42h-316v42z" />
    <glyph glyph-name="imacron" unicode="&#x12b;" horiz-adv-x="187" 
d="M71 460h45v-460h-45v460zM-22 619h233v-42h-233v42z" />
    <glyph glyph-name="Ibreve" unicode="&#x12c;" horiz-adv-x="220" 
d="M86 667h48v-667h-48v667zM26 841q2 -29 24 -48t62 -19t62.5 19t24.5 48h43q-1 -20 -9 -39t-24.5 -34t-40.5 -24t-56 -9t-56.5 9t-40.5 24t-24.5 34t-9.5 39h45z" />
    <glyph glyph-name="ibreve" unicode="&#x12d;" horiz-adv-x="187" 
d="M71 460h45v-460h-45v460zM17 648q0 -29 21 -49t56 -20t56.5 20t21.5 49h37q0 -20 -7.5 -39t-21.5 -34t-36 -24t-50 -9q-29 0 -50.5 9t-35.5 24t-21.5 34t-7.5 39h38z" />
    <glyph glyph-name="Iogonek" unicode="&#x12e;" horiz-adv-x="220" 
d="M197 -172q-23 -17 -48.5 -24.5t-49.5 -7.5q-39 0 -63 19t-24 55q0 37 23.5 71.5t50.5 61.5v664h48v-670q-29 -30 -49.5 -59t-20.5 -58q0 -20 12.5 -30t33.5 -10q19 0 34.5 6.5t32.5 17.5z" />
    <glyph glyph-name="iogonek" unicode="&#x12f;" horiz-adv-x="187" 
d="M178 -173q-20 -15 -44 -22.5t-47 -7.5q-35 0 -60.5 19.5t-25.5 55.5q0 35 21 69.5t49 63.5v455h45v-462q-31 -29 -50.5 -59.5t-19.5 -56.5q0 -22 13.5 -33t34.5 -11q19 0 35.5 6t31.5 17zM65 610h57v-58h-57v58z" />
    <glyph glyph-name="Idotaccent" unicode="&#x130;" horiz-adv-x="220" 
d="M86 667h48v-667h-48v667zM75 831h72v-71h-72v71z" />
    <glyph glyph-name="dotlessi" unicode="&#x131;" horiz-adv-x="187" 
d="M71 460h45v-460h-45v460z" />
    <glyph glyph-name="IJ" unicode="&#x132;" horiz-adv-x="691" 
d="M86 667h48v-667h-48v667zM277 101q24 -29 58 -50.5t83 -21.5q33 0 59.5 9t45.5 30t29 54.5t10 82.5v462h48v-470q0 -111 -51 -162t-144 -51q-35 0 -62 8t-48 21t-37 28t-27 30z" />
    <glyph glyph-name="ij" unicode="&#x133;" horiz-adv-x="408" 
d="M62 622h63v-65h-63v65zM71 460h45v-460h-45v460zM150 -131q17 -15 32 -22t35 -7q15 0 28.5 5t24 20t16.5 42t6 72v481h45v-474q0 -44 -5 -78.5t-18.5 -58.5t-37.5 -36.5t-61 -12.5q-29 0 -52.5 11t-36.5 25zM283 622h63v-65h-63v65z" />
    <glyph glyph-name="Jcircumflex" unicode="&#x134;" horiz-adv-x="471" 
d="M57 101q24 -29 58 -50.5t83 -21.5q33 0 59.5 9t45.5 30t29 54.5t10 82.5v462h48v-470q0 -111 -51 -162t-144 -51q-35 0 -62 8t-48 21t-37 28t-27 30zM339 866h53l113 -141h-52l-89 108l-89 -108h-53z" />
    <glyph glyph-name="jcircumflex" unicode="&#x135;" horiz-adv-x="187" 
d="M-70 -131q17 -15 32 -22t35 -7q15 0 28.5 5t24 20t16.5 42t6 72v481h45v-474q0 -44 -5 -78.5t-18.5 -58.5t-37.5 -36.5t-61 -12.5q-29 0 -52.5 11t-36.5 25zM73 667h44l92 -128h-48l-66 94l-66 -94h-48z" />
    <glyph glyph-name="Kcommaaccent" unicode="&#x136;" horiz-adv-x="575" 
d="M86 667h48v-348l328 348h59l-252 -269l286 -398h-57l-264 362l-100 -107v-255h-48v667zM281 -64h57l-74 -138h-45z" />
    <glyph glyph-name="kcommaaccent" unicode="&#x137;" horiz-adv-x="454" 
d="M69 667h45v-437l236 230h59l-176 -171l211 -289h-54l-189 257l-87 -84v-173h-45v667zM227 -64h51l-71 -138h-41z" />
    <glyph glyph-name="kgreenlandic" unicode="&#x138;" horiz-adv-x="475" 
d="M69 461h45v-247l258 246h59l-201 -192l235 -268h-54l-213 238l-84 -80v-158h-45v461z" />
    <glyph glyph-name="Lacute" unicode="&#x139;" horiz-adv-x="540" 
d="M86 667h48v-622h378v-45h-426v667zM165 866h64l-94 -141h-44z" />
    <glyph glyph-name="lacute" unicode="&#x13a;" horiz-adv-x="183" 
d="M69 667h45v-667h-45v667zM142 866h64l-94 -141h-44z" />
    <glyph glyph-name="Lcommaaccent" unicode="&#x13b;" horiz-adv-x="540" 
d="M86 667h48v-622h378v-45h-426v667zM280 -64h57l-74 -138h-45z" />
    <glyph glyph-name="lcommaaccent" unicode="&#x13c;" horiz-adv-x="183" 
d="M69 667h45v-667h-45v667zM64 -64h51l-71 -138h-41z" />
    <glyph glyph-name="Lcaron" unicode="&#x13d;" horiz-adv-x="540" 
d="M86 667h48v-622h378v-45h-426v667zM263 667h47l-11 -178h-36v178z" />
    <glyph glyph-name="lcaron" unicode="&#x13e;" horiz-adv-x="241" 
d="M69 667h45v-667h-45v667zM194 667h47l-11 -178h-36v178z" />
    <glyph glyph-name="Ldot" unicode="&#x13f;" horiz-adv-x="540" 
d="M86 667h48v-622h378v-45h-426v667zM344 392h72v-71h-72v71z" />
    <glyph glyph-name="ldot" unicode="&#x140;" horiz-adv-x="261" 
d="M69 667h45v-667h-45v667zM190 396h63v-66h-63v66z" />
    <glyph glyph-name="Lslash" unicode="&#x141;" horiz-adv-x="560" 
d="M106 281l-86 -56v47l86 56v339h48v-308l162 105v-47l-162 -105v-267h378v-45h-426v281z" />
    <glyph glyph-name="lslash" unicode="&#x142;" horiz-adv-x="233" 
d="M94 314l-69 -46v46l69 46v307h45v-277l69 46v-46l-69 -46v-344h-45v314z" />
    <glyph glyph-name="Nacute" unicode="&#x143;" horiz-adv-x="697" 
d="M86 667h50l428 -595v595h47v-667h-50l-428 587v-587h-47v667zM388 866h64l-94 -141h-44z" />
    <glyph glyph-name="nacute" unicode="&#x144;" horiz-adv-x="534" 
d="M71 363v32.5v24t-0.5 20t-1.5 20.5h42q1 -11 1.5 -20t1 -19.5t0.5 -24v-32.5q8 15 22.5 34t36 35.5t51.5 27.5t69 11q49 0 82.5 -14t54.5 -40.5t30 -64t9 -83.5v-270h-45v255q0 51 -9 85t-26.5 54t-43 28t-58.5 8q-44 0 -76 -18t-53 -46t-31.5 -62t-10.5 -67v-237h-45
v363zM302 667h55l-75 -128h-42z" />
    <glyph glyph-name="Ncommaaccent" unicode="&#x145;" horiz-adv-x="697" 
d="M86 667h50l428 -595v595h47v-667h-50l-428 587v-587h-47v667zM338 -64h57l-74 -138h-45z" />
    <glyph glyph-name="ncommaaccent" unicode="&#x146;" horiz-adv-x="534" 
d="M71 363v32.5v24t-0.5 20t-1.5 20.5h42q1 -11 1.5 -20t1 -19.5t0.5 -24v-32.5q8 15 22.5 34t36 35.5t51.5 27.5t69 11q49 0 82.5 -14t54.5 -40.5t30 -64t9 -83.5v-270h-45v255q0 51 -9 85t-26.5 54t-43 28t-58.5 8q-44 0 -76 -18t-53 -46t-31.5 -62t-10.5 -67v-237h-45
v363zM264 -64h51l-71 -138h-41z" />
    <glyph glyph-name="Ncaron" unicode="&#x147;" horiz-adv-x="697" 
d="M86 667h50l428 -595v595h47v-667h-50l-428 587v-587h-47v667zM223 866h52l89 -108l89 108h53l-117 -141h-53z" />
    <glyph glyph-name="ncaron" unicode="&#x148;" horiz-adv-x="534" 
d="M71 363v32.5v24t-0.5 20t-1.5 20.5h42q1 -11 1.5 -20t1 -19.5t0.5 -24v-32.5q8 15 22.5 34t36 35.5t51.5 27.5t69 11q49 0 82.5 -14t54.5 -40.5t30 -64t9 -83.5v-270h-45v255q0 51 -9 85t-26.5 54t-43 28t-58.5 8q-44 0 -76 -18t-53 -46t-31.5 -62t-10.5 -67v-237h-45
v363zM158 667h48l66 -94l66 94h48l-92 -128h-44z" />
    <glyph glyph-name="napostrophe" unicode="&#x149;" horiz-adv-x="534" 
d="M71 363v32.5v24t-0.5 20t-1.5 20.5h42q1 -11 1.5 -20t1 -19.5t0.5 -24v-32.5q8 15 22.5 34t36 35.5t51.5 27.5t69 11q49 0 82.5 -14t54.5 -40.5t30 -64t9 -83.5v-270h-45v255q0 51 -9 85t-26.5 54t-43 28t-58.5 8q-44 0 -76 -18t-53 -46t-31.5 -62t-10.5 -67v-237h-45
v363zM20 667h51l-24 -128h-35z" />
    <glyph glyph-name="Eng" unicode="&#x14a;" horiz-adv-x="697" 
d="M86 667h50l428 -593v593h47v-662q0 -47 -7.5 -84.5t-25 -64.5t-45.5 -41.5t-68 -14.5q-38 0 -67.5 13.5t-47.5 30.5l28 36q20 -16 41 -26t47 -10q18 0 35.5 6.5t31.5 23t22.5 46t8.5 76.5v4l-431 587v-587h-47v667z" />
    <glyph glyph-name="eng" unicode="&#x14b;" horiz-adv-x="534" 
d="M71 363v32.5v24t-0.5 20t-1.5 20.5h42q1 -11 1.5 -20t1 -19.5t0.5 -24v-32.5q8 15 22.5 34t36 35.5t51.5 27.5t69 11q49 0 82.5 -14t54.5 -40.5t30 -64t9 -83.5v-284q0 -44 -5 -78.5t-18.5 -58.5t-37.5 -36.5t-61 -12.5q-29 0 -52.5 11t-36.5 25l24 33q17 -15 32 -22
t35 -7q15 0 28.5 5t24 20t16.5 42t6 72v276q0 51 -9 85t-26.5 54t-43 28t-58.5 8q-44 0 -76 -18t-53 -46t-31.5 -62t-10.5 -67v-237h-45v363z" />
    <glyph glyph-name="Omacron" unicode="&#x14c;" horiz-adv-x="774" 
d="M387 -16q-72 0 -132.5 27t-104.5 74t-69 110.5t-25 137.5q0 73 25 137t69 111.5t104.5 74.5t132.5 27t132.5 -27t104.5 -74.5t69 -111.5t25 -137q0 -74 -25 -137.5t-69 -110.5t-104.5 -74t-132.5 -27zM387 29q63 0 115 23.5t88.5 65t56.5 97t20 118.5t-20 119t-56.5 97
t-88.5 65t-115 24t-115 -24t-88.5 -65t-56.5 -97t-20 -119t20 -118.5t56.5 -97t88.5 -65t115 -23.5zM228 814h316v-42h-316v42z" />
    <glyph glyph-name="omacron" unicode="&#x14d;" horiz-adv-x="566" 
d="M283 -12q-49 0 -92 19t-75.5 52t-51 77t-18.5 94t18.5 94t51 77t75.5 52t92 19t92 -19t75.5 -52t51 -77t18.5 -94t-18.5 -94t-51 -77t-75.5 -52t-92 -19zM283 29q40 0 75 16t60.5 43t40 63.5t14.5 78.5q0 40 -15 76.5t-40.5 64.5t-60.5 44t-74 16q-41 0 -75.5 -16
t-60 -43t-40 -63.5t-14.5 -78.5q0 -41 15 -77t40.5 -64t60.5 -44t74 -16zM164 619h233v-42h-233v42z" />
    <glyph glyph-name="Obreve" unicode="&#x14e;" horiz-adv-x="774" 
d="M387 -16q-72 0 -132.5 27t-104.5 74t-69 110.5t-25 137.5q0 73 25 137t69 111.5t104.5 74.5t132.5 27t132.5 -27t104.5 -74.5t69 -111.5t25 -137q0 -74 -25 -137.5t-69 -110.5t-104.5 -74t-132.5 -27zM387 29q63 0 115 23.5t88.5 65t56.5 97t20 118.5t-20 119t-56.5 97
t-88.5 65t-115 24t-115 -24t-88.5 -65t-56.5 -97t-20 -119t20 -118.5t56.5 -97t88.5 -65t115 -23.5zM301 841q2 -29 24 -48t62 -19t62.5 19t24.5 48h43q-1 -20 -9 -39t-24.5 -34t-40.5 -24t-56 -9t-56.5 9t-40.5 24t-24.5 34t-9.5 39h45z" />
    <glyph glyph-name="obreve" unicode="&#x14f;" horiz-adv-x="566" 
d="M283 -12q-49 0 -92 19t-75.5 52t-51 77t-18.5 94t18.5 94t51 77t75.5 52t92 19t92 -19t75.5 -52t51 -77t18.5 -94t-18.5 -94t-51 -77t-75.5 -52t-92 -19zM283 29q40 0 75 16t60.5 43t40 63.5t14.5 78.5q0 40 -15 76.5t-40.5 64.5t-60.5 44t-74 16q-41 0 -75.5 -16
t-60 -43t-40 -63.5t-14.5 -78.5q0 -41 15 -77t40.5 -64t60.5 -44t74 -16zM206 648q0 -29 21 -49t56 -20t56.5 20t21.5 49h37q0 -20 -7.5 -39t-21.5 -34t-36 -24t-50 -9q-29 0 -50.5 9t-35.5 24t-21.5 34t-7.5 39h38z" />
    <glyph glyph-name="Ohungarumlaut" unicode="&#x150;" horiz-adv-x="774" 
d="M387 -16q-72 0 -132.5 27t-104.5 74t-69 110.5t-25 137.5q0 73 25 137t69 111.5t104.5 74.5t132.5 27t132.5 -27t104.5 -74.5t69 -111.5t25 -137q0 -74 -25 -137.5t-69 -110.5t-104.5 -74t-132.5 -27zM387 29q63 0 115 23.5t88.5 65t56.5 97t20 118.5t-20 119t-56.5 97
t-88.5 65t-115 24t-115 -24t-88.5 -65t-56.5 -97t-20 -119t20 -118.5t56.5 -97t88.5 -65t115 -23.5zM363 866h60l-100 -141h-44zM525 866h60l-100 -141h-44z" />
    <glyph glyph-name="ohungarumlaut" unicode="&#x151;" horiz-adv-x="566" 
d="M283 -12q-49 0 -92 19t-75.5 52t-51 77t-18.5 94t18.5 94t51 77t75.5 52t92 19t92 -19t75.5 -52t51 -77t18.5 -94t-18.5 -94t-51 -77t-75.5 -52t-92 -19zM283 29q40 0 75 16t60.5 43t40 63.5t14.5 78.5q0 40 -15 76.5t-40.5 64.5t-60.5 44t-74 16q-41 0 -75.5 -16
t-60 -43t-40 -63.5t-14.5 -78.5q0 -41 15 -77t40.5 -64t60.5 -44t74 -16zM248 667h56l-76 -128h-40zM383 667h56l-76 -128h-40z" />
    <glyph glyph-name="OE" unicode="&#x152;" horiz-adv-x="1141" 
d="M670 161q-16 -42 -45 -75t-66.5 -55.5t-81.5 -34.5t-90 -12q-72 0 -132.5 27t-104.5 74t-69 110.5t-25 137.5q0 73 25 137t69 111.5t104.5 74.5t132.5 27q46 0 90.5 -12t82 -35t66 -56t44.5 -76v163h400v-45h-352v-252h275v-45h-275v-280h378v-45h-426v161zM387 29
q63 0 115 23.5t88.5 65t56.5 97t20 118.5t-20 119t-56.5 97t-88.5 65t-115 24t-115 -24t-88.5 -65t-56.5 -97t-20 -119t20 -118.5t56.5 -97t88.5 -65t115 -23.5z" />
    <glyph glyph-name="oe" unicode="&#x153;" horiz-adv-x="961" 
d="M895 69q-30 -38 -81.5 -59.5t-105.5 -21.5q-75 0 -130.5 35.5t-82.5 97.5q-29 -60 -85.5 -96.5t-126.5 -36.5q-49 0 -92 19t-75.5 52t-51 77t-18.5 94t18.5 94t51 77t75.5 52t92 19q35 0 67 -9.5t59.5 -27.5t49 -42.5t36.5 -54.5q26 60 78 97t122 37q47 0 87.5 -16.5
t70 -48.5t46 -79.5t16.5 -109.5h-392q1 -39 15 -73.5t38 -60t57.5 -40t74.5 -14.5q21 0 43.5 4.5t43.5 13.5t38.5 21t29.5 27zM283 29q40 0 75 16t60.5 43t40 63.5t14.5 78.5q0 40 -15 76.5t-40.5 64.5t-60.5 44t-74 16q-41 0 -75.5 -16t-60 -43t-40 -63.5t-14.5 -78.5
q0 -41 15 -77t40.5 -64t60.5 -44t74 -16zM866 257q-9 85 -54 129t-117 44q-37 0 -67.5 -13.5t-52.5 -37t-35.5 -55t-15.5 -67.5h342z" />
    <glyph glyph-name="Racute" unicode="&#x154;" horiz-adv-x="596" 
d="M86 667h201q65 0 110 -14t73 -39.5t40.5 -60t12.5 -75.5q0 -65 -33.5 -115.5t-106.5 -67.5l159 -295h-55l-155 289h-198v-289h-48v667zM307 334q165 0 165 144q0 72 -43.5 108t-127.5 36h-167v-288h173zM311 866h64l-94 -141h-44z" />
    <glyph glyph-name="racute" unicode="&#x155;" horiz-adv-x="337" 
d="M71 363v32.5v24t-0.5 20t-1.5 20.5h42q1 -11 1.5 -21t1 -21.5t0.5 -25.5v-33q8 15 21.5 33.5t34.5 34.5t49 27t65 11q22 0 38 -7l-13 -43q-7 3 -16.5 4t-17.5 1q-36 0 -65 -16t-50 -42t-32.5 -59.5t-11.5 -67.5v-235h-45v363zM215 667h55l-75 -128h-42z" />
    <glyph glyph-name="Rcommaaccent" unicode="&#x156;" horiz-adv-x="596" 
d="M86 667h201q65 0 110 -14t73 -39.5t40.5 -60t12.5 -75.5q0 -65 -33.5 -115.5t-106.5 -67.5l159 -295h-55l-155 289h-198v-289h-48v667zM307 334q165 0 165 144q0 72 -43.5 108t-127.5 36h-167v-288h173zM290 -64h51l-71 -138h-41z" />
    <glyph glyph-name="rcommaaccent" unicode="&#x157;" horiz-adv-x="337" 
d="M71 363v32.5v24t-0.5 20t-1.5 20.5h42q1 -11 1.5 -21t1 -21.5t0.5 -25.5v-33q8 15 21.5 33.5t34.5 34.5t49 27t65 11q22 0 38 -7l-13 -43q-7 3 -16.5 4t-17.5 1q-36 0 -65 -16t-50 -42t-32.5 -59.5t-11.5 -67.5v-235h-45v363zM69 -64h51l-71 -138h-41z" />
    <glyph glyph-name="Rcaron" unicode="&#x158;" horiz-adv-x="596" 
d="M86 667h201q65 0 110 -14t73 -39.5t40.5 -60t12.5 -75.5q0 -65 -33.5 -115.5t-106.5 -67.5l159 -295h-55l-155 289h-198v-289h-48v667zM307 334q165 0 165 144q0 72 -43.5 108t-127.5 36h-167v-288h173zM126 866h52l89 -108l89 108h53l-117 -141h-53z" />
    <glyph glyph-name="rcaron" unicode="&#x159;" horiz-adv-x="337" 
d="M71 363v32.5v24t-0.5 20t-1.5 20.5h42q1 -11 1.5 -21t1 -21.5t0.5 -25.5v-33q8 15 21.5 33.5t34.5 34.5t49 27t65 11q22 0 38 -7l-13 -43q-7 3 -16.5 4t-17.5 1q-36 0 -65 -16t-50 -42t-32.5 -59.5t-11.5 -67.5v-235h-45v363zM72 667h48l66 -94l66 94h48l-92 -128h-44z
" />
    <glyph glyph-name="Sacute" unicode="&#x15a;" horiz-adv-x="564" 
d="M82 122q34 -41 81.5 -67t115.5 -26q39 0 71.5 9t56 26.5t36.5 44t13 61.5q0 37 -14.5 63t-38.5 43.5t-54.5 28.5t-61.5 20q-38 10 -76 22.5t-68 33t-48.5 52t-18.5 81.5q0 34 14 65t40.5 54t65 36.5t87.5 13.5q42 0 74.5 -9t57 -22.5t41 -29.5t27.5 -31l-34 -29
q-9 12 -23 25.5t-34 25t-47.5 19t-63.5 7.5q-41 0 -70.5 -11t-48.5 -29t-28 -40.5t-9 -46.5q0 -36 16.5 -59.5t43.5 -39t60.5 -25.5t67.5 -19q35 -9 70 -22.5t62.5 -36t45 -56.5t17.5 -84q0 -43 -18 -77.5t-48.5 -58.5t-72.5 -37t-90 -13q-42 0 -78 9t-65.5 23.5t-52 33
t-36.5 38.5zM317 866h64l-94 -141h-44z" />
    <glyph glyph-name="sacute" unicode="&#x15b;" horiz-adv-x="462" 
d="M70 90q29 -29 66.5 -44.5t88.5 -15.5q28 0 53 5.5t44 16t30 26.5t11 38q0 25 -10 41t-29.5 26.5t-49 18t-67.5 16.5q-32 7 -58.5 16.5t-45.5 23.5t-30 35.5t-11 53.5q0 31 14 54.5t37.5 39.5t54 23.5t63.5 7.5q54 0 95.5 -20t67.5 -51l-31 -28q-24 26 -55.5 42t-75.5 16
q-22 0 -44 -3.5t-40 -13t-29 -26t-11 -43.5q0 -22 12.5 -37t32.5 -25t46 -16.5t52 -12.5q28 -6 56.5 -15t52 -23.5t38 -37t14.5 -56.5q0 -35 -16 -60t-42 -41.5t-59 -24.5t-66 -8q-65 0 -110.5 19t-77.5 51zM262 667h55l-75 -128h-42z" />
    <glyph glyph-name="Scircumflex" unicode="&#x15c;" horiz-adv-x="564" 
d="M82 122q34 -41 81.5 -67t115.5 -26q39 0 71.5 9t56 26.5t36.5 44t13 61.5q0 37 -14.5 63t-38.5 43.5t-54.5 28.5t-61.5 20q-38 10 -76 22.5t-68 33t-48.5 52t-18.5 81.5q0 34 14 65t40.5 54t65 36.5t87.5 13.5q42 0 74.5 -9t57 -22.5t41 -29.5t27.5 -31l-34 -29
q-9 12 -23 25.5t-34 25t-47.5 19t-63.5 7.5q-41 0 -70.5 -11t-48.5 -29t-28 -40.5t-9 -46.5q0 -36 16.5 -59.5t43.5 -39t60.5 -25.5t67.5 -19q35 -9 70 -22.5t62.5 -36t45 -56.5t17.5 -84q0 -43 -18 -77.5t-48.5 -58.5t-72.5 -37t-90 -13q-42 0 -78 9t-65.5 23.5t-52 33
t-36.5 38.5zM257 866h53l113 -141h-52l-89 108l-89 -108h-53z" />
    <glyph glyph-name="scircumflex" unicode="&#x15d;" horiz-adv-x="462" 
d="M70 90q29 -29 66.5 -44.5t88.5 -15.5q28 0 53 5.5t44 16t30 26.5t11 38q0 25 -10 41t-29.5 26.5t-49 18t-67.5 16.5q-32 7 -58.5 16.5t-45.5 23.5t-30 35.5t-11 53.5q0 31 14 54.5t37.5 39.5t54 23.5t63.5 7.5q54 0 95.5 -20t67.5 -51l-31 -28q-24 26 -55.5 42t-75.5 16
q-22 0 -44 -3.5t-40 -13t-29 -26t-11 -43.5q0 -22 12.5 -37t32.5 -25t46 -16.5t52 -12.5q28 -6 56.5 -15t52 -23.5t38 -37t14.5 -56.5q0 -35 -16 -60t-42 -41.5t-59 -24.5t-66 -8q-65 0 -110.5 19t-77.5 51zM209 667h44l92 -128h-48l-66 94l-66 -94h-48z" />
    <glyph glyph-name="Scedilla" unicode="&#x15e;" horiz-adv-x="564" 
d="M82 122q34 -41 81.5 -67t115.5 -26q39 0 71.5 9t56 26.5t36.5 44t13 61.5q0 37 -14.5 63t-38.5 43.5t-54.5 28.5t-61.5 20q-38 10 -76 22.5t-68 33t-48.5 52t-18.5 81.5q0 34 14 65t40.5 54t65 36.5t87.5 13.5q42 0 74.5 -9t57 -22.5t41 -29.5t27.5 -31l-34 -29
q-9 12 -23 25.5t-34 25t-47.5 19t-63.5 7.5q-41 0 -70.5 -11t-48.5 -29t-28 -40.5t-9 -46.5q0 -36 16.5 -59.5t43.5 -39t60.5 -25.5t67.5 -19q35 -9 70 -22.5t62.5 -36t45 -56.5t17.5 -84q0 -43 -18 -77.5t-48.5 -58.5t-72.5 -37t-90 -13q-42 0 -78 9t-65.5 23.5t-52 33
t-36.5 38.5zM189 -165q14 -6 33 -11.5t43 -5.5q36 0 55.5 12.5t19.5 35.5q0 20 -15 31.5t-48 11.5q-20 0 -37.5 -3.5t-40.5 -11.5l6 35q12 4 29.5 9.5t54.5 5.5q24 0 42 -7t29 -17.5t16.5 -24.5t5.5 -27q0 -42 -32.5 -63.5t-81.5 -21.5q-37 0 -56.5 6.5t-30.5 11.5z" />
    <glyph glyph-name="scedilla" unicode="&#x15f;" horiz-adv-x="462" 
d="M70 90q29 -29 66.5 -44.5t88.5 -15.5q28 0 53 5.5t44 16t30 26.5t11 38q0 25 -10 41t-29.5 26.5t-49 18t-67.5 16.5q-32 7 -58.5 16.5t-45.5 23.5t-30 35.5t-11 53.5q0 31 14 54.5t37.5 39.5t54 23.5t63.5 7.5q54 0 95.5 -20t67.5 -51l-31 -28q-24 26 -55.5 42t-75.5 16
q-22 0 -44 -3.5t-40 -13t-29 -26t-11 -43.5q0 -22 12.5 -37t32.5 -25t46 -16.5t52 -12.5q28 -6 56.5 -15t52 -23.5t38 -37t14.5 -56.5q0 -35 -16 -60t-42 -41.5t-59 -24.5t-66 -8q-65 0 -110.5 19t-77.5 51zM138 -165q14 -6 33 -11.5t43 -5.5q36 0 55.5 12.5t19.5 35.5
q0 20 -15 31.5t-48 11.5q-20 0 -37.5 -3.5t-40.5 -11.5l6 35q12 4 29.5 9.5t54.5 5.5q24 0 42 -7t29 -17.5t16.5 -24.5t5.5 -27q0 -42 -32.5 -63.5t-81.5 -21.5q-37 0 -56.5 6.5t-30.5 11.5z" />
    <glyph glyph-name="Scaron" unicode="&#x160;" horiz-adv-x="564" 
d="M82 122q34 -41 81.5 -67t115.5 -26q39 0 71.5 9t56 26.5t36.5 44t13 61.5q0 37 -14.5 63t-38.5 43.5t-54.5 28.5t-61.5 20q-38 10 -76 22.5t-68 33t-48.5 52t-18.5 81.5q0 34 14 65t40.5 54t65 36.5t87.5 13.5q42 0 74.5 -9t57 -22.5t41 -29.5t27.5 -31l-34 -29
q-9 12 -23 25.5t-34 25t-47.5 19t-63.5 7.5q-41 0 -70.5 -11t-48.5 -29t-28 -40.5t-9 -46.5q0 -36 16.5 -59.5t43.5 -39t60.5 -25.5t67.5 -19q35 -9 70 -22.5t62.5 -36t45 -56.5t17.5 -84q0 -43 -18 -77.5t-48.5 -58.5t-72.5 -37t-90 -13q-42 0 -78 9t-65.5 23.5t-52 33
t-36.5 38.5zM145 866h52l89 -108l89 108h53l-117 -141h-53z" />
    <glyph glyph-name="scaron" unicode="&#x161;" horiz-adv-x="462" 
d="M70 90q29 -29 66.5 -44.5t88.5 -15.5q28 0 53 5.5t44 16t30 26.5t11 38q0 25 -10 41t-29.5 26.5t-49 18t-67.5 16.5q-32 7 -58.5 16.5t-45.5 23.5t-30 35.5t-11 53.5q0 31 14 54.5t37.5 39.5t54 23.5t63.5 7.5q54 0 95.5 -20t67.5 -51l-31 -28q-24 26 -55.5 42t-75.5 16
q-22 0 -44 -3.5t-40 -13t-29 -26t-11 -43.5q0 -22 12.5 -37t32.5 -25t46 -16.5t52 -12.5q28 -6 56.5 -15t52 -23.5t38 -37t14.5 -56.5q0 -35 -16 -60t-42 -41.5t-59 -24.5t-66 -8q-65 0 -110.5 19t-77.5 51zM117 667h48l66 -94l66 94h48l-92 -128h-44z" />
    <glyph glyph-name="Tcommaaccent" unicode="&#x162;" horiz-adv-x="616" 
d="M284 624h-259v43h566v-43h-259v-624h-48v624zM279 -64h57l-74 -138h-45z" />
    <glyph glyph-name="tcommaaccent" unicode="&#x163;" horiz-adv-x="355" 
d="M110 418h-92v42h92v152h45v-152h152v-42h-152v-266q0 -41 6 -65.5t17.5 -37t26.5 -16.5t33 -4q25 0 43 9t36 31l28 -27q-20 -26 -45.5 -40t-66.5 -14q-27 0 -50 6.5t-39 24t-25 47t-9 75.5v277zM194 -64h51l-71 -138h-41z" />
    <glyph glyph-name="Tcaron" unicode="&#x164;" horiz-adv-x="616" 
d="M284 624h-259v43h566v-43h-259v-624h-48v624zM169 866h52l89 -108l89 108h53l-117 -141h-53z" />
    <glyph glyph-name="tcaron" unicode="&#x165;" horiz-adv-x="355" 
d="M268 667h47l-11 -149h-36v149zM110 418h-92v42h92v152h45v-152h152v-42h-152v-266q0 -41 6 -65.5t17.5 -37t26.5 -16.5t33 -4q25 0 43 9t36 31l28 -27q-20 -26 -45.5 -40t-66.5 -14q-27 0 -50 6.5t-39 24t-25 47t-9 75.5v277z" />
    <glyph glyph-name="Tbar" unicode="&#x166;" horiz-adv-x="616" 
d="M284 322h-140v42h140v260h-259v43h566v-43h-259v-260h140v-42h-140v-322h-48v322z" />
    <glyph glyph-name="tbar" unicode="&#x167;" horiz-adv-x="355" 
d="M110 237h-92v42h92v139h-92v42h92v152h45v-152h152v-42h-152v-139h152v-42h-152v-85q0 -41 6 -65.5t17.5 -37t26.5 -16.5t33 -4q25 0 43 9t36 31l28 -27q-20 -26 -45.5 -40t-66.5 -14q-27 0 -50 6.5t-39 24t-25 47t-9 75.5v96z" />
    <glyph glyph-name="Utilde" unicode="&#x168;" horiz-adv-x="672" 
d="M81 667h48v-376q0 -57 9 -105t32.5 -83t63.5 -54.5t102 -19.5t102 19.5t63.5 54.5t32.5 83t9 105v376h48v-401q0 -59 -12.5 -110.5t-42 -89.5t-78.5 -60t-122 -22t-122 22t-78.5 60t-42 89.5t-12.5 110.5v401zM163 789q20 22 46.5 36.5t55.5 14.5q24 0 41 -7.5t31.5 -16
t28.5 -16t31 -7.5q20 0 36.5 8.5t37.5 28.5l28 -30q-20 -22 -46.5 -36t-55.5 -14q-24 0 -40.5 7.5t-31 16t-28.5 16t-32 7.5q-20 0 -38 -8.5t-39 -28.5z" />
    <glyph glyph-name="utilde" unicode="&#x169;" horiz-adv-x="528" 
d="M65 460h45v-255q0 -51 8.5 -85t25.5 -54t42 -28t58 -8q43 0 75 18t52.5 46t30.5 62t10 67v237h45v-363v-33v-23.5t0.5 -20t1.5 -20.5h-42q-1 11 -1.5 20t-1 19.5t-0.5 23.5v33q-8 -15 -22 -34t-35 -35.5t-50.5 -27.5t-68.5 -11q-49 0 -82 14t-53.5 40.5t-29 63.5t-8.5 84
v270zM102 592q19 22 44.5 35.5t52.5 13.5q23 0 39.5 -7.5t30 -16t26.5 -16t30 -7.5q18 0 34 9t36 29l23 -30q-19 -22 -44.5 -35t-52.5 -13q-23 0 -39 7.5t-29.5 16t-27 16t-30.5 7.5q-18 0 -34 -7t-36 -27z" />
    <glyph glyph-name="Umacron" unicode="&#x16a;" horiz-adv-x="672" 
d="M81 667h48v-376q0 -57 9 -105t32.5 -83t63.5 -54.5t102 -19.5t102 19.5t63.5 54.5t32.5 83t9 105v376h48v-401q0 -59 -12.5 -110.5t-42 -89.5t-78.5 -60t-122 -22t-122 22t-78.5 60t-42 89.5t-12.5 110.5v401zM176 814h316v-42h-316v42z" />
    <glyph glyph-name="umacron" unicode="&#x16b;" horiz-adv-x="528" 
d="M65 460h45v-255q0 -51 8.5 -85t25.5 -54t42 -28t58 -8q43 0 75 18t52.5 46t30.5 62t10 67v237h45v-363v-33v-23.5t0.5 -20t1.5 -20.5h-42q-1 11 -1.5 20t-1 19.5t-0.5 23.5v33q-8 -15 -22 -34t-35 -35.5t-50.5 -27.5t-68.5 -11q-49 0 -82 14t-53.5 40.5t-29 63.5t-8.5 84
v270zM143 619h233v-42h-233v42z" />
    <glyph glyph-name="Ubreve" unicode="&#x16c;" horiz-adv-x="672" 
d="M81 667h48v-376q0 -57 9 -105t32.5 -83t63.5 -54.5t102 -19.5t102 19.5t63.5 54.5t32.5 83t9 105v376h48v-401q0 -59 -12.5 -110.5t-42 -89.5t-78.5 -60t-122 -22t-122 22t-78.5 60t-42 89.5t-12.5 110.5v401zM251 841q2 -29 24 -48t62 -19t62.5 19t24.5 48h43
q-1 -20 -9 -39t-24.5 -34t-40.5 -24t-56 -9t-56.5 9t-40.5 24t-24.5 34t-9.5 39h45z" />
    <glyph glyph-name="ubreve" unicode="&#x16d;" horiz-adv-x="528" 
d="M65 460h45v-255q0 -51 8.5 -85t25.5 -54t42 -28t58 -8q43 0 75 18t52.5 46t30.5 62t10 67v237h45v-363v-33v-23.5t0.5 -20t1.5 -20.5h-42q-1 11 -1.5 20t-1 19.5t-0.5 23.5v33q-8 -15 -22 -34t-35 -35.5t-50.5 -27.5t-68.5 -11q-49 0 -82 14t-53.5 40.5t-29 63.5t-8.5 84
v270zM184 648q0 -29 21 -49t56 -20t56.5 20t21.5 49h37q0 -20 -7.5 -39t-21.5 -34t-36 -24t-50 -9q-29 0 -50.5 9t-35.5 24t-21.5 34t-7.5 39h38z" />
    <glyph glyph-name="Uring" unicode="&#x16e;" horiz-adv-x="672" 
d="M81 667h48v-376q0 -57 9 -105t32.5 -83t63.5 -54.5t102 -19.5t102 19.5t63.5 54.5t32.5 83t9 105v376h48v-401q0 -59 -12.5 -110.5t-42 -89.5t-78.5 -60t-122 -22t-122 22t-78.5 60t-42 89.5t-12.5 110.5v401zM239 791q0 47 30 76t74 29q45 0 75.5 -29t30.5 -74
q0 -47 -30 -76.5t-74 -29.5q-45 0 -75.5 29.5t-30.5 74.5zM345 724q26 0 45.5 19.5t19.5 49.5q0 29 -19.5 47.5t-47.5 18.5q-27 0 -46 -19t-19 -49q0 -29 19 -48t48 -19z" />
    <glyph glyph-name="uring" unicode="&#x16f;" horiz-adv-x="528" 
d="M65 460h45v-255q0 -51 8.5 -85t25.5 -54t42 -28t58 -8q43 0 75 18t52.5 46t30.5 62t10 67v237h45v-363v-33v-23.5t0.5 -20t1.5 -20.5h-42q-1 11 -1.5 20t-1 19.5t-0.5 23.5v33q-8 -15 -22 -34t-35 -35.5t-50.5 -27.5t-68.5 -11q-49 0 -82 14t-53.5 40.5t-29 63.5t-8.5 84
v270zM171 636q0 43 28 70t69 27q42 0 70 -27t28 -69q0 -43 -28 -70.5t-69 -27.5q-42 0 -70 27.5t-28 69.5zM269 573q25 0 43 18t18 46q0 27 -18 44.5t-44 17.5t-43.5 -17.5t-17.5 -45.5q0 -27 18 -45t44 -18z" />
    <glyph glyph-name="Uhungarumlaut" unicode="&#x170;" horiz-adv-x="672" 
d="M81 667h48v-376q0 -57 9 -105t32.5 -83t63.5 -54.5t102 -19.5t102 19.5t63.5 54.5t32.5 83t9 105v376h48v-401q0 -59 -12.5 -110.5t-42 -89.5t-78.5 -60t-122 -22t-122 22t-78.5 60t-42 89.5t-12.5 110.5v401zM301 866h60l-100 -141h-44zM463 866h60l-100 -141h-44z" />
    <glyph glyph-name="uhungarumlaut" unicode="&#x171;" horiz-adv-x="528" 
d="M65 460h45v-255q0 -51 8.5 -85t25.5 -54t42 -28t58 -8q43 0 75 18t52.5 46t30.5 62t10 67v237h45v-363v-33v-23.5t0.5 -20t1.5 -20.5h-42q-1 11 -1.5 20t-1 19.5t-0.5 23.5v33q-8 -15 -22 -34t-35 -35.5t-50.5 -27.5t-68.5 -11q-49 0 -82 14t-53.5 40.5t-29 63.5t-8.5 84
v270zM223 667h56l-76 -128h-40zM358 667h56l-76 -128h-40z" />
    <glyph glyph-name="Uogonek" unicode="&#x172;" horiz-adv-x="672" 
d="M473 -172q-23 -17 -48.5 -24.5t-49.5 -7.5q-39 0 -63 19t-24 55q0 32 19 61.5t48 53.5q-5 -1 -9.5 -1h-9.5q-73 0 -122 22t-78.5 60t-42 89.5t-12.5 110.5v401h48v-376q0 -57 9 -105t32.5 -83t63.5 -54.5t102 -19.5t102 19.5t63.5 54.5t32.5 83t9 105v376h48v-401
q0 -51 -7 -91.5t-24.5 -72.5t-46 -57.5t-70.5 -47.5q-45 -23 -74 -54.5t-29 -62.5q0 -20 12.5 -30.5t33.5 -10.5q19 0 34.5 7t32.5 18z" />
    <glyph glyph-name="uogonek" unicode="&#x173;" horiz-adv-x="528" 
d="M65 460h45v-255q0 -51 8.5 -85t25.5 -54t42 -28t58 -8q43 0 75 18t52.5 46t30.5 62t10 67v237h45v-363v-33v-23.5t0.5 -20t1.5 -20.5q-31 -29 -50.5 -60.5t-19.5 -57.5q0 -22 13.5 -33t34.5 -11q19 0 35.5 6t31.5 17l17 -34q-20 -15 -44 -22.5t-47 -7.5q-35 0 -60.5 19.5
t-25.5 55.5q0 35 22.5 71t50.5 62q-1 11 -1.5 19.5t-1 18t-0.5 21.5v32q-8 -15 -22 -34t-35 -35.5t-50.5 -27.5t-68.5 -11q-49 0 -82 14t-53.5 40.5t-29 63.5t-8.5 84v270z" />
    <glyph glyph-name="Wcircumflex" unicode="&#x174;" horiz-adv-x="874" 
d="M30 667h54l160 -599l169 579h59l161 -575l159 595h52l-187 -667h-53l-163 576l-171 -576h-56zM412 866h53l113 -141h-52l-89 108l-89 -108h-53z" />
    <glyph glyph-name="wcircumflex" unicode="&#x175;" horiz-adv-x="680" 
d="M15 460h50l128 -401l132 401h43l129 -408l122 408h46l-147 -460h-49l-127 392l-129 -392h-43zM318 667h44l92 -128h-48l-66 94l-66 -94h-48z" />
    <glyph glyph-name="Ycircumflex" unicode="&#x176;" horiz-adv-x="540" 
d="M246 306l-230 361h58l197 -314l197 314h56l-230 -361v-306h-48v306zM248 866h53l113 -141h-52l-89 108l-89 -108h-53z" />
    <glyph glyph-name="ycircumflex" unicode="&#x177;" horiz-adv-x="462" 
d="M45 -149q9 -9 24.5 -16t35.5 -7q30 0 46.5 21t31.5 60l38 97l-205 454h51l177 -399l153 399h49l-226 -569q-6 -15 -15 -33t-22.5 -33.5t-32.5 -26t-45 -10.5q-29 0 -48.5 8.5t-34.5 22.5zM210 667h44l92 -128h-48l-66 94l-66 -94h-48z" />
    <glyph glyph-name="Ydieresis" unicode="&#x178;" horiz-adv-x="540" 
d="M246 306l-230 361h58l197 -314l197 314h56l-230 -361v-306h-48v306zM324 829h66v-69h-66v69zM158 829h66v-69h-66v69z" />
    <glyph glyph-name="Zacute" unicode="&#x179;" horiz-adv-x="616" 
d="M49 44l449 578h-427v45h489v-44l-449 -578h456v-45h-518v44zM344 866h64l-94 -141h-44z" />
    <glyph glyph-name="zacute" unicode="&#x17a;" horiz-adv-x="481" 
d="M61 42l308 378h-296v40h350v-42l-310 -377h317v-41h-369v42zM283 667h55l-75 -128h-42z" />
    <glyph glyph-name="Zdotaccent" unicode="&#x17b;" horiz-adv-x="616" 
d="M49 44l449 578h-427v45h489v-44l-449 -578h456v-45h-518v44zM279 831h72v-71h-72v71z" />
    <glyph glyph-name="zdotaccent" unicode="&#x17c;" horiz-adv-x="481" 
d="M61 42l308 378h-296v40h350v-42l-310 -377h317v-41h-369v42zM221 630h63v-66h-63v66z" />
    <glyph glyph-name="Zcaron" unicode="&#x17d;" horiz-adv-x="616" 
d="M49 44l449 578h-427v45h489v-44l-449 -578h456v-45h-518v44zM184 866h52l89 -108l89 108h53l-117 -141h-53z" />
    <glyph glyph-name="zcaron" unicode="&#x17e;" horiz-adv-x="481" 
d="M61 42l308 378h-296v40h350v-42l-310 -377h317v-41h-369v42zM145 667h48l66 -94l66 94h48l-92 -128h-44z" />
    <glyph glyph-name="longs" unicode="&#x17f;" horiz-adv-x="315" 
d="M107 513q0 82 36.5 126t105.5 44q45 0 74.5 -15t49.5 -38l-29 -28q-21 21 -42 30.5t-49 9.5q-22 0 -40.5 -6t-32 -22.5t-21 -45t-7.5 -73.5v-495h-45v513z" />
    <glyph glyph-name="florin" unicode="&#x192;" horiz-adv-x="472" 
d="M-56 -121q3 -4 10 -10t17.5 -12t23.5 -10.5t29 -4.5q31 0 51.5 12.5t34 33.5t20.5 47.5t12 53.5l56 331h-93v44h100l14 82q5 29 12.5 63t24.5 62.5t46 47.5t76 19q22 0 40 -7t32 -16.5t23 -19t13 -14.5l-31 -28q-14 15 -33 29t-46 14q-33 0 -52.5 -15t-30.5 -38t-16 -50
t-10 -53l-13 -76h110v-44h-118l-56 -331q-5 -27 -14 -60t-27.5 -61.5t-49 -48t-77.5 -19.5q-18 0 -34.5 5.5t-30 13t-23 15.5t-14.5 14z" />
    <glyph glyph-name="Scommaaccent" unicode="&#x218;" horiz-adv-x="564" 
d="M82 122q34 -41 81.5 -67t115.5 -26q39 0 71.5 9t56 26.5t36.5 44t13 61.5q0 37 -14.5 63t-38.5 43.5t-54.5 28.5t-61.5 20q-38 10 -76 22.5t-68 33t-48.5 52t-18.5 81.5q0 34 14 65t40.5 54t65 36.5t87.5 13.5q42 0 74.5 -9t57 -22.5t41 -29.5t27.5 -31l-34 -29
q-9 12 -23 25.5t-34 25t-47.5 19t-63.5 7.5q-41 0 -70.5 -11t-48.5 -29t-28 -40.5t-9 -46.5q0 -36 16.5 -59.5t43.5 -39t60.5 -25.5t67.5 -19q35 -9 70 -22.5t62.5 -36t45 -56.5t17.5 -84q0 -43 -18 -77.5t-48.5 -58.5t-72.5 -37t-90 -13q-42 0 -78 9t-65.5 23.5t-52 33
t-36.5 38.5zM279 -64h51l-71 -138h-41z" />
    <glyph glyph-name="scommaaccent" unicode="&#x219;" horiz-adv-x="462" 
d="M70 90q29 -29 66.5 -44.5t88.5 -15.5q28 0 53 5.5t44 16t30 26.5t11 38q0 25 -10 41t-29.5 26.5t-49 18t-67.5 16.5q-32 7 -58.5 16.5t-45.5 23.5t-30 35.5t-11 53.5q0 31 14 54.5t37.5 39.5t54 23.5t63.5 7.5q54 0 95.5 -20t67.5 -51l-31 -28q-24 26 -55.5 42t-75.5 16
q-22 0 -44 -3.5t-40 -13t-29 -26t-11 -43.5q0 -22 12.5 -37t32.5 -25t46 -16.5t52 -12.5q28 -6 56.5 -15t52 -23.5t38 -37t14.5 -56.5q0 -35 -16 -60t-42 -41.5t-59 -24.5t-66 -8q-65 0 -110.5 19t-77.5 51zM223 -64h51l-71 -138h-41z" />
    <glyph glyph-name="uni021A" unicode="&#x21a;" horiz-adv-x="616" 
d="M284 624h-259v43h566v-43h-259v-624h-48v624zM278 -64h57l-74 -138h-45z" />
    <glyph glyph-name="uni021B" unicode="&#x21b;" horiz-adv-x="355" 
d="M110 418h-92v42h92v152h45v-152h152v-42h-152v-266q0 -41 6 -65.5t17.5 -37t26.5 -16.5t33 -4q25 0 43 9t36 31l28 -27q-20 -26 -45.5 -40t-66.5 -14q-27 0 -50 6.5t-39 24t-25 47t-9 75.5v277zM204 -64h51l-71 -138h-41z" />
    <glyph glyph-name="dotlessj" unicode="&#x237;" horiz-adv-x="221" 
d="M-37 -131q17 -15 32 -22t35 -7q15 0 28.5 5t24 20t16.5 42t6 72v481h45v-474q0 -44 -5 -78.5t-18.5 -58.5t-37.5 -36.5t-61 -12.5q-29 0 -52.5 11t-36.5 25z" />
    <glyph glyph-name="apostrophe" unicode="&#x2bc;" horiz-adv-x="350" 
d="M153 667h51l-24 -128h-35z" />
    <glyph glyph-name="circumflex" unicode="&#x2c6;" horiz-adv-x="350" 
d="M153 667h44l92 -128h-48l-66 94l-66 -94h-48z" />
    <glyph glyph-name="caron" unicode="&#x2c7;" horiz-adv-x="350" 
d="M61 667h48l66 -94l66 94h48l-92 -128h-44z" />
    <glyph glyph-name="uni02C9" unicode="&#x2c9;" horiz-adv-x="350" 
d="M64 619h233v-42h-233v42z" />
    <glyph glyph-name="breve" unicode="&#x2d8;" horiz-adv-x="350" 
d="M98 648q0 -29 21 -49t56 -20t56.5 20t21.5 49h37q0 -20 -7.5 -39t-21.5 -34t-36 -24t-50 -9q-29 0 -50.5 9t-35.5 24t-21.5 34t-7.5 39h38z" />
    <glyph glyph-name="dotaccent" unicode="&#x2d9;" horiz-adv-x="350" 
d="M143 630h63v-66h-63v66z" />
    <glyph glyph-name="ring" unicode="&#x2da;" horiz-adv-x="350" 
d="M77 636q0 43 28 70t69 27q42 0 70 -27t28 -69q0 -43 -28 -70.5t-69 -27.5q-42 0 -70 27.5t-28 69.5zM175 573q25 0 43 18t18 46q0 27 -18 44.5t-44 17.5t-43.5 -17.5t-17.5 -45.5q0 -27 18 -45t44 -18z" />
    <glyph glyph-name="ogonek" unicode="&#x2db;" horiz-adv-x="350" 
d="M250 -173q-20 -15 -44 -22.5t-47 -7.5q-35 0 -60.5 19.5t-25.5 55.5q0 35 21 67t49 61h45q-31 -29 -50.5 -60.5t-19.5 -57.5q0 -22 13.5 -33t34.5 -11q19 0 35.5 6t31.5 17z" />
    <glyph glyph-name="tilde" unicode="&#x2dc;" horiz-adv-x="350" 
d="M17 592q19 22 44.5 35.5t52.5 13.5q23 0 39.5 -7.5t30 -16t26.5 -16t30 -7.5q18 0 34 9t36 29l23 -30q-19 -22 -44.5 -35t-52.5 -13q-23 0 -39 7.5t-29.5 16t-27 16t-30.5 7.5q-18 0 -34 -7t-36 -27z" />
    <glyph glyph-name="hungarumlaut" unicode="&#x2dd;" horiz-adv-x="350" 
d="M109 667h56l-76 -128h-40zM244 667h56l-76 -128h-40z" />
    <glyph glyph-name="pi" unicode="&#x3c0;" horiz-adv-x="688" 
d="M173 416h-112v44h559v-44h-112v-287q0 -54 17 -72.5t43 -18.5q17 0 30.5 5t24.5 12l17 -38q-15 -9 -34 -15t-41 -6q-16 0 -34.5 4t-34 16.5t-26 36t-10.5 62.5v301h-238v-416h-49v416z" />
    <glyph glyph-name="Wgrave" unicode="&#x1e80;" horiz-adv-x="874" 
d="M30 667h54l160 -599l169 579h59l161 -575l159 595h52l-187 -667h-53l-163 576l-171 -576h-56zM341 866h61l75 -141h-44z" />
    <glyph glyph-name="wgrave" unicode="&#x1e81;" horiz-adv-x="680" 
d="M15 460h50l128 -401l132 401h43l129 -408l122 408h46l-147 -460h-49l-127 392l-129 -392h-43zM262 670h58l60 -128h-42z" />
    <glyph glyph-name="Wacute" unicode="&#x1e82;" horiz-adv-x="874" 
d="M30 667h54l160 -599l169 579h59l161 -575l159 595h52l-187 -667h-53l-163 576l-171 -576h-56zM476 866h64l-94 -141h-44z" />
    <glyph glyph-name="wacute" unicode="&#x1e83;" horiz-adv-x="680" 
d="M15 460h50l128 -401l132 401h43l129 -408l122 408h46l-147 -460h-49l-127 392l-129 -392h-43zM381 667h55l-75 -128h-42z" />
    <glyph glyph-name="Wdieresis" unicode="&#x1e84;" horiz-adv-x="874" 
d="M30 667h54l160 -599l169 579h59l161 -575l159 595h52l-187 -667h-53l-163 576l-171 -576h-56zM487 829h66v-69h-66v69zM321 829h66v-69h-66v69z" />
    <glyph glyph-name="wdieresis" unicode="&#x1e85;" horiz-adv-x="680" 
d="M15 460h50l128 -401l132 401h43l129 -408l122 408h46l-147 -460h-49l-127 392l-129 -392h-43zM384 628h60v-63h-60v63zM236 628h60v-63h-60v63z" />
    <glyph glyph-name="Ygrave" unicode="&#x1ef2;" horiz-adv-x="540" 
d="M246 306l-230 361h58l197 -314l197 314h56l-230 -361v-306h-48v306zM172 866h61l75 -141h-44z" />
    <glyph glyph-name="ygrave" unicode="&#x1ef3;" horiz-adv-x="462" 
d="M45 -149q9 -9 24.5 -16t35.5 -7q30 0 46.5 21t31.5 60l38 97l-205 454h51l177 -399l153 399h49l-226 -569q-6 -15 -15 -33t-22.5 -33.5t-32.5 -26t-45 -10.5q-29 0 -48.5 8.5t-34.5 22.5zM147 670h58l60 -128h-42z" />
    <glyph glyph-name="endash" unicode="&#x2013;" horiz-adv-x="500" 
d="M0 303h500v-45h-500v45z" />
    <glyph glyph-name="emdash" unicode="&#x2014;" horiz-adv-x="1000" 
d="M0 303h1000v-45h-1000v45z" />
    <glyph glyph-name="quoteleft" unicode="&#x2018;" horiz-adv-x="193" 
d="M93 667h39l-18 -178h-50z" />
    <glyph glyph-name="quoteright" unicode="&#x2019;" horiz-adv-x="193" 
d="M91 667h50l-29 -178h-39z" />
    <glyph glyph-name="quotesinglbase" unicode="&#x201a;" horiz-adv-x="193" 
d="M90 71h50l-29 -178h-39z" />
    <glyph glyph-name="quotedblleft" unicode="&#x201c;" horiz-adv-x="332" 
d="M99 667h39l-18 -178h-50zM238 667h39l-18 -178h-50z" />
    <glyph glyph-name="quotedblright" unicode="&#x201d;" horiz-adv-x="332" 
d="M97 667h50l-29 -178h-39zM236 667h50l-29 -178h-39z" />
    <glyph glyph-name="quotedblbase" unicode="&#x201e;" horiz-adv-x="332" 
d="M90 71h50l-29 -178h-39zM230 71h50l-29 -178h-39z" />
    <glyph glyph-name="dagger" unicode="&#x2020;" horiz-adv-x="495" 
d="M225 423h-159v42h159v202h45v-202h159v-42h-159v-544h-45v544z" />
    <glyph glyph-name="daggerdbl" unicode="&#x2021;" horiz-adv-x="495" 
d="M225 81h-159v42h159v300h-159v42h159v202h45v-202h159v-42h-159v-300h159v-42h-159v-202h-45v202z" />
    <glyph glyph-name="bullet" unicode="&#x2022;" horiz-adv-x="340" 
d="M63 296q0 22 8.5 41.5t23 34t34 23t41.5 8.5t41.5 -8.5t34 -23t23 -34t8.5 -41.5t-8.5 -41.5t-23 -34t-34 -23t-41.5 -8.5t-41.5 8.5t-34 23t-23 34t-8.5 41.5z" />
    <glyph glyph-name="ellipsis" unicode="&#x2026;" horiz-adv-x="679" 
d="M81 68h68v-70h-68v70zM311 68h68v-70h-68v70zM541 68h68v-70h-68v70z" />
    <glyph glyph-name="perthousand" unicode="&#x2030;" horiz-adv-x="1212" 
d="M597 630h51l-406 -630h-51zM190 326q19 0 37.5 7.5t33.5 24.5t24 44t9 67t-9 67t-24 43.5t-33.5 23.5t-37.5 7q-18 0 -36.5 -7t-33.5 -23.5t-24 -43.5t-9 -67t9 -67t24 -44t33.5 -24.5t36.5 -7.5zM190 288q-65 0 -107 47t-42 134t42 133t107 46q33 0 60.5 -11.5
t47.5 -34.5t31 -56.5t11 -76.5q0 -87 -42 -134t-108 -47zM649 32q19 0 37.5 7.5t33.5 24.5t24 44t9 67t-9 67t-24 43.5t-33.5 23.5t-37.5 7q-18 0 -36.5 -7t-33.5 -23.5t-24 -43.5t-9 -67t9 -67t24 -44t33.5 -24.5t36.5 -7.5zM649 -6q-65 0 -107 47t-42 134t42 133t107 46
q33 0 60.5 -11.5t47.5 -34.5t31 -56.5t11 -76.5q0 -87 -42 -134t-108 -47zM1021 32q19 0 37.5 7.5t33.5 24.5t24 44t9 67t-9 67t-24 43.5t-33.5 23.5t-37.5 7q-18 0 -36.5 -7t-33.5 -23.5t-24 -43.5t-9 -67t9 -67t24 -44t33.5 -24.5t36.5 -7.5zM1021 -6q-65 0 -107 47
t-42 134t42 133t107 46q33 0 60.5 -11.5t47.5 -34.5t31 -56.5t11 -76.5q0 -87 -42 -134t-108 -47z" />
    <glyph glyph-name="guilsinglleft" unicode="&#x2039;" horiz-adv-x="302" 
d="M71 234l106 192h49l-105 -192l105 -192h-49z" />
    <glyph glyph-name="guilsinglright" unicode="&#x203a;" horiz-adv-x="302" 
d="M181 234l-105 192h49l106 -192l-106 -192h-49z" />
    <glyph glyph-name="fraction" unicode="&#x2044;" horiz-adv-x="195" 
d="M276 630h51l-406 -630h-51z" />
    <glyph glyph-name="zerosuperior" unicode="&#x2070;" 
d="M174 326q19 0 37.5 7.5t33.5 24.5t24 44t9 67t-9 67t-24 43.5t-33.5 23.5t-37.5 7q-18 0 -36.5 -7t-33.5 -23.5t-24 -43.5t-9 -67t9 -67t24 -44t33.5 -24.5t36.5 -7.5zM174 288q-65 0 -107 47t-42 134t42 133t107 46q33 0 60.5 -11.5t47.5 -34.5t31 -56.5t11 -76.5
q0 -87 -42 -134t-108 -47z" />
    <glyph glyph-name="foursuperior" unicode="&#x2074;" 
d="M39 409l189 229h45v-228h43v-36h-43v-75h-40v75h-194v35zM233 410v179l-147 -179h147z" />
    <glyph glyph-name="fivesuperior" unicode="&#x2075;" 
d="M75 356q20 -14 41.5 -21.5t45.5 -7.5q15 0 31 4t29.5 13t22.5 23.5t9 35.5q0 36 -23 55t-65 19q-18 0 -34 -3.5t-32 -8.5q-5 4 -10 8.5t-10 8.5l25 156h177v-39h-144l-15 -92q17 5 34 6t28 1q22 0 43 -7.5t37 -22t25.5 -35t9.5 -45.5q0 -23 -9 -44t-26.5 -37t-42.5 -25.5
t-56 -9.5q-29 0 -58.5 8t-53.5 25z" />
    <glyph glyph-name="sixsuperior" unicode="&#x2076;" 
d="M275 589q-8 7 -24 13.5t-39 6.5q-27 0 -47 -9.5t-34.5 -26t-22.5 -38.5t-11 -47q16 12 42 22.5t57 10.5q50 0 84.5 -31t34.5 -87q0 -29 -11 -50.5t-28.5 -35.5t-39.5 -21.5t-44 -7.5q-72 0 -106.5 43.5t-34.5 114.5q0 100 43 151t120 51q30 0 49.5 -8t35.5 -19zM97 449
q-1 -2 -1 -7.5v-8.5q0 -20 5.5 -39.5t17.5 -34.5t30 -24t42 -9q14 0 28 5t25.5 14.5t18.5 24t7 33.5q0 11 -3 24.5t-12 25.5t-25 20t-42 8t-50.5 -9t-40.5 -23z" />
    <glyph glyph-name="sevensuperior" unicode="&#x2077;" 
d="M102 298q13 35 29 74t33.5 78.5t37.5 78t41 72.5h-192v37h237v-38q-13 -21 -31.5 -57.5t-38 -79.5t-37.5 -86.5t-30 -78.5h-49z" />
    <glyph glyph-name="eightsuperior" unicode="&#x2078;" 
d="M229 480q10 -4 24.5 -12t27.5 -20t22 -28t9 -37q0 -18 -7 -35t-22.5 -30.5t-41 -21.5t-61.5 -8t-61 8t-40.5 21.5t-22.5 30.5t-7 35q0 20 7.5 35.5t19 27t26.5 20t30 14.5q-10 4 -21 11t-20 17t-15 23.5t-6 30.5q0 37 28 61.5t82 24.5q57 0 84 -24.5t27 -61.5
q0 -17 -6 -30.5t-15 -23.5t-20 -17t-21 -11zM175 462q-33 -11 -57.5 -28t-24.5 -49q0 -18 8 -29.5t20.5 -18.5t28 -10t30.5 -3q16 0 31.5 3t28 10t20 19t7.5 29q0 16 -8 27.5t-21 20.5t-29.5 16t-33.5 13zM184 498q29 10 47 24.5t18 36.5q0 26 -18.5 40t-50.5 14
q-31 0 -49 -14t-18 -40t22 -39.5t49 -21.5z" />
    <glyph glyph-name="ninesuperior" unicode="&#x2079;" 
d="M79 348q8 -8 28 -14.5t40 -6.5q25 0 44.5 9.5t33.5 26t22 38.5t11 47q-16 -12 -43 -22.5t-57 -10.5q-50 0 -84.5 31t-34.5 86q0 29 11 50.5t28.5 36t39.5 22t44 7.5q72 0 106.5 -43t34.5 -115q0 -100 -42 -151t-114 -51q-28 0 -52 8t-40 19zM258 487q1 2 1 7.5v8.5
q0 19 -6 38.5t-18 34.5t-30 24.5t-42 9.5q-14 0 -28.5 -4.5t-25.5 -14.5t-18 -24.5t-7 -34.5q0 -11 3 -24t12 -25t25 -20t42 -8q25 0 50.5 9t41.5 23z" />
    <glyph glyph-name="zeroinferior" unicode="&#x2080;" 
d="M174 29q19 0 37.5 7.5t33.5 24.5t24 44t9 67t-9 67t-24 43.5t-33.5 23.5t-37.5 7q-18 0 -36.5 -7t-33.5 -23.5t-24 -43.5t-9 -67t9 -67t24 -44t33.5 -24.5t36.5 -7.5zM174 -9q-65 0 -107 47t-42 134t42 133t107 46q33 0 60.5 -11.5t47.5 -34.5t31 -56.5t11 -76.5
q0 -87 -42 -134t-108 -47z" />
    <glyph glyph-name="oneinferior" unicode="&#x2081;" 
d="M187 297l-104 -50l-16 33l126 61h38v-340h-44v296z" />
    <glyph glyph-name="twoinferior" unicode="&#x2082;" 
d="M49 39q0 18 8.5 33t23 28t32.5 25t37 23q18 11 35 22t30.5 23t22 25.5t8.5 29.5q0 33 -23.5 48t-54.5 15q-30 0 -55 -14.5t-40 -34.5l-30 27q17 22 50.5 42t78.5 20q31 0 54 -8.5t38 -22.5t22 -32t7 -37q0 -25 -10.5 -44.5t-27 -35.5t-37 -29t-40.5 -24
q-31 -18 -55.5 -35t-24.5 -42h198v-40h-247v38z" />
    <glyph glyph-name="threeinferior" unicode="&#x2083;" 
d="M64 55q17 -13 38.5 -20t47.5 -7q42 0 69 19.5t27 53.5q0 20 -7 33.5t-18 22t-25.5 12t-30.5 3.5q-9 0 -19 -1t-19 -4l-12 23l107 117h-155v34h210v-28l-106 -111q4 1 8 1.5t10 0.5q47 0 74 -30t27 -70q0 -50 -37.5 -81.5t-101.5 -31.5q-32 0 -58.5 8t-50.5 23z" />
    <glyph glyph-name="fourinferior" unicode="&#x2084;" 
d="M39 112l189 229h45v-228h43v-36h-43v-75h-40v75h-194v35zM233 113v179l-147 -179h147z" />
    <glyph glyph-name="fiveinferior" unicode="&#x2085;" 
d="M75 59q20 -14 41.5 -21.5t45.5 -7.5q15 0 31 4t29.5 13t22.5 23.5t9 35.5q0 36 -23 55t-65 19q-18 0 -34 -3.5t-32 -8.5q-5 4 -10 8.5t-10 8.5l25 156h177v-39h-144l-15 -92q17 5 34 6t28 1q22 0 43 -7.5t37 -22t25.5 -35t9.5 -45.5q0 -23 -9 -44t-26.5 -37t-42.5 -25.5
t-56 -9.5q-29 0 -58.5 8t-53.5 25z" />
    <glyph glyph-name="sixinferior" unicode="&#x2086;" 
d="M275 292q-8 7 -24 13.5t-39 6.5q-27 0 -47 -9.5t-34.5 -26t-22.5 -38.5t-11 -47q16 12 42 22.5t57 10.5q50 0 84.5 -31t34.5 -87q0 -29 -11 -50.5t-28.5 -35.5t-39.5 -21.5t-44 -7.5q-72 0 -106.5 43.5t-34.5 114.5q0 100 43 151t120 51q30 0 49.5 -8t35.5 -19zM97 152
q-1 -2 -1 -7.5v-8.5q0 -20 5.5 -39.5t17.5 -34.5t30 -24t42 -9q14 0 28 5t25.5 14.5t18.5 24t7 33.5q0 11 -3 24.5t-12 25.5t-25 20t-42 8t-50.5 -9t-40.5 -23z" />
    <glyph glyph-name="seveninferior" unicode="&#x2087;" 
d="M102 1q13 35 29 74t33.5 78.5t37.5 78t41 72.5h-192v37h237v-38q-13 -21 -31.5 -57.5t-38 -79.5t-37.5 -86.5t-30 -78.5h-49z" />
    <glyph glyph-name="eightinferior" unicode="&#x2088;" 
d="M229 183q10 -4 24.5 -12t27.5 -20t22 -28t9 -37q0 -18 -7 -35t-22.5 -30.5t-41 -21.5t-61.5 -8t-61 8t-40.5 21.5t-22.5 30.5t-7 35q0 20 7.5 35.5t19 27t26.5 20t30 14.5q-10 4 -21 11t-20 17t-15 23.5t-6 30.5q0 37 28 61.5t82 24.5q57 0 84 -24.5t27 -61.5
q0 -17 -6 -30.5t-15 -23.5t-20 -17t-21 -11zM175 165q-33 -11 -57.5 -28t-24.5 -49q0 -18 8 -29.5t20.5 -18.5t28 -10t30.5 -3q16 0 31.5 3t28 10t20 19t7.5 29q0 16 -8 27.5t-21 20.5t-29.5 16t-33.5 13zM184 201q29 10 47 24.5t18 36.5q0 26 -18.5 40t-50.5 14
q-31 0 -49 -14t-18 -40t22 -39.5t49 -21.5z" />
    <glyph glyph-name="nineinferior" unicode="&#x2089;" 
d="M79 51q8 -8 28 -14.5t40 -6.5q25 0 44.5 9.5t33.5 26t22 38.5t11 47q-16 -12 -43 -22.5t-57 -10.5q-50 0 -84.5 31t-34.5 86q0 29 11 50.5t28.5 36t39.5 22t44 7.5q72 0 106.5 -43t34.5 -115q0 -100 -42 -151t-114 -51q-28 0 -52 8t-40 19zM258 190q1 2 1 7.5v8.5
q0 19 -6 38.5t-18 34.5t-30 24.5t-42 9.5q-14 0 -28.5 -4.5t-25.5 -14.5t-18 -24.5t-7 -34.5q0 -11 3 -24t12 -25t25 -20t42 -8q25 0 50.5 9t41.5 23z" />
    <glyph glyph-name="Euro" unicode="&#x20ac;" horiz-adv-x="545" 
d="M40 264h77q-2 13 -2 25.5v26.5v24.5t2 24.5h-92l15 40h82q8 49 26.5 93.5t48 77.5t70.5 52.5t95 19.5q32 0 58.5 -7.5t47 -18t35 -22t22.5 -18.5l-30 -35q-5 4 -15.5 13.5t-27 19t-39 16.5t-51.5 7q-73 0 -122.5 -51t-66.5 -147h268l-15 -40h-258q-2 -12 -2 -24v-25
q0 -14 0.5 -27t1.5 -25h273l-15 -40h-253q17 -94 67 -144.5t122 -50.5q28 0 50.5 7t39 16t27.5 18.5t16 14.5l30 -35q-5 -5 -18.5 -16t-34 -22t-48.5 -19.5t-62 -8.5q-54 0 -95 19t-70 52t-47.5 76.5t-26.5 92.5h-98z" />
    <glyph glyph-name="afii61289" unicode="&#x2113;" horiz-adv-x="466" 
d="M128 437q0 71 9.5 119.5t28 78t45 42.5t61.5 13q51 0 84 -37.5t33 -106.5q0 -91 -48 -172.5t-136 -163.5v-20q0 -41 6 -66.5t16.5 -39.5t25 -19.5t31.5 -5.5q32 0 61.5 16.5t45.5 39.5l19 -20l21 -18q-27 -40 -65.5 -63t-90.5 -23q-70 0 -108 39.5t-38 127.5
q-13 -10 -24.5 -18t-24.5 -17q-5 11 -11.5 22t-13.5 22q19 13 37 27.5t36 30.5v212zM205 289q54 60 85.5 123.5t31.5 132.5q0 48 -16 67.5t-38 19.5q-26 0 -44.5 -33t-18.5 -109v-201z" />
    <glyph glyph-name="trademark" unicode="&#x2122;" horiz-adv-x="929" 
d="M174 627h-149v40h340v-40h-147v-343h-44v343zM457 667h49l132 -222l128 222h56l10 -383h-44l-9 326l-129 -218h-28l-125 210l-9 -318h-40z" />
    <glyph glyph-name="Omega" unicode="&#x3a9;" horiz-adv-x="778" 
d="M50 45h161q-39 24 -67.5 56.5t-47.5 71t-28.5 81.5t-9.5 87q0 72 24.5 134t68.5 108.5t104.5 73t133.5 26.5t133.5 -26.5t104.5 -73t68.5 -108.5t24.5 -134q0 -44 -9.5 -87t-28.5 -81.5t-47.5 -71t-67.5 -56.5h161v-45h-250v44q45 16 80.5 47t60 71.5t37.5 86.5t13 92
q0 61 -19.5 115.5t-56 94.5t-88.5 63.5t-116 23.5q-65 0 -116.5 -23.5t-88 -63.5t-56 -94.5t-19.5 -115.5q0 -46 13 -92t37.5 -86.5t60 -71.5t80.5 -47v-44h-250v45z" />
    <glyph glyph-name="estimated" unicode="&#x212e;" horiz-adv-x="887" 
d="M192 138q0 -13 9 -22q48 -51 110 -79t135 -28q79 0 145 32.5t114 86.5h57q-26 -32 -60.5 -57.5t-75.5 -43.5t-87 -28t-94 -10q-83 0 -156 28.5t-127 77t-85.5 114t-31.5 140.5t31.5 140.5t85.5 114.5t127 77.5t156 28.5t156.5 -28.5t128 -77.5t86 -114.5t31.5 -140.5v-10
h-650q-5 0 -5 -4v-197zM695 358q4 0 4 7v197q0 13 -9 24q-48 48 -110 75t-134 27q-71 0 -134 -29t-110 -77q-5 -4 -7.5 -10.5t-2.5 -13.5v-193q0 -7 5 -7h498z" />
    <glyph glyph-name="onequarter" unicode="&#xbc;" horiz-adv-x="840" 
d="M159 594l-104 -50l-16 33l126 61h38v-340h-44v296zM585 630h51l-406 -630h-51zM505 112l189 229h45v-228h43v-36h-43v-75h-40v75h-194v35zM699 113v179l-147 -179h147z" />
    <glyph glyph-name="onehalf" unicode="&#xbd;" horiz-adv-x="840" 
d="M169 594l-104 -50l-16 33l126 61h38v-340h-44v296zM556 630h51l-406 -630h-51zM525 39q0 18 8.5 33t23 28t32.5 25t37 23q18 11 35 22t30.5 23t22 25.5t8.5 29.5q0 33 -23.5 48t-54.5 15q-30 0 -55 -14.5t-40 -34.5l-30 27q17 22 50.5 42t78.5 20q31 0 54 -8.5t38 -22.5
t22 -32t7 -37q0 -25 -10.5 -44.5t-27 -35.5t-37 -29t-40.5 -24q-31 -18 -55.5 -35t-24.5 -42h198v-40h-247v38z" />
    <glyph glyph-name="threequarters" unicode="&#xbe;" horiz-adv-x="840" 
d="M67 352q17 -13 38.5 -20t47.5 -7q42 0 69 19.5t27 53.5q0 20 -7 33.5t-18 22t-25.5 12t-30.5 3.5q-9 0 -19 -1t-19 -4l-12 23l107 117h-155v34h210v-28l-106 -111q4 1 8 1.5t10 0.5q47 0 74 -30t27 -70q0 -50 -37.5 -81.5t-101.5 -31.5q-32 0 -58.5 8t-50.5 23zM607 630
h51l-406 -630h-51zM517 112l189 229h45v-228h43v-36h-43v-75h-40v75h-194v35zM711 113v179l-147 -179h147z" />
    <glyph glyph-name="onethird" unicode="&#x2153;" horiz-adv-x="840" 
d="M172 594l-104 -50l-16 33l126 61h38v-340h-44v296zM568 630h51l-406 -630h-51zM543 55q17 -13 38.5 -20t47.5 -7q42 0 69 19.5t27 53.5q0 20 -7 33.5t-18 22t-25.5 12t-30.5 3.5q-9 0 -19 -1t-19 -4l-12 23l107 117h-155v34h210v-28l-106 -111q4 1 8 1.5t10 0.5
q47 0 74 -30t27 -70q0 -50 -37.5 -81.5t-101.5 -31.5q-32 0 -58.5 8t-50.5 23z" />
    <glyph glyph-name="twothirds" unicode="&#x2154;" horiz-adv-x="840" 
d="M55 336q0 18 8.5 33t23 28t32.5 25t37 23q18 11 35 22t30.5 23t22 25.5t8.5 29.5q0 33 -23.5 48t-54.5 15q-30 0 -55 -14.5t-40 -34.5l-30 27q17 22 50.5 42t78.5 20q31 0 54 -8.5t38 -22.5t22 -32t7 -37q0 -25 -10.5 -44.5t-27 -35.5t-37 -29t-40.5 -24
q-31 -18 -55.5 -35t-24.5 -42h198v-40h-247v38zM604 630h51l-406 -630h-51zM565 55q17 -13 38.5 -20t47.5 -7q42 0 69 19.5t27 53.5q0 20 -7 33.5t-18 22t-25.5 12t-30.5 3.5q-9 0 -19 -1t-19 -4l-12 23l107 117h-155v34h210v-28l-106 -111q4 1 8 1.5t10 0.5q47 0 74 -30
t27 -70q0 -50 -37.5 -81.5t-101.5 -31.5q-32 0 -58.5 8t-50.5 23z" />
    <glyph glyph-name="oneeighth" unicode="&#x215b;" horiz-adv-x="840" 
d="M161 594l-104 -50l-16 33l126 61h38v-340h-44v296zM560 630h51l-406 -630h-51zM697 183q10 -4 24.5 -12t27.5 -20t22 -28t9 -37q0 -18 -7 -35t-22.5 -30.5t-41 -21.5t-61.5 -8t-61 8t-40.5 21.5t-22.5 30.5t-7 35q0 20 7.5 35.5t19 27t26.5 20t30 14.5q-10 4 -21 11
t-20 17t-15 23.5t-6 30.5q0 37 28 61.5t82 24.5q57 0 84 -24.5t27 -61.5q0 -17 -6 -30.5t-15 -23.5t-20 -17t-21 -11zM643 165q-33 -11 -57.5 -28t-24.5 -49q0 -18 8 -29.5t20.5 -18.5t28 -10t30.5 -3q16 0 31.5 3t28 10t20 19t7.5 29q0 16 -8 27.5t-21 20.5t-29.5 16
t-33.5 13zM652 201q29 10 47 24.5t18 36.5q0 26 -18.5 40t-50.5 14q-31 0 -49 -14t-18 -40t22 -39.5t49 -21.5z" />
    <glyph glyph-name="threeeighths" unicode="&#x215c;" horiz-adv-x="840" 
d="M60 352q17 -13 38.5 -20t47.5 -7q42 0 69 19.5t27 53.5q0 20 -7 33.5t-18 22t-25.5 12t-30.5 3.5q-9 0 -19 -1t-19 -4l-12 23l107 117h-155v34h210v-28l-106 -111q4 1 8 1.5t10 0.5q47 0 74 -30t27 -70q0 -50 -37.5 -81.5t-101.5 -31.5q-32 0 -58.5 8t-50.5 23zM590 630
h51l-406 -630h-51zM719 183q10 -4 24.5 -12t27.5 -20t22 -28t9 -37q0 -18 -7 -35t-22.5 -30.5t-41 -21.5t-61.5 -8t-61 8t-40.5 21.5t-22.5 30.5t-7 35q0 20 7.5 35.5t19 27t26.5 20t30 14.5q-10 4 -21 11t-20 17t-15 23.5t-6 30.5q0 37 28 61.5t82 24.5q57 0 84 -24.5
t27 -61.5q0 -17 -6 -30.5t-15 -23.5t-20 -17t-21 -11zM665 165q-33 -11 -57.5 -28t-24.5 -49q0 -18 8 -29.5t20.5 -18.5t28 -10t30.5 -3q16 0 31.5 3t28 10t20 19t7.5 29q0 16 -8 27.5t-21 20.5t-29.5 16t-33.5 13zM674 201q29 10 47 24.5t18 36.5q0 26 -18.5 40t-50.5 14
q-31 0 -49 -14t-18 -40t22 -39.5t49 -21.5z" />
    <glyph glyph-name="fiveeighths" unicode="&#x215d;" horiz-adv-x="840" 
d="M67 356q20 -14 41.5 -21.5t45.5 -7.5q15 0 31 4t29.5 13t22.5 23.5t9 35.5q0 36 -23 55t-65 19q-18 0 -34 -3.5t-32 -8.5q-5 4 -10 8.5t-10 8.5l25 156h177v-39h-144l-15 -92q17 5 34 6t28 1q22 0 43 -7.5t37 -22t25.5 -35t9.5 -45.5q0 -23 -9 -44t-26.5 -37t-42.5 -25.5
t-56 -9.5q-29 0 -58.5 8t-53.5 25zM586 630h51l-406 -630h-51zM715 183q10 -4 24.5 -12t27.5 -20t22 -28t9 -37q0 -18 -7 -35t-22.5 -30.5t-41 -21.5t-61.5 -8t-61 8t-40.5 21.5t-22.5 30.5t-7 35q0 20 7.5 35.5t19 27t26.5 20t30 14.5q-10 4 -21 11t-20 17t-15 23.5
t-6 30.5q0 37 28 61.5t82 24.5q57 0 84 -24.5t27 -61.5q0 -17 -6 -30.5t-15 -23.5t-20 -17t-21 -11zM661 165q-33 -11 -57.5 -28t-24.5 -49q0 -18 8 -29.5t20.5 -18.5t28 -10t30.5 -3q16 0 31.5 3t28 10t20 19t7.5 29q0 16 -8 27.5t-21 20.5t-29.5 16t-33.5 13zM670 201
q29 10 47 24.5t18 36.5q0 26 -18.5 40t-50.5 14q-31 0 -49 -14t-18 -40t22 -39.5t49 -21.5z" />
    <glyph glyph-name="seveneighths" unicode="&#x215e;" horiz-adv-x="840" 
d="M94 298q13 35 29 74t33.5 78.5t37.5 78t41 72.5h-192v37h237v-38q-13 -21 -31.5 -57.5t-38 -79.5t-37.5 -86.5t-30 -78.5h-49zM560 630h51l-406 -630h-51zM715 183q10 -4 24.5 -12t27.5 -20t22 -28t9 -37q0 -18 -7 -35t-22.5 -30.5t-41 -21.5t-61.5 -8t-61 8t-40.5 21.5
t-22.5 30.5t-7 35q0 20 7.5 35.5t19 27t26.5 20t30 14.5q-10 4 -21 11t-20 17t-15 23.5t-6 30.5q0 37 28 61.5t82 24.5q57 0 84 -24.5t27 -61.5q0 -17 -6 -30.5t-15 -23.5t-20 -17t-21 -11zM661 165q-33 -11 -57.5 -28t-24.5 -49q0 -18 8 -29.5t20.5 -18.5t28 -10t30.5 -3
q16 0 31.5 3t28 10t20 19t7.5 29q0 16 -8 27.5t-21 20.5t-29.5 16t-33.5 13zM670 201q29 10 47 24.5t18 36.5q0 26 -18.5 40t-50.5 14q-31 0 -49 -14t-18 -40t22 -39.5t49 -21.5z" />
    <glyph glyph-name="onefifth" unicode="&#x2155;" horiz-adv-x="840" 
d="M167 594l-104 -50l-16 33l126 61h38v-340h-44v296zM568 630h51l-406 -630h-51zM549 59q20 -14 41.5 -21.5t45.5 -7.5q15 0 31 4t29.5 13t22.5 23.5t9 35.5q0 36 -23 55t-65 19q-18 0 -34 -3.5t-32 -8.5q-5 4 -10 8.5t-10 8.5l25 156h177v-39h-144l-15 -92q17 5 34 6t28 1
q22 0 43 -7.5t37 -22t25.5 -35t9.5 -45.5q0 -23 -9 -44t-26.5 -37t-42.5 -25.5t-56 -9.5q-29 0 -58.5 8t-53.5 25z" />
    <glyph glyph-name="twofifths" unicode="&#x2156;" horiz-adv-x="840" 
d="M50 336q0 18 8.5 33t23 28t32.5 25t37 23q18 11 35 22t30.5 23t22 25.5t8.5 29.5q0 33 -23.5 48t-54.5 15q-30 0 -55 -14.5t-40 -34.5l-30 27q17 22 50.5 42t78.5 20q31 0 54 -8.5t38 -22.5t22 -32t7 -37q0 -25 -10.5 -44.5t-27 -35.5t-37 -29t-40.5 -24
q-31 -18 -55.5 -35t-24.5 -42h198v-40h-247v38zM612 630h51l-406 -630h-51zM571 59q20 -14 41.5 -21.5t45.5 -7.5q15 0 31 4t29.5 13t22.5 23.5t9 35.5q0 36 -23 55t-65 19q-18 0 -34 -3.5t-32 -8.5q-5 4 -10 8.5t-10 8.5l25 156h177v-39h-144l-15 -92q17 5 34 6t28 1
q22 0 43 -7.5t37 -22t25.5 -35t9.5 -45.5q0 -23 -9 -44t-26.5 -37t-42.5 -25.5t-56 -9.5q-29 0 -58.5 8t-53.5 25z" />
    <glyph glyph-name="threefifths" unicode="&#x2157;" horiz-adv-x="840" 
d="M65 352q17 -13 38.5 -20t47.5 -7q42 0 69 19.5t27 53.5q0 20 -7 33.5t-18 22t-25.5 12t-30.5 3.5q-9 0 -19 -1t-19 -4l-12 23l107 117h-155v34h210v-28l-106 -111q4 1 8 1.5t10 0.5q47 0 74 -30t27 -70q0 -50 -37.5 -81.5t-101.5 -31.5q-32 0 -58.5 8t-50.5 23zM591 630
h51l-406 -630h-51zM571 59q20 -14 41.5 -21.5t45.5 -7.5q15 0 31 4t29.5 13t22.5 23.5t9 35.5q0 36 -23 55t-65 19q-18 0 -34 -3.5t-32 -8.5q-5 4 -10 8.5t-10 8.5l25 156h177v-39h-144l-15 -92q17 5 34 6t28 1q22 0 43 -7.5t37 -22t25.5 -35t9.5 -45.5q0 -23 -9 -44
t-26.5 -37t-42.5 -25.5t-56 -9.5q-29 0 -58.5 8t-53.5 25z" />
    <glyph glyph-name="fourfifths" unicode="&#x2158;" horiz-adv-x="840" 
d="M42 409l189 229h45v-228h43v-36h-43v-75h-40v75h-194v35zM236 410v179l-147 -179h147zM613 630h51l-406 -630h-51zM573 59q20 -14 41.5 -21.5t45.5 -7.5q15 0 31 4t29.5 13t22.5 23.5t9 35.5q0 36 -23 55t-65 19q-18 0 -34 -3.5t-32 -8.5q-5 4 -10 8.5t-10 8.5l25 156
h177v-39h-144l-15 -92q17 5 34 6t28 1q22 0 43 -7.5t37 -22t25.5 -35t9.5 -45.5q0 -23 -9 -44t-26.5 -37t-42.5 -25.5t-56 -9.5q-29 0 -58.5 8t-53.5 25z" />
    <glyph glyph-name="onesixth" unicode="&#x2159;" horiz-adv-x="840" 
d="M159 594l-104 -50l-16 33l126 61h38v-340h-44v296zM559 630h51l-406 -630h-51zM741 292q-8 7 -24 13.5t-39 6.5q-27 0 -47 -9.5t-34.5 -26t-22.5 -38.5t-11 -47q16 12 42 22.5t57 10.5q50 0 84.5 -31t34.5 -87q0 -29 -11 -50.5t-28.5 -35.5t-39.5 -21.5t-44 -7.5
q-72 0 -106.5 43.5t-34.5 114.5q0 100 43 151t120 51q30 0 49.5 -8t35.5 -19zM563 152q-1 -2 -1 -7.5v-8.5q0 -20 5.5 -39.5t17.5 -34.5t30 -24t42 -9q14 0 28 5t25.5 14.5t18.5 24t7 33.5q0 11 -3 24.5t-12 25.5t-25 20t-42 8t-50.5 -9t-40.5 -23z" />
    <glyph glyph-name="fivesixths" unicode="&#x215a;" horiz-adv-x="840" 
d="M64 356q20 -14 41.5 -21.5t45.5 -7.5q15 0 31 4t29.5 13t22.5 23.5t9 35.5q0 36 -23 55t-65 19q-18 0 -34 -3.5t-32 -8.5q-5 4 -10 8.5t-10 8.5l25 156h177v-39h-144l-15 -92q17 5 34 6t28 1q22 0 43 -7.5t37 -22t25.5 -35t9.5 -45.5q0 -23 -9 -44t-26.5 -37t-42.5 -25.5
t-56 -9.5q-29 0 -58.5 8t-53.5 25zM589 630h51l-406 -630h-51zM758 292q-8 7 -24 13.5t-39 6.5q-27 0 -47 -9.5t-34.5 -26t-22.5 -38.5t-11 -47q16 12 42 22.5t57 10.5q50 0 84.5 -31t34.5 -87q0 -29 -11 -50.5t-28.5 -35.5t-39.5 -21.5t-44 -7.5q-72 0 -106.5 43.5
t-34.5 114.5q0 100 43 151t120 51q30 0 49.5 -8t35.5 -19zM580 152q-1 -2 -1 -7.5v-8.5q0 -20 5.5 -39.5t17.5 -34.5t30 -24t42 -9q14 0 28 5t25.5 14.5t18.5 24t7 33.5q0 11 -3 24.5t-12 25.5t-25 20t-42 8t-50.5 -9t-40.5 -23z" />
    <glyph glyph-name="oneseventh" unicode="&#xf506;" horiz-adv-x="840" 
d="M173 594l-104 -50l-16 33l126 61h38v-340h-44v296zM561 630h51l-406 -630h-51zM582 1q13 35 29 74t33.5 78.5t37.5 78t41 72.5h-192v37h237v-38q-13 -21 -31.5 -57.5t-38 -79.5t-37.5 -86.5t-30 -78.5h-49z" />
    <glyph glyph-name="twosevenths" unicode="&#xf507;" horiz-adv-x="840" 
d="M56 336q0 18 8.5 33t23 28t32.5 25t37 23q18 11 35 22t30.5 23t22 25.5t8.5 29.5q0 33 -23.5 48t-54.5 15q-30 0 -55 -14.5t-40 -34.5l-30 27q17 22 50.5 42t78.5 20q31 0 54 -8.5t38 -22.5t22 -32t7 -37q0 -25 -10.5 -44.5t-27 -35.5t-37 -29t-40.5 -24
q-31 -18 -55.5 -35t-24.5 -42h198v-40h-247v38zM599 630h51l-406 -630h-51zM604 1q13 35 29 74t33.5 78.5t37.5 78t41 72.5h-192v37h237v-38q-13 -21 -31.5 -57.5t-38 -79.5t-37.5 -86.5t-30 -78.5h-49z" />
    <glyph glyph-name="threesevenths" unicode="&#xf508;" horiz-adv-x="840" 
d="M71 352q17 -13 38.5 -20t47.5 -7q42 0 69 19.5t27 53.5q0 20 -7 33.5t-18 22t-25.5 12t-30.5 3.5q-9 0 -19 -1t-19 -4l-12 23l107 117h-155v34h210v-28l-106 -111q4 1 8 1.5t10 0.5q47 0 74 -30t27 -70q0 -50 -37.5 -81.5t-101.5 -31.5q-32 0 -58.5 8t-50.5 23zM573 630
h51l-406 -630h-51zM604 1q13 35 29 74t33.5 78.5t37.5 78t41 72.5h-192v37h237v-38q-13 -21 -31.5 -57.5t-38 -79.5t-37.5 -86.5t-30 -78.5h-49z" />
    <glyph glyph-name="foursevenths" unicode="&#xf509;" horiz-adv-x="840" 
d="M48 409l189 229h45v-228h43v-36h-43v-75h-40v75h-194v35zM242 410v179l-147 -179h147zM599 630h51l-406 -630h-51zM606 1q13 35 29 74t33.5 78.5t37.5 78t41 72.5h-192v37h237v-38q-13 -21 -31.5 -57.5t-38 -79.5t-37.5 -86.5t-30 -78.5h-49z" />
    <glyph glyph-name="fivesevenths" unicode="&#xf50a;" horiz-adv-x="840" 
d="M76 356q20 -14 41.5 -21.5t45.5 -7.5q15 0 31 4t29.5 13t22.5 23.5t9 35.5q0 36 -23 55t-65 19q-18 0 -34 -3.5t-32 -8.5q-5 4 -10 8.5t-10 8.5l25 156h177v-39h-144l-15 -92q17 5 34 6t28 1q22 0 43 -7.5t37 -22t25.5 -35t9.5 -45.5q0 -23 -9 -44t-26.5 -37t-42.5 -25.5
t-56 -9.5q-29 0 -58.5 8t-53.5 25zM574 630h51l-406 -630h-51zM598 1q13 35 29 74t33.5 78.5t37.5 78t41 72.5h-192v37h237v-38q-13 -21 -31.5 -57.5t-38 -79.5t-37.5 -86.5t-30 -78.5h-49z" />
    <glyph glyph-name="sixsevenths" unicode="&#xf50b;" horiz-adv-x="840" 
d="M278 589q-8 7 -24 13.5t-39 6.5q-27 0 -47 -9.5t-34.5 -26t-22.5 -38.5t-11 -47q16 12 42 22.5t57 10.5q50 0 84.5 -31t34.5 -87q0 -29 -11 -50.5t-28.5 -35.5t-39.5 -21.5t-44 -7.5q-72 0 -106.5 43.5t-34.5 114.5q0 100 43 151t120 51q30 0 49.5 -8t35.5 -19zM100 449
q-1 -2 -1 -7.5v-8.5q0 -20 5.5 -39.5t17.5 -34.5t30 -24t42 -9q14 0 28 5t25.5 14.5t18.5 24t7 33.5q0 11 -3 24.5t-12 25.5t-25 20t-42 8t-50.5 -9t-40.5 -23zM583 630h51l-406 -630h-51zM600 1q13 35 29 74t33.5 78.5t37.5 78t41 72.5h-192v37h237v-38
q-13 -21 -31.5 -57.5t-38 -79.5t-37.5 -86.5t-30 -78.5h-49z" />
    <glyph glyph-name="oneninth" unicode="&#xf50c;" horiz-adv-x="840" 
d="M175 594l-104 -50l-16 33l126 61h38v-340h-44v296zM556 630h51l-406 -630h-51zM561 51q8 -8 28 -14.5t40 -6.5q25 0 44.5 9.5t33.5 26t22 38.5t11 47q-16 -12 -43 -22.5t-57 -10.5q-50 0 -84.5 31t-34.5 86q0 29 11 50.5t28.5 36t39.5 22t44 7.5q72 0 106.5 -43
t34.5 -115q0 -100 -42 -151t-114 -51q-28 0 -52 8t-40 19zM740 190q1 2 1 7.5v8.5q0 19 -6 38.5t-18 34.5t-30 24.5t-42 9.5q-14 0 -28.5 -4.5t-25.5 -14.5t-18 -24.5t-7 -34.5q0 -11 3 -24t12 -25t25 -20t42 -8q25 0 50.5 9t41.5 23z" />
    <glyph glyph-name="twoninths" unicode="&#xf50d;" horiz-adv-x="840" 
d="M49 336q0 18 8.5 33t23 28t32.5 25t37 23q18 11 35 22t30.5 23t22 25.5t8.5 29.5q0 33 -23.5 48t-54.5 15q-30 0 -55 -14.5t-40 -34.5l-30 27q17 22 50.5 42t78.5 20q31 0 54 -8.5t38 -22.5t22 -32t7 -37q0 -25 -10.5 -44.5t-27 -35.5t-37 -29t-40.5 -24
q-31 -18 -55.5 -35t-24.5 -42h198v-40h-247v38zM593 630h51l-406 -630h-51zM573 51q8 -8 28 -14.5t40 -6.5q25 0 44.5 9.5t33.5 26t22 38.5t11 47q-16 -12 -43 -22.5t-57 -10.5q-50 0 -84.5 31t-34.5 86q0 29 11 50.5t28.5 36t39.5 22t44 7.5q72 0 106.5 -43t34.5 -115
q0 -100 -42 -151t-114 -51q-28 0 -52 8t-40 19zM752 190q1 2 1 7.5v8.5q0 19 -6 38.5t-18 34.5t-30 24.5t-42 9.5q-14 0 -28.5 -4.5t-25.5 -14.5t-18 -24.5t-7 -34.5q0 -11 3 -24t12 -25t25 -20t42 -8q25 0 50.5 9t41.5 23z" />
    <glyph glyph-name="fourninths" unicode="&#xf50e;" horiz-adv-x="840" 
d="M40 409l189 229h45v-228h43v-36h-43v-75h-40v75h-194v35zM234 410v179l-147 -179h147zM601 630h51l-406 -630h-51zM575 51q8 -8 28 -14.5t40 -6.5q25 0 44.5 9.5t33.5 26t22 38.5t11 47q-16 -12 -43 -22.5t-57 -10.5q-50 0 -84.5 31t-34.5 86q0 29 11 50.5t28.5 36
t39.5 22t44 7.5q72 0 106.5 -43t34.5 -115q0 -100 -42 -151t-114 -51q-28 0 -52 8t-40 19zM754 190q1 2 1 7.5v8.5q0 19 -6 38.5t-18 34.5t-30 24.5t-42 9.5q-14 0 -28.5 -4.5t-25.5 -14.5t-18 -24.5t-7 -34.5q0 -11 3 -24t12 -25t25 -20t42 -8q25 0 50.5 9t41.5 23z" />
    <glyph glyph-name="fiveninths" unicode="&#xf50f;" horiz-adv-x="840" 
d="M70 356q20 -14 41.5 -21.5t45.5 -7.5q15 0 31 4t29.5 13t22.5 23.5t9 35.5q0 36 -23 55t-65 19q-18 0 -34 -3.5t-32 -8.5q-5 4 -10 8.5t-10 8.5l25 156h177v-39h-144l-15 -92q17 5 34 6t28 1q22 0 43 -7.5t37 -22t25.5 -35t9.5 -45.5q0 -23 -9 -44t-26.5 -37t-42.5 -25.5
t-56 -9.5q-29 0 -58.5 8t-53.5 25zM581 630h51l-406 -630h-51zM568 51q8 -8 28 -14.5t40 -6.5q25 0 44.5 9.5t33.5 26t22 38.5t11 47q-16 -12 -43 -22.5t-57 -10.5q-50 0 -84.5 31t-34.5 86q0 29 11 50.5t28.5 36t39.5 22t44 7.5q72 0 106.5 -43t34.5 -115q0 -100 -42 -151
t-114 -51q-28 0 -52 8t-40 19zM747 190q1 2 1 7.5v8.5q0 19 -6 38.5t-18 34.5t-30 24.5t-42 9.5q-14 0 -28.5 -4.5t-25.5 -14.5t-18 -24.5t-7 -34.5q0 -11 3 -24t12 -25t25 -20t42 -8q25 0 50.5 9t41.5 23z" />
    <glyph glyph-name="sevenninths" unicode="&#xf510;" horiz-adv-x="840" 
d="M98 298q13 35 29 74t33.5 78.5t37.5 78t41 72.5h-192v37h237v-38q-13 -21 -31.5 -57.5t-38 -79.5t-37.5 -86.5t-30 -78.5h-49zM546 630h51l-406 -630h-51zM569 51q8 -8 28 -14.5t40 -6.5q25 0 44.5 9.5t33.5 26t22 38.5t11 47q-16 -12 -43 -22.5t-57 -10.5
q-50 0 -84.5 31t-34.5 86q0 29 11 50.5t28.5 36t39.5 22t44 7.5q72 0 106.5 -43t34.5 -115q0 -100 -42 -151t-114 -51q-28 0 -52 8t-40 19zM748 190q1 2 1 7.5v8.5q0 19 -6 38.5t-18 34.5t-30 24.5t-42 9.5q-14 0 -28.5 -4.5t-25.5 -14.5t-18 -24.5t-7 -34.5q0 -11 3 -24
t12 -25t25 -20t42 -8q25 0 50.5 9t41.5 23z" />
    <glyph glyph-name="eightninths" unicode="&#xf511;" horiz-adv-x="840" 
d="M226 480q10 -4 24.5 -12t27.5 -20t22 -28t9 -37q0 -18 -7 -35t-22.5 -30.5t-41 -21.5t-61.5 -8t-61 8t-40.5 21.5t-22.5 30.5t-7 35q0 20 7.5 35.5t19 27t26.5 20t30 14.5q-10 4 -21 11t-20 17t-15 23.5t-6 30.5q0 37 28 61.5t82 24.5q57 0 84 -24.5t27 -61.5
q0 -17 -6 -30.5t-15 -23.5t-20 -17t-21 -11zM172 462q-33 -11 -57.5 -28t-24.5 -49q0 -18 8 -29.5t20.5 -18.5t28 -10t30.5 -3q16 0 31.5 3t28 10t20 19t7.5 29q0 16 -8 27.5t-21 20.5t-29.5 16t-33.5 13zM181 498q29 10 47 24.5t18 36.5q0 26 -18.5 40t-50.5 14
q-31 0 -49 -14t-18 -40t22 -39.5t49 -21.5zM598 630h51l-406 -630h-51zM570 51q8 -8 28 -14.5t40 -6.5q25 0 44.5 9.5t33.5 26t22 38.5t11 47q-16 -12 -43 -22.5t-57 -10.5q-50 0 -84.5 31t-34.5 86q0 29 11 50.5t28.5 36t39.5 22t44 7.5q72 0 106.5 -43t34.5 -115
q0 -100 -42 -151t-114 -51q-28 0 -52 8t-40 19zM749 190q1 2 1 7.5v8.5q0 19 -6 38.5t-18 34.5t-30 24.5t-42 9.5q-14 0 -28.5 -4.5t-25.5 -14.5t-18 -24.5t-7 -34.5q0 -11 3 -24t12 -25t25 -20t42 -8q25 0 50.5 9t41.5 23z" />
    <glyph glyph-name="partialdiff" unicode="&#x2202;" horiz-adv-x="561" 
d="M128 628q26 18 67.5 36.5t101.5 18.5q52 0 92.5 -20.5t67.5 -57.5t41 -88t14 -111q0 -73 -14 -148t-46.5 -136t-87 -99.5t-135.5 -38.5q-45 0 -80 13.5t-59 37.5t-37 57t-13 73q0 45 15 89t44 78.5t72 56t99 21.5q34 0 61.5 -6t50 -16t41 -22t35.5 -25q3 31 3 66
q0 47 -9.5 88.5t-29.5 73t-52.5 50t-78.5 18.5q-51 0 -82.5 -14.5t-54.5 -31.5zM451 279q-13 13 -29.5 28t-38 27t-49.5 20t-63 8q-45 0 -78.5 -17.5t-56 -44.5t-33.5 -60.5t-11 -64.5q0 -40 11.5 -68t30.5 -45t44.5 -25t54.5 -8q44 0 80 18t63.5 51t46 79t28.5 102z" />
    <glyph glyph-name="Delta" unicode="&#x2206;" horiz-adv-x="650" 
d="M28 45l273 622h48l273 -622v-45h-594v45zM567 45l-244 562l-243 -562h487z" />
    <glyph glyph-name="product" unicode="&#x220f;" horiz-adv-x="665" 
d="M121 622h-109v45h641v-45h-110v-743h-48v743h-326v-743h-48v743z" />
    <glyph glyph-name="summation" unicode="&#x2211;" horiz-adv-x="523" 
d="M42 -76l243 357l-241 341v45h445v-45h-385l241 -341l-245 -357h392v-45h-450v45z" />
    <glyph glyph-name="uni2126" unicode="&#x2126;" horiz-adv-x="778" 
d="M50 45h161q-39 24 -67.5 56.5t-47.5 71t-28.5 81.5t-9.5 87q0 72 24.5 134t68.5 108.5t104.5 73t133.5 26.5t133.5 -26.5t104.5 -73t68.5 -108.5t24.5 -134q0 -44 -9.5 -87t-28.5 -81.5t-47.5 -71t-67.5 -56.5h161v-45h-250v44q45 16 80.5 47t60 71.5t37.5 86.5t13 92
q0 61 -19.5 115.5t-56 94.5t-88.5 63.5t-116 23.5q-65 0 -116.5 -23.5t-88 -63.5t-56 -94.5t-19.5 -115.5q0 -46 13 -92t37.5 -86.5t60 -71.5t80.5 -47v-44h-250v45z" />
    <glyph glyph-name="minus" unicode="&#x2212;" horiz-adv-x="545" 
d="M72 342h401v-45h-401v45z" />
    <glyph glyph-name="uni2215" unicode="&#x2215;" horiz-adv-x="195" 
d="M276 630h51l-406 -630h-51z" />
    <glyph glyph-name="uni2219" unicode="&#x2219;" horiz-adv-x="203" 
d="M70 395h63v-66h-63v66z" />
    <glyph glyph-name="radical" unicode="&#x221a;" horiz-adv-x="545" 
d="M105 313h-78v45h112l144 -314l213 688h49l-225 -732h-69z" />
    <glyph glyph-name="infinity" unicode="&#x221e;" horiz-adv-x="674" 
d="M337 257q-8 -19 -21 -37t-31 -31.5t-42 -21.5t-54 -8t-56 11t-45.5 32t-31 51.5t-11.5 69.5t11.5 69.5t31 51.5t45.5 32t56 11t54 -8t42 -21.5t31 -31.5t21 -37q8 19 21 37t31 31.5t42 21.5t54 8t56 -11t45.5 -32t31 -51.5t11.5 -69.5t-11.5 -69.5t-31 -51.5t-45.5 -32
t-56 -11t-54 8t-42 21.5t-31 31.5t-21 37zM316 323q-7 54 -39 88.5t-80 34.5q-28 0 -48 -10.5t-32.5 -28t-18.5 -39.5t-6 -45t6 -45.5t18.5 -39.5t32.5 -27.5t48 -10.5q48 0 80 34.5t39 88.5zM358 323q7 -54 39 -88.5t80 -34.5q28 0 47.5 10.5t32.5 27.5t19 39.5t6 45.5
t-6 45t-19 39.5t-32.5 28t-47.5 10.5q-48 0 -80 -34.5t-39 -88.5z" />
    <glyph glyph-name="integral" unicode="&#x222b;" horiz-adv-x="545" 
d="M61 -39q22 -22 42.5 -31.5t48.5 -9.5q21 0 39 6.5t31 22t20.5 43t7.5 69.5v442q0 88 36.5 134t108.5 46q43 0 73 -15.5t50 -38.5l-31 -30q-21 22 -42 31.5t-50 9.5q-21 0 -38.5 -6.5t-31 -22t-21 -42.5t-7.5 -69v-442q0 -86 -36.5 -133t-109.5 -47q-42 0 -72 15t-50 38z
" />
    <glyph glyph-name="approxequal" unicode="&#x2248;" horiz-adv-x="545" 
d="M62 247q23 24 57 39t68 15q25 0 47.5 -8t44 -17t42 -17t42.5 -8q33 0 54 12.5t41 29.5l26 -35q-23 -24 -55.5 -39t-67.5 -15q-25 0 -47.5 8t-43.5 18t-42 18t-42 8q-29 0 -52 -11.5t-43 -30.5zM62 390q23 24 57 39t68 15q25 0 47.5 -8t44 -17t42 -17t42.5 -8
q33 0 54 12.5t41 29.5l26 -35q-23 -24 -55.5 -39t-67.5 -15q-25 0 -47.5 8t-43.5 18t-42 18t-42 8q-29 0 -52 -11.5t-43 -30.5z" />
    <glyph glyph-name="notequal" unicode="&#x2260;" horiz-adv-x="545" 
d="M180 207h-108v45h136l79 128h-215v45h243l71 114l36 -22l-57 -92h108v-45h-136l-80 -128h216v-45h-244l-68 -110l-35 23z" />
    <glyph glyph-name="lessequal" unicode="&#x2264;" horiz-adv-x="545" 
d="M72 45h401v-45h-401v45zM73 339l379 190l21 -41l-339 -168l339 -168l-20 -41l-380 190v38z" />
    <glyph glyph-name="greaterequal" unicode="&#x2265;" horiz-adv-x="545" 
d="M72 45h401v-45h-401v45zM73 152l339 168l-339 168l20 41l380 -190v-38l-379 -190z" />
    <glyph glyph-name="lozenge" unicode="&#x25ca;" horiz-adv-x="556" 
d="M40 334l207 333h62l207 -333l-207 -334h-62zM460 334l-182 294l-182 -294l182 -295z" />
    <glyph glyph-name="zero.alt" unicode="&#xf800;" horiz-adv-x="554" 
d="M276 34q88 0 134.5 75t46.5 211t-46.5 209.5t-134.5 73.5q-86 0 -132.5 -73.5t-46.5 -209.5t46.5 -211t132.5 -75zM277 -12q-54 0 -97 23t-72.5 66t-45.5 104.5t-16 138.5t16 138t45.5 103t72.5 64.5t97 22.5t97 -22.5t72.5 -64.5t45.5 -103t16 -138t-16 -138.5
t-45.5 -104.5t-72.5 -66t-97 -23z" />
    <glyph glyph-name="one.alt" unicode="&#xf801;" horiz-adv-x="416" 
d="M96 44h119v544l-144 -78l-20 36l164 92h48v-594h119v-44h-286v44z" />
    <glyph glyph-name="two.alt" unicode="&#xf802;" horiz-adv-x="495" 
d="M51 44q0 53 30.5 94.5t74.5 78.5q17 15 35.5 29.5t36.5 29.5q31 25 58.5 50t48 50.5t32.5 52.5t12 57q0 24 -8 45t-24.5 37t-41.5 25.5t-59 9.5t-58.5 -8t-42.5 -20t-31 -26.5t-23 -27.5l-36 25q9 15 24.5 32.5t38.5 33t54.5 26t72.5 10.5q46 0 81 -13t58.5 -35t35 -51.5
t11.5 -63.5q0 -39 -13.5 -71t-36 -59.5t-51 -52.5t-59.5 -50q-26 -21 -48 -38.5t-41 -34.5q-38 -33 -58 -63.5t-20 -70.5h337v-45h-390v44z" />
    <glyph glyph-name="three.alt" unicode="&#xf803;" horiz-adv-x="496" 
d="M56 88q10 -8 23.5 -18t33 -19t45 -15.5t60.5 -6.5q77 0 121 41t44 112q0 38 -11.5 65t-31.5 44t-46.5 25t-57.5 8q-24 0 -39.5 -3.5t-32.5 -8.5l-19 33l203 243h-277v44h338v-43l-196 -227q8 2 16.5 3t16.5 1q40 0 74.5 -12.5t59 -36t38.5 -57.5t14 -78q0 -50 -17 -87
t-47 -62t-69.5 -37t-84.5 -12q-41 0 -71.5 7.5t-53 18t-38 21.5t-25.5 19z" />
    <glyph glyph-name="four.alt" unicode="&#xf804;" horiz-adv-x="515" 
d="M46 190l304 442h50v-442h73v-44h-73v-146h-47v146h-307v44zM353 190v373l-257 -373h257z" />
    <glyph glyph-name="five.alt" unicode="&#xf805;" horiz-adv-x="502" 
d="M60 86q28 -21 65.5 -39t90.5 -18q39 0 70.5 11.5t53.5 32t34 49t12 63.5q0 26 -6.5 53t-23 49.5t-45 37t-73.5 14.5q-50 0 -80.5 -11.5t-54.5 -26.5l-24 18l53 313h281v-45h-245l-37 -230q16 8 43.5 17.5t69.5 9.5t77.5 -11.5t61.5 -36t40.5 -62t14.5 -89.5
q0 -42 -15 -79t-43.5 -64t-70 -42.5t-94.5 -15.5q-65 0 -109.5 20t-74.5 44z" />
    <glyph glyph-name="six.alt" unicode="&#xf806;" horiz-adv-x="535" 
d="M430 567q-14 11 -40 22.5t-64 11.5q-52 0 -89 -22t-61 -59t-36.5 -85.5t-15.5 -100.5q11 10 27 20.5t37 19.5t47.5 14.5t58.5 5.5q94 0 142.5 -54t48.5 -154q0 -52 -18 -90t-46.5 -63t-63 -37t-67.5 -12q-58 0 -99 20.5t-66.5 58.5t-37.5 91.5t-12 120.5
q0 184 66.5 277.5t188.5 93.5q45 0 77.5 -14.5t47.5 -27.5zM124 281q-1 -5 -1 -13v-19q0 -42 8.5 -81.5t28 -70.5t50.5 -49.5t77 -18.5q25 0 51.5 9.5t48 28.5t36 48.5t14.5 69.5q0 33 -6 62.5t-22.5 51.5t-46 35t-76.5 13q-51 0 -91 -17t-71 -49z" />
    <glyph glyph-name="seven.alt" unicode="&#xf807;" horiz-adv-x="456" 
d="M103 0q26 77 61 162.5t71 166t70 148.5t59 110h-340v45h395v-44q-16 -27 -38.5 -70t-47.5 -94.5t-51 -108.5t-49.5 -113t-43.5 -108.5t-32 -93.5h-54z" />
    <glyph glyph-name="eight.alt" unicode="&#xf808;" horiz-adv-x="545" 
d="M213 337q-27 13 -49.5 27t-39 32t-25.5 41.5t-9 55.5q0 33 12 61.5t35 49t57 32.5t78 12t78 -12t57 -32t35 -46.5t12 -56.5q0 -23 -6.5 -46t-21.5 -44t-40 -39.5t-61 -33.5q3 -1 28.5 -11t55.5 -31.5t54 -56t24 -83.5q0 -30 -11.5 -60.5t-37.5 -55.5t-67 -40.5t-99 -15.5
q-59 0 -99.5 15.5t-66.5 40.5t-37.5 55.5t-11.5 60.5q0 37 15.5 66t38.5 51t50.5 37.5t51.5 26.5zM265 315q-33 -11 -61.5 -26.5t-50 -35t-33.5 -43.5t-12 -51q0 -36 15 -60.5t38.5 -40.5t52.5 -23t58 -7t58 7t52.5 23t38 40.5t14.5 60.5q0 27 -14 51t-38 43.5t-54.5 35
t-63.5 26.5zM272 359q63 22 98.5 55t35.5 87q0 45 -35 74t-99 29t-99 -30t-35 -81q0 -91 134 -134z" />
    <glyph glyph-name="nine.alt" unicode="&#xf809;" horiz-adv-x="535" 
d="M106 65q14 -11 40 -22.5t64 -11.5q52 0 89 22t61 59t36.5 85t15.5 101q-11 -10 -27 -20.5t-37 -19.5t-47.5 -14.5t-58.5 -5.5q-94 0 -142.5 54t-48.5 154q0 52 18 90t46.5 63t63 37t67.5 12q58 0 99 -20.5t66.5 -58.5t37.5 -91.5t12 -120.5q0 -184 -66.5 -277.5
t-188.5 -93.5q-45 0 -77.5 14.5t-47.5 27.5zM412 351q1 5 1 13v19q0 42 -8.5 81.5t-28 70.5t-50.5 49.5t-77 18.5q-25 0 -51.5 -9.5t-48 -28.5t-36 -48.5t-14.5 -69.5q0 -33 6 -62.5t22.5 -51.5t46 -35t76.5 -13q51 0 91 17t71 49z" />
    <glyph glyph-name="zero.sups" unicode="&#xf80a;" 
d="M174 416q19 0 37.5 7.5t33.5 24.5t24 44t9 67t-9 67t-24 43.5t-33.5 23.5t-37.5 7q-18 0 -36.5 -7t-33.5 -23.5t-24 -43.5t-9 -67t9 -67t24 -44t33.5 -24.5t36.5 -7.5zM174 378q-65 0 -107 47t-42 134t42 133t107 46q33 0 60.5 -11.5t47.5 -34.5t31 -56.5t11 -76.5
q0 -87 -42 -134t-108 -47z" />
    <glyph glyph-name="one.sups" unicode="&#xf80b;" 
d="M187 684l-104 -50l-16 33l126 61h38v-340h-44v296z" />
    <glyph glyph-name="two.sups" unicode="&#xf80c;" 
d="M49 426q0 18 8.5 33t23 28t32.5 25t37 23q18 11 35 22t30.5 23t22 25.5t8.5 29.5q0 33 -23.5 48t-54.5 15q-30 0 -55 -14.5t-40 -34.5l-30 27q17 22 50.5 42t78.5 20q31 0 54 -8.5t38 -22.5t22 -32t7 -37q0 -25 -10.5 -44.5t-27 -35.5t-37 -29t-40.5 -24
q-31 -18 -55.5 -35t-24.5 -42h198v-40h-247v38z" />
    <glyph glyph-name="three.sups" unicode="&#xf80d;" 
d="M64 442q17 -13 38.5 -20t47.5 -7q42 0 69 19.5t27 53.5q0 20 -7 33.5t-18 22t-25.5 12t-30.5 3.5q-9 0 -19 -1t-19 -4l-12 23l107 117h-155v34h210v-28l-106 -111q4 1 8 1.5t10 0.5q47 0 74 -30t27 -70q0 -50 -37.5 -81.5t-101.5 -31.5q-32 0 -58.5 8t-50.5 23z" />
    <glyph glyph-name="four.sups" unicode="&#xf80e;" 
d="M39 499l189 229h45v-228h43v-36h-43v-75h-40v75h-194v35zM233 500v179l-147 -179h147z" />
    <glyph glyph-name="five.sups" unicode="&#xf80f;" 
d="M75 446q20 -14 41.5 -21.5t45.5 -7.5q15 0 31 4t29.5 13t22.5 23.5t9 35.5q0 36 -23 55t-65 19q-18 0 -34 -3.5t-32 -8.5q-5 4 -10 8.5t-10 8.5l25 156h177v-39h-144l-15 -92q17 5 34 6t28 1q22 0 43 -7.5t37 -22t25.5 -35t9.5 -45.5q0 -23 -9 -44t-26.5 -37t-42.5 -25.5
t-56 -9.5q-29 0 -58.5 8t-53.5 25z" />
    <glyph glyph-name="six.sups" unicode="&#xf810;" 
d="M275 679q-8 7 -24 13.5t-39 6.5q-27 0 -47 -9.5t-34.5 -26t-22.5 -38.5t-11 -47q16 12 42 22.5t57 10.5q50 0 84.5 -31t34.5 -87q0 -29 -11 -50.5t-28.5 -35.5t-39.5 -21.5t-44 -7.5q-72 0 -106.5 43.5t-34.5 114.5q0 100 43 151t120 51q30 0 49.5 -8t35.5 -19zM97 539
q-1 -2 -1 -7.5v-8.5q0 -20 5.5 -39.5t17.5 -34.5t30 -24t42 -9q14 0 28 5t25.5 14.5t18.5 24t7 33.5q0 11 -3 24.5t-12 25.5t-25 20t-42 8t-50.5 -9t-40.5 -23z" />
    <glyph glyph-name="seven.sups" unicode="&#xf811;" 
d="M102 388q13 35 29 74t33.5 78.5t37.5 78t41 72.5h-192v37h237v-38q-13 -21 -31.5 -57.5t-38 -79.5t-37.5 -86.5t-30 -78.5h-49z" />
    <glyph glyph-name="eight.sups" unicode="&#xf812;" 
d="M229 570q10 -4 24.5 -12t27.5 -20t22 -28t9 -37q0 -18 -7 -35t-22.5 -30.5t-41 -21.5t-61.5 -8t-61 8t-40.5 21.5t-22.5 30.5t-7 35q0 20 7.5 35.5t19 27t26.5 20t30 14.5q-10 4 -21 11t-20 17t-15 23.5t-6 30.5q0 37 28 61.5t82 24.5q57 0 84 -24.5t27 -61.5
q0 -17 -6 -30.5t-15 -23.5t-20 -17t-21 -11zM175 552q-33 -11 -57.5 -28t-24.5 -49q0 -18 8 -29.5t20.5 -18.5t28 -10t30.5 -3q16 0 31.5 3t28 10t20 19t7.5 29q0 16 -8 27.5t-21 20.5t-29.5 16t-33.5 13zM184 588q29 10 47 24.5t18 36.5q0 26 -18.5 40t-50.5 14
q-31 0 -49 -14t-18 -40t22 -39.5t49 -21.5z" />
    <glyph glyph-name="nine.sups" unicode="&#xf813;" 
d="M79 438q8 -8 28 -14.5t40 -6.5q25 0 44.5 9.5t33.5 26t22 38.5t11 47q-16 -12 -43 -22.5t-57 -10.5q-50 0 -84.5 31t-34.5 86q0 29 11 50.5t28.5 36t39.5 22t44 7.5q72 0 106.5 -43t34.5 -115q0 -100 -42 -151t-114 -51q-28 0 -52 8t-40 19zM258 577q1 2 1 7.5v8.5
q0 19 -6 38.5t-18 34.5t-30 24.5t-42 9.5q-14 0 -28.5 -4.5t-25.5 -14.5t-18 -24.5t-7 -34.5q0 -11 3 -24t12 -25t25 -20t42 -8q25 0 50.5 9t41.5 23z" />
    <glyph glyph-name="zero.sinf" unicode="&#xf814;" 
d="M174 -61q19 0 37.5 7.5t33.5 24.5t24 44t9 67t-9 67t-24 43.5t-33.5 23.5t-37.5 7q-18 0 -36.5 -7t-33.5 -23.5t-24 -43.5t-9 -67t9 -67t24 -44t33.5 -24.5t36.5 -7.5zM174 -99q-65 0 -107 47t-42 134t42 133t107 46q33 0 60.5 -11.5t47.5 -34.5t31 -56.5t11 -76.5
q0 -87 -42 -134t-108 -47z" />
    <glyph glyph-name="one.sinf" unicode="&#xf815;" 
d="M187 207l-104 -50l-16 33l126 61h38v-340h-44v296z" />
    <glyph glyph-name="two.sinf" unicode="&#xf816;" 
d="M49 -51q0 18 8.5 33t23 28t32.5 25t37 23q18 11 35 22t30.5 23t22 25.5t8.5 29.5q0 33 -23.5 48t-54.5 15q-30 0 -55 -14.5t-40 -34.5l-30 27q17 22 50.5 42t78.5 20q31 0 54 -8.5t38 -22.5t22 -32t7 -37q0 -25 -10.5 -44.5t-27 -35.5t-37 -29t-40.5 -24
q-31 -18 -55.5 -35t-24.5 -42h198v-40h-247v38z" />
    <glyph glyph-name="three.sinf" unicode="&#xf817;" 
d="M64 -35q17 -13 38.5 -20t47.5 -7q42 0 69 19.5t27 53.5q0 20 -7 33.5t-18 22t-25.5 12t-30.5 3.5q-9 0 -19 -1t-19 -4l-12 23l107 117h-155v34h210v-28l-106 -111q4 1 8 1.5t10 0.5q47 0 74 -30t27 -70q0 -50 -37.5 -81.5t-101.5 -31.5q-32 0 -58.5 8t-50.5 23z" />
    <glyph glyph-name="four.sinf" unicode="&#xf818;" 
d="M39 22l189 229h45v-228h43v-36h-43v-75h-40v75h-194v35zM233 23v179l-147 -179h147z" />
    <glyph glyph-name="five.sinf" unicode="&#xf819;" 
d="M75 -31q20 -14 41.5 -21.5t45.5 -7.5q15 0 31 4t29.5 13t22.5 23.5t9 35.5q0 36 -23 55t-65 19q-18 0 -34 -3.5t-32 -8.5q-5 4 -10 8.5t-10 8.5l25 156h177v-39h-144l-15 -92q17 5 34 6t28 1q22 0 43 -7.5t37 -22t25.5 -35t9.5 -45.5q0 -23 -9 -44t-26.5 -37t-42.5 -25.5
t-56 -9.5q-29 0 -58.5 8t-53.5 25z" />
    <glyph glyph-name="six.sinf" unicode="&#xf81a;" 
d="M275 202q-8 7 -24 13.5t-39 6.5q-27 0 -47 -9.5t-34.5 -26t-22.5 -38.5t-11 -47q16 12 42 22.5t57 10.5q50 0 84.5 -31t34.5 -87q0 -29 -11 -50.5t-28.5 -35.5t-39.5 -21.5t-44 -7.5q-72 0 -106.5 43.5t-34.5 114.5q0 100 43 151t120 51q30 0 49.5 -8t35.5 -19zM97 62
q-1 -2 -1 -7.5v-8.5q0 -20 5.5 -39.5t17.5 -34.5t30 -24t42 -9q14 0 28 5t25.5 14.5t18.5 24t7 33.5q0 11 -3 24.5t-12 25.5t-25 20t-42 8t-50.5 -9t-40.5 -23z" />
    <glyph glyph-name="seven.sinf" unicode="&#xf81b;" 
d="M102 -89q13 35 29 74t33.5 78.5t37.5 78t41 72.5h-192v37h237v-38q-13 -21 -31.5 -57.5t-38 -79.5t-37.5 -86.5t-30 -78.5h-49z" />
    <glyph glyph-name="eight.sinf" unicode="&#xf81c;" 
d="M229 93q10 -4 24.5 -12t27.5 -20t22 -28t9 -37q0 -18 -7 -35t-22.5 -30.5t-41 -21.5t-61.5 -8t-61 8t-40.5 21.5t-22.5 30.5t-7 35q0 20 7.5 35.5t19 27t26.5 20t30 14.5q-10 4 -21 11t-20 17t-15 23.5t-6 30.5q0 37 28 61.5t82 24.5q57 0 84 -24.5t27 -61.5
q0 -17 -6 -30.5t-15 -23.5t-20 -17t-21 -11zM175 75q-33 -11 -57.5 -28t-24.5 -49q0 -18 8 -29.5t20.5 -18.5t28 -10t30.5 -3q16 0 31.5 3t28 10t20 19t7.5 29q0 16 -8 27.5t-21 20.5t-29.5 16t-33.5 13zM184 111q29 10 47 24.5t18 36.5q0 26 -18.5 40t-50.5 14
q-31 0 -49 -14t-18 -40t22 -39.5t49 -21.5z" />
    <glyph glyph-name="nine.sinf" unicode="&#xf81d;" 
d="M79 -39q8 -8 28 -14.5t40 -6.5q25 0 44.5 9.5t33.5 26t22 38.5t11 47q-16 -12 -43 -22.5t-57 -10.5q-50 0 -84.5 31t-34.5 86q0 29 11 50.5t28.5 36t39.5 22t44 7.5q72 0 106.5 -43t34.5 -115q0 -100 -42 -151t-114 -51q-28 0 -52 8t-40 19zM258 100q1 2 1 7.5v8.5
q0 19 -6 38.5t-18 34.5t-30 24.5t-42 9.5q-14 0 -28.5 -4.5t-25.5 -14.5t-18 -24.5t-7 -34.5q0 -11 3 -24t12 -25t25 -20t42 -8q25 0 50.5 9t41.5 23z" />
    <glyph glyph-name="hungarumlaut.cap" horiz-adv-x="396" 
d="M129 866h60l-100 -141h-44zM291 866h60l-100 -141h-44z" />
    <glyph glyph-name="cedilla.cap" horiz-adv-x="327" 
d="M65 -160q14 -6 34 -11.5t45 -5.5q78 0 78 45q0 39 -65 39q-21 0 -40 -3.5t-42 -11.5l7 40q18 6 37.5 10.5t51.5 4.5q26 0 44.5 -7t30.5 -18.5t17.5 -25t5.5 -26.5q0 -42 -34.5 -64.5t-84.5 -22.5q-36 0 -58.5 6.5t-34.5 11.5z" />
    <glyph glyph-name="tilde.cap" horiz-adv-x="406" 
d="M35 789q20 22 46.5 36.5t55.5 14.5q24 0 41 -7.5t31.5 -16t28.5 -16t31 -7.5q20 0 36.5 8.5t37.5 28.5l28 -30q-20 -22 -46.5 -36t-55.5 -14q-24 0 -40.5 7.5t-31 16t-28.5 16t-32 7.5q-20 0 -38 -8.5t-39 -28.5z" />
    <glyph glyph-name="ogonek.cap" horiz-adv-x="350" 
d="M262 -172q-23 -17 -48.5 -24.5t-49.5 -7.5q-39 0 -63 19t-24 55q0 18 7 35.5t17.5 34t24 31.5t26.5 29h55q-34 -29 -56 -61t-22 -59q0 -20 12.5 -30.5t33.5 -10.5q19 0 34.5 7t32.5 18z" />
    <glyph glyph-name="ring.cap" horiz-adv-x="309" 
d="M57 791q0 47 30 76t74 29q45 0 75.5 -29t30.5 -74q0 -47 -30 -76.5t-74 -29.5q-45 0 -75.5 29.5t-30.5 74.5zM163 724q26 0 45.5 19.5t19.5 49.5q0 29 -19.5 47.5t-47.5 18.5q-27 0 -46 -19t-19 -49q0 -29 19 -48t48 -19z" />
    <glyph glyph-name="caron.cap" horiz-adv-x="368" 
d="M33 866h52l89 -108l89 108h53l-117 -141h-53z" />
    <glyph glyph-name="macron.cap" horiz-adv-x="341" 
d="M12 814h316v-42h-316v42z" />
    <glyph glyph-name="dieresis.cap" horiz-adv-x="316" 
d="M208 829h66v-69h-66v69zM42 829h66v-69h-66v69z" />
    <glyph glyph-name="dotaccent.cap" horiz-adv-x="143" 
d="M36 831h72v-71h-72v71z" />
    <glyph glyph-name="circumflex.cap" horiz-adv-x="368" 
d="M159 866h53l113 -141h-52l-89 108l-89 -108h-53z" />
    <glyph glyph-name="acute.cap" horiz-adv-x="219" 
d="M114 866h64l-94 -141h-44z" />
    <glyph glyph-name="grave.cap" horiz-adv-x="219" 
d="M42 866h61l75 -141h-44z" />
    <glyph glyph-name="breve.cap" horiz-adv-x="350" 
d="M90 841q2 -29 24 -48t62 -19t62.5 19t24.5 48h43q-1 -20 -9 -39t-24.5 -34t-40.5 -24t-56 -9t-56.5 9t-40.5 24t-24.5 34t-9.5 39h45z" />
    <glyph glyph-name="commaaccent.cap" horiz-adv-x="276" 
d="M128 -64h57l-74 -138h-45z" />
    <glyph glyph-name="caron.alt" horiz-adv-x="368" 
d="M153 667h47l-11 -178h-36v178z" />
    <glyph glyph-name="commaaccent" horiz-adv-x="158" 
d="M76 -64h51l-71 -138h-41z" />
    <glyph glyph-name="revcommaaccent" horiz-adv-x="175" 
d="M104 667h42l-60 -128h-58z" />
    <glyph glyph-name="at.alt" horiz-adv-x="852" 
d="M388 357h-298q3 84 34 145.5t79 101.5t109 59.5t124 19.5q77 0 143 -23.5t114.5 -70t76 -114.5t27.5 -158q0 -87 -22 -150t-57.5 -103.5t-79.5 -59.5t-87 -19q-20 0 -43.5 4.5t-45 15t-39 27.5t-25.5 43q-20 -26 -43 -42.5t-48.5 -26.5t-51 -14t-49.5 -4t-50.5 6t-48 21
t-36 39.5t-14.5 61.5q0 30 11 56.5t35 47t62 32.5t92 12q42 0 75 -3.5t56 -7.5v104zM388 399v99h45v-99h152v-42h-152v-211q0 -40 13 -63.5t31 -35.5t38 -15.5t35 -3.5q46 0 83 21t63 59t39.5 92t13.5 119q0 88 -26.5 149t-70 99t-100 55.5t-116.5 17.5q-71 0 -125 -22.5
t-90 -57.5t-55.5 -77.5t-21.5 -83.5h244zM388 213q-21 5 -52.5 8t-79.5 3q-51 0 -81 -12t-45 -29.5t-19 -37t-4 -35.5q0 -38 31.5 -58.5t76.5 -20.5q34 0 65.5 10.5t55.5 29t38 44t14 55.5v43z" />
    </font>
</defs>
</svg>
